<svg width="96" height="96" viewBox="0 0 96 96" fill="none" xmlns="http://www.w3.org/2000/svg">
<path d="M47.5 58.0459C42.1563 58.0459 37.8239 53.7284 37.8239 48.4033C37.8239 43.0781 42.1563 38.7606 47.5 38.7606C52.8437 38.7606 57.1761 43.0781 57.1761 48.4033C57.1761 53.7284 52.8437 58.0459 47.5 58.0459ZM27.9273 48.4033C27.9273 46.5168 28.2005 44.6923 28.7037 42.9682L8 31.057V67.211C8 69.6372 9.29877 71.8819 11.4075 73.0949L42.5302 91V67.273C34.1289 65.0809 27.9273 57.4632 27.9273 48.4033ZM44.0925 4.9134L13.3101 22.6226L33.8461 34.4384C37.3734 31.014 42.1899 28.8982 47.5048 28.8982C52.8245 28.8982 57.641 31.014 61.1683 34.4431L81.7043 22.6274L50.9075 4.9134C48.7988 3.69553 46.2012 3.69553 44.0925 4.9134ZM66.3011 42.9778C66.7995 44.7019 67.0727 46.5215 67.0727 48.4033C67.0727 57.4632 60.8711 65.0809 52.4698 67.273V91L83.5925 73.0949C85.7012 71.8819 87 69.6372 87 67.211V31.0665L66.3011 42.9778Z" fill="url(#paint0_linear_13_9776)"/>
<rect x="1" y="1" width="94" height="94" rx="11" stroke="#F1F2F4" stroke-width="2"/>
<defs>
<linearGradient id="paint0_linear_13_9776" x1="82.7929" y1="4" x2="-14.2477" y2="51.7022" gradientUnits="userSpaceOnUse">
<stop stop-color="#27A8E0"/>
<stop offset="1" stop-color="#204496"/>
</linearGradient>
</defs>
</svg>
