<svg width="20" height="20" viewBox="0 0 20 20" fill="none" xmlns="http://www.w3.org/2000/svg">
<path d="M0.999945 11H1.99995V13V18C1.99995 19.103 2.89694 20 3.99995 20H6.99995H12.9999H15.9999C17.1029 20 17.9999 19.103 17.9999 18V13V11H18.9999C19.4039 11 19.7699 10.756 19.9239 10.383C20.0789 10.009 19.9929 9.57901 19.7069 9.29301L10.7069 0.293006C10.3159 -0.0979941 9.68394 -0.0979941 9.29294 0.293006L0.292945 9.29301C0.0069451 9.57901 -0.0790549 10.009 0.0759451 10.383C0.229945 10.756 0.595945 11 0.999945 11ZM7.99994 18V13H11.9999V18H7.99994ZM9.99994 2.41401L15.9999 8.41401V13L16.0009 18H13.9999V13C13.9999 11.897 13.1029 11 11.9999 11H7.99994C6.89694 11 5.99995 11.897 5.99995 13V18H3.99995V13V10V8.41401L9.99994 2.41401Z" fill="#52616B"/>
</svg>
