<svg width="110" height="29" viewBox="0 0 110 29" fill="none" xmlns="http://www.w3.org/2000/svg">
<path d="M12.7952 17.5678C11.0642 17.5678 9.66084 16.1644 9.66084 14.4334C9.66084 12.7025 11.0642 11.299 12.7952 11.299C14.5262 11.299 15.9296 12.7025 15.9296 14.4334C15.9296 16.1644 14.5262 17.5678 12.7952 17.5678ZM6.45505 14.4334C6.45505 13.8202 6.54354 13.2272 6.70654 12.6667L0 8.79496V20.5469C0 21.3356 0.420711 22.0652 1.10379 22.4595L11.1853 28.2796V20.5671C8.46391 19.8545 6.45505 17.3784 6.45505 14.4334ZM11.6914 0.296904L1.7201 6.05335L8.37231 9.89409C9.51491 8.78099 11.0751 8.09326 12.7968 8.09326C14.52 8.09326 16.0802 8.78099 17.2228 9.89564L23.875 6.05491L13.899 0.296904C13.2159 -0.0989681 12.3745 -0.0989681 11.6914 0.296904ZM18.8854 12.6699C19.0469 13.2303 19.1354 13.8218 19.1354 14.4334C19.1354 17.3784 17.1265 19.8545 14.4051 20.5671V28.2796L24.4866 22.4595C25.1697 22.0652 25.5904 21.3356 25.5904 20.5469V8.79807L18.8854 12.6699Z" fill="url(#paint0_linear_13_20729)"/>
<path d="M34.9505 8.36658V20.7675H32.0164V8.36658H34.9505ZM42.0716 8.36658L38.1175 13.9321L42.3945 20.7675H38.9946L35.039 14.1463L38.976 8.36658H42.0716V8.36658Z" fill="#1C3666"/>
<path d="M50.5011 12.2942C51.3239 13.1838 51.7353 14.4273 51.7353 16.0248C51.7353 17.0385 51.5474 17.9249 51.1717 18.6825C50.7961 19.4401 50.2589 20.0285 49.5619 20.4445C48.8633 20.8622 48.0374 21.0702 47.0842 21.0702C45.6404 21.0702 44.504 20.6262 43.675 19.7366C42.846 18.8486 42.4315 17.6051 42.4315 16.0061C42.4315 14.9924 42.6194 14.1059 42.9951 13.3483C43.3707 12.5908 43.9079 12.0039 44.6049 11.5863C45.3035 11.1687 46.1294 10.9607 47.0826 10.9607C48.5373 10.9607 49.6767 11.4062 50.5011 12.2942ZM45.7941 13.7613C45.5085 14.2441 45.3641 14.9939 45.3641 16.0077C45.3641 17.0463 45.5038 17.8038 45.7848 18.2804C46.0642 18.757 46.4974 18.9961 47.0826 18.9961C47.6555 18.9961 48.0855 18.7539 48.3711 18.2711C48.6568 17.7883 48.8012 17.04 48.8012 16.0248C48.8012 14.9862 48.6615 14.2286 48.3805 13.752C48.0995 13.2754 47.6679 13.0363 47.0826 13.0363C46.5098 13.0379 46.0797 13.2785 45.7941 13.7613Z" fill="#1C3666"/>
<path d="M59.5196 11.1222L59.0725 13.8607C58.7139 13.7769 58.4282 13.735 58.214 13.735C57.6535 13.735 57.2266 13.929 56.9348 14.3171C56.6429 14.7052 56.4131 15.2858 56.2455 16.0621V20.7691H53.4185V11.265H55.8884L56.1213 13.1078C56.3355 12.4511 56.6615 11.9357 57.0962 11.56C57.5309 11.1843 58.023 10.9965 58.5726 10.9965C58.9172 10.9965 59.2339 11.0384 59.5196 11.1222Z" fill="#1C3666"/>
<path d="M68.2875 16.8491H62.4007C62.4954 17.6486 62.7236 18.209 63.0806 18.5319C63.4392 18.8549 63.9329 19.0148 64.5663 19.0148C64.9482 19.0148 65.3177 18.9464 65.6763 18.8083C66.0349 18.6717 66.4215 18.459 66.8391 18.1733L68.0018 19.7475C66.8919 20.6308 65.6577 21.0717 64.2977 21.0717C62.7593 21.0717 61.5779 20.6184 60.7551 19.7118C59.9323 18.8052 59.5209 17.5881 59.5209 16.0605C59.5209 15.0948 59.6932 14.2255 60.0394 13.457C60.3856 12.687 60.8917 12.0785 61.5608 11.6313C62.2283 11.1842 63.0278 10.9607 63.9593 10.9607C65.3317 10.9607 66.4044 11.3907 67.1806 12.2492C67.9553 13.1077 68.3434 14.3015 68.3434 15.8276C68.3418 16.2219 68.3232 16.5619 68.2875 16.8491ZM65.5676 15.0234C65.5428 13.5688 65.0305 12.8407 64.0292 12.8407C63.5401 12.8407 63.1613 13.0192 62.8928 13.3778C62.6242 13.7365 62.4596 14.3264 62.4007 15.1492H65.5676V15.0234V15.0234Z" fill="#1C3666"/>
<path d="M77.1176 8.40229C77.7199 8.62895 78.2897 8.96893 78.8268 9.42224L77.4312 11.0865C77.0617 10.8008 76.6968 10.585 76.3398 10.4422C75.9812 10.2994 75.5993 10.228 75.1941 10.228C74.3589 10.228 73.7006 10.5804 73.2163 11.2836C72.7334 11.9869 72.4913 13.0736 72.4913 14.5406C72.4913 15.9844 72.7334 17.0556 73.2163 17.7526C73.6991 18.4512 74.3713 18.799 75.2298 18.799C75.6831 18.799 76.0945 18.712 76.464 18.5397C76.8335 18.3674 77.234 18.119 77.6625 17.7977L78.9696 19.4805C78.5039 19.9462 77.9404 20.3281 77.279 20.6262C76.6177 20.9243 75.8865 21.0733 75.087 21.0733C73.9412 21.0733 72.9461 20.8234 72.0985 20.3219C71.2509 19.8205 70.5926 19.0784 70.1207 18.0942C69.6487 17.1099 69.4143 15.9254 69.4143 14.5422C69.4143 13.1947 69.6565 12.0303 70.1393 11.0523C70.6221 10.0743 71.2897 9.3322 72.1435 8.82455C72.9958 8.31691 73.9661 8.06386 75.0512 8.06386C75.8275 8.06231 76.5152 8.17563 77.1176 8.40229Z" fill="#1C3666"/>
<path d="M87.3994 12.2942C88.2222 13.1838 88.6336 14.4273 88.6336 16.0248C88.6336 17.0385 88.4457 17.9249 88.07 18.6825C87.6943 19.4401 87.1572 20.0285 86.4602 20.4445C85.7616 20.8622 84.9357 21.0702 83.9825 21.0702C82.5387 21.0702 81.4023 20.6262 80.5733 19.7366C79.7443 18.8486 79.3298 17.6051 79.3298 16.0061C79.3298 14.9924 79.5177 14.1059 79.8934 13.3483C80.2691 12.5908 80.8062 12.0039 81.5032 11.5863C82.2018 11.1687 83.0277 10.9607 83.9809 10.9607C85.4371 10.9607 86.5766 11.4062 87.3994 12.2942ZM82.6924 13.7613C82.4068 14.2441 82.2624 14.9939 82.2624 16.0077C82.2624 17.0463 82.4021 17.8038 82.6831 18.2804C82.9625 18.757 83.3957 18.9961 83.9809 18.9961C84.5538 18.9961 84.9838 18.7539 85.2694 18.2711C85.5551 17.7883 85.6995 17.04 85.6995 16.0248C85.6995 14.9862 85.5598 14.2286 85.2788 13.752C84.9978 13.2754 84.5662 13.0363 83.9809 13.0363C83.4081 13.0379 82.9796 13.2785 82.6924 13.7613Z" fill="#1C3666"/>
<path d="M97.8133 11.7137C98.279 12.2152 98.5119 12.9184 98.5119 13.825V20.7675H95.6849V14.3078C95.6849 13.8312 95.6104 13.5006 95.4613 13.3143C95.3123 13.1295 95.0888 13.0364 94.7907 13.0364C94.2178 13.0364 93.6698 13.4478 93.1451 14.2706V20.766H90.3181V11.2651H92.788L92.9852 12.3921C93.3904 11.9155 93.8297 11.5569 94.3001 11.3178C94.7721 11.0788 95.2999 10.9592 95.8836 10.9592C96.7048 10.9608 97.3491 11.2123 97.8133 11.7137Z" fill="#1C3666"/>
<path d="M106.422 14.0749L110 20.7675H106.797L104.667 16.0434L102.573 20.7675H99.459L102.93 14.182L99.7291 8.36658H102.915L104.705 12.3393L106.583 8.36658H109.697L106.422 14.0749Z" fill="#1C3666"/>
<defs>
<linearGradient id="paint0_linear_13_20729" x1="0" y1="14.1399" x2="25.5913" y2="14.1399" gradientUnits="userSpaceOnUse">
<stop stop-color="#27A8E0"/>
<stop offset="1" stop-color="#204496"/>
</linearGradient>
</defs>
</svg>
