<svg width="21" height="23" viewBox="0 0 21 23" fill="none" xmlns="http://www.w3.org/2000/svg">
<ellipse cx="10.5" cy="5.01493" rx="5.17165" ry="5.01493" fill="#7E8387"/>
<path fill-rule="evenodd" clip-rule="evenodd" d="M4.57558 17.6922C3.88929 18.633 3.49094 19.7098 3.29318 20.6788C3.12009 21.5268 2.43313 22.2433 1.56768 22.2537C0.702216 22.2641 -0.0148694 21.5676 0.108061 20.7109C0.325487 19.1955 0.896176 17.4177 2.04337 15.845C3.67687 13.6057 6.39256 11.9104 10.5 11.9104C14.6074 11.9104 17.3231 13.6057 18.9566 15.845C20.1038 17.4177 20.6745 19.1955 20.8919 20.7109C21.0149 21.5676 20.2978 22.2641 19.4323 22.2537C18.5669 22.2433 17.8799 21.5268 17.7068 20.6788C17.5091 19.7098 17.1107 18.633 16.4244 17.6922C15.3905 16.2748 13.6225 15.0447 10.5 15.0447C7.37751 15.0447 5.60952 16.2748 4.57558 17.6922Z" fill="#7E8387"/>
</svg>
