<svg width="80" height="80" viewBox="0 0 80 80" fill="none" xmlns="http://www.w3.org/2000/svg">
<g opacity="0.32">
<g clip-path="url(#clip0_209_7452)">
<g clip-path="url(#clip1_209_7452)" filter="url(#filter0_b_209_7452)">
<rect width="449.045" height="235" transform="translate(-225 -86.4773)" fill="url(#paint0_linear_209_7452)"/>
<path d="M33.8354 62.8707C33.5015 62.8726 33.1805 62.7421 32.943 62.508C32.7055 62.2739 32.5711 61.9553 32.5692 61.6223C32.5673 61.2893 32.6982 60.9693 32.933 60.7325C33.1678 60.4957 33.4874 60.3617 33.8213 60.3598C35.2672 60.3463 36.7097 60.2202 38.1358 59.9827C38.464 59.9291 38.8001 60.0072 39.0708 60.1999C39.3415 60.3925 39.5247 60.6841 39.5805 61.011C39.6363 61.3378 39.5601 61.6734 39.3687 61.9445C39.1772 62.2156 38.8859 62.4002 38.5584 62.4579C37.0022 62.7177 35.4279 62.8555 33.85 62.8702L33.8354 62.8707ZM29.3154 62.6136C29.2634 62.6136 29.2114 62.6105 29.1598 62.6041C27.6077 62.4131 26.0689 62.127 24.5521 61.7473C24.39 61.7088 24.2372 61.6386 24.1025 61.5408C23.9678 61.4429 23.854 61.3194 23.7675 61.1773C23.6811 61.0353 23.6238 60.8775 23.5989 60.7132C23.5741 60.549 23.5822 60.3814 23.6228 60.2202C23.6634 60.0591 23.7357 59.9076 23.8355 59.7745C23.9352 59.6414 24.0605 59.5294 24.204 59.4449C24.3475 59.3605 24.5064 59.3053 24.6715 59.2825C24.8365 59.2597 25.0045 59.2698 25.1656 59.3123C26.5818 59.6668 28.0184 59.9339 29.4675 60.1122C29.7853 60.1515 30.0761 60.31 30.2808 60.5555C30.4856 60.801 30.5888 61.115 30.5696 61.4336C30.5503 61.7523 30.41 62.0517 30.1772 62.2709C29.9444 62.4901 29.6366 62.6126 29.3164 62.6136H29.3154ZM42.7198 61.318C42.4245 61.3182 42.1384 61.2149 41.9117 61.0262C41.685 60.8375 41.5321 60.5753 41.4796 60.2855C41.4272 59.9957 41.4786 59.6967 41.6248 59.4409C41.771 59.1851 42.0028 58.9886 42.2796 58.8859C43.6116 58.3935 44.8858 57.758 46.0799 56.9907C46.3604 56.8096 46.7016 56.7471 47.0283 56.8168C47.3551 56.8865 47.6407 57.0828 47.8223 57.3625C48.0039 57.6422 48.0667 57.9824 47.9967 58.3082C47.9268 58.634 47.7299 58.9188 47.4494 59.0998C46.1015 59.9663 44.6631 60.684 43.1595 61.2401C43.0188 61.292 42.8699 61.3184 42.7198 61.318ZM20.5444 60.3995C20.3825 60.3994 20.2223 60.368 20.0724 60.3071C18.2516 59.5724 16.7678 58.7614 15.7811 57.9619C15.6503 57.8587 15.5414 57.7307 15.4607 57.5853C15.38 57.4398 15.329 57.2798 15.3108 57.1146C15.2926 56.9493 15.3075 56.7821 15.3546 56.6227C15.4017 56.4632 15.4801 56.3147 15.5853 56.1856C15.6904 56.0566 15.8202 55.9497 15.9671 55.8711C16.1141 55.7925 16.2752 55.7438 16.4411 55.7278C16.6071 55.7118 16.7746 55.7288 16.9339 55.7778C17.0932 55.8268 17.2412 55.9069 17.3692 56.0134C18.1529 56.6482 19.4484 57.3467 21.0173 57.98C21.2884 58.0892 21.513 58.289 21.6524 58.5452C21.7919 58.8014 21.8375 59.0981 21.7816 59.3842C21.7257 59.6703 21.5716 59.9281 21.3459 60.1134C21.1201 60.2986 20.8368 60.3998 20.5444 60.3995ZM50.2528 56.4322C50.0057 56.4323 49.7639 56.3599 49.5577 56.224C49.3516 56.088 49.1901 55.8946 49.0934 55.6678C48.9967 55.441 48.9692 55.1908 49.0141 54.9485C49.0591 54.7061 49.1746 54.4823 49.3462 54.305C50.3308 53.2815 51.2037 52.1567 51.9502 50.9494C52.1262 50.6664 52.4078 50.4647 52.733 50.3886C53.0581 50.3126 53.4003 50.3684 53.6841 50.5439C53.968 50.7194 54.1703 51.0001 54.2466 51.3243C54.3229 51.6485 54.2669 51.9896 54.0909 52.2727C53.2508 53.6296 52.269 54.8941 51.162 56.0451C51.0448 56.1671 50.9041 56.2642 50.7483 56.3306C50.5925 56.3969 50.4248 56.4312 50.2554 56.4312L50.2528 56.4322Z" fill="#0084F8"/>
<path d="M86.9383 -35.1419C108.419 -14.4079 129.986 -11.5274 160.576 -19.5989C147.305 14.4465 152.082 44.4087 171.456 71.0695C147.364 73.0571 126.04 86.4704 104.511 102.513C89.8073 94.0488 63.2846 84.6234 43.9886 86.2424C49.5578 62.1593 42.189 30.5615 34.4263 1.40533C55.0096 1.96024 81.6613 -12.1099 86.9383 -35.1419Z" fill="#FFE595"/>
<path d="M86.9383 -35.1419C108.419 -14.4079 129.986 -11.5274 160.576 -19.5989C147.305 14.4465 152.082 44.4087 171.456 71.0695C147.364 73.0571 126.04 86.4704 104.511 102.513C89.8073 94.0488 63.2846 84.6234 43.9886 86.2424C49.5578 62.1593 42.189 30.5615 34.4263 1.40533C55.0096 1.96024 81.6613 -12.1099 86.9383 -35.1419Z" fill="#FFE595"/>
<path opacity="0.1" d="M51.1981 76.0886C59.9606 76.0886 67.064 74.5158 67.064 72.5758C67.064 70.6358 59.9606 69.063 51.1981 69.063C42.4356 69.063 35.3322 70.6358 35.3322 72.5758C35.3322 74.5158 42.4356 76.0886 51.1981 76.0886Z" fill="#242729"/>
<path d="M40.9336 69.3423L40.5775 71.0694L43.864 71.0041L44.1556 68.5905L40.9336 69.3423Z" fill="#FFAC70"/>
<path d="M54.9543 69.2935L55.4237 70.5194H58.3703L58.8024 69.8314L58.1063 68.1626L54.9543 69.2935Z" fill="#FFAC70"/>
<path d="M39.8653 73.3289C41.322 74.5236 45.5639 75.7178 48.8343 73.9099C48.8343 73.9099 50.097 70.714 47.3122 69.8423C44.5274 68.9705 42.2286 70.2299 41.7108 70.6493C41.193 71.0686 40.7719 69.8423 40.3186 69.8423C39.8653 69.8423 39.412 71.6501 39.8653 73.3289Z" fill="#0084F8"/>
<path d="M49.0566 73.1895C45.6416 74.9225 41.2611 73.7997 39.6549 72.6321C39.6501 72.6288 39.6443 72.6271 39.6384 72.6272C39.6325 72.6274 39.6269 72.6294 39.6222 72.6329C39.6176 72.6365 39.6142 72.6415 39.6125 72.6471C39.6109 72.6527 39.6111 72.6587 39.6131 72.6642L39.8649 73.3291C41.3009 74.7026 45.5353 75.959 48.8339 73.9101L49.0943 73.2232C49.0962 73.2181 49.0966 73.2125 49.0953 73.2072C49.0939 73.2019 49.0911 73.1971 49.087 73.1935C49.0829 73.1899 49.0778 73.1875 49.0724 73.1868C49.067 73.1861 49.0614 73.1871 49.0566 73.1895Z" fill="white"/>
<path d="M54.7592 73.1695C58.5313 73.1404 62.0565 73.6059 64.1276 73.1695C64.1276 73.1695 64.6887 72.5884 64.6887 71.3852C64.6887 70.182 62.6599 67.5063 59.0118 69.1555C57.5652 71.456 55.1048 70.1413 54.8242 69.6718C54.5437 69.2022 53.1832 72.1827 54.7592 73.1695Z" fill="#0084F8"/>
<path d="M64.6524 72.3613C62.2508 73.1306 58.3599 72.2874 54.0499 72.3367C54.0457 72.3367 54.0415 72.3377 54.0378 72.3395C54.034 72.3414 54.0307 72.3441 54.0281 72.3475C54.0255 72.3508 54.0237 72.3547 54.0229 72.3588C54.022 72.363 54.0222 72.3672 54.0233 72.3713C54.1043 72.6696 54.2957 72.9463 54.7601 73.1682C58.4486 73.2767 62.006 73.6895 64.1285 73.1682L64.6826 72.4034C64.6858 72.3988 64.6874 72.3932 64.6874 72.3876C64.6873 72.3819 64.6855 72.3765 64.6822 72.3719C64.6789 72.3673 64.6743 72.3638 64.669 72.3619C64.6636 72.36 64.6578 72.3598 64.6524 72.3613Z" fill="white"/>
<path d="M41.9641 49.5937C41.7122 51.1831 41.1925 59.5766 41.128 60.9651C41.0635 62.3537 40.0954 68.523 39.9982 69.1045C40.8086 70.1631 43.4807 69.8909 45.5422 68.9036C47.4492 63.7768 47.7171 58.4813 49.1742 54.8656C50.9966 58.5763 52.3615 64.0556 53.799 69.2782C55.1262 69.3415 58.0566 69.6659 59.6598 67.9224C58.5346 61.0289 55.9578 55.3176 54.5223 48.1063C51.1331 46.1794 45.175 47.0808 41.9641 49.5937Z" fill="#1C3666"/>
<path d="M147.633 71.8596C147.627 71.8285 147.62 71.7969 147.611 71.7657C147.602 71.7346 147.597 71.703 147.588 71.6718C147.58 71.6407 147.575 71.609 147.566 71.5779C147.557 71.5468 147.552 71.5151 147.543 71.484C147.535 71.4529 147.529 71.4212 147.521 71.3901C147.512 71.359 147.507 71.3278 147.498 71.2962C147.489 71.2645 147.485 71.2339 147.476 71.2023C147.467 71.1706 147.462 71.14 147.453 71.1084C147.445 71.0767 147.44 71.0461 147.431 71.015C147.422 70.9838 147.417 70.9522 147.408 70.9211C147.4 70.8899 147.395 70.8583 147.386 70.8272C147.377 70.796 147.372 70.7644 147.363 70.7332C147.354 70.7021 147.35 70.6705 147.341 70.6393C147.332 70.6082 147.327 70.5766 147.318 70.5454C147.309 70.5143 147.305 70.4826 147.296 70.4515C147.287 70.4204 147.282 70.3887 147.273 70.3576C147.265 70.3265 147.26 70.2948 147.251 70.2637C147.242 70.2326 147.237 70.2014 147.229 70.1698C147.22 70.1382 147.215 70.1075 147.206 70.0759C147.197 70.0442 147.192 70.0136 147.183 69.9825C147.174 69.9513 147.17 69.9197 147.161 69.8886C147.153 69.8574 147.148 69.8258 147.139 69.7947C147.129 69.7635 147.125 69.7319 147.116 69.7008C147.11 69.6691 147.103 69.6377 147.094 69.6069C147.088 69.5757 147.08 69.5441 147.071 69.5129C147.062 69.4818 147.057 69.4502 147.049 69.419C147.04 69.3879 147.035 69.3563 147.026 69.3251C147.017 69.294 147.013 69.2629 147.004 69.2312C146.995 69.1996 146.99 69.1689 146.981 69.1378C146.972 69.1067 146.968 69.075 146.959 69.0439C146.953 69.0122 146.946 68.9809 146.937 68.95C146.93 68.9184 146.923 68.8872 146.914 68.8561C146.905 68.825 146.9 68.7933 146.892 68.7622C146.883 68.731 146.878 68.6994 146.869 68.6683C146.863 68.6366 146.856 68.6053 146.846 68.5744C146.841 68.5429 146.833 68.5117 146.824 68.481C146.809 68.4184 146.794 68.3558 146.779 68.2931C146.764 68.2306 146.749 68.168 146.735 68.1053C146.729 68.0736 146.721 68.0423 146.712 68.0114C146.706 67.9798 146.699 67.9484 146.69 67.9175C146.684 67.886 146.676 67.8548 146.667 67.8241C146.662 67.7925 146.653 67.7613 146.645 67.7302C146.639 67.6982 146.631 67.6665 146.622 67.6353C146.616 67.6035 146.609 67.5719 146.6 67.5409C146.577 67.4465 146.577 67.4465 146.554 67.3521C146.548 67.3202 146.541 67.2887 146.532 67.2576C146.526 67.2258 146.518 67.1943 146.509 67.1632C145.963 64.0703 127.851 61.5865 105.587 61.5865C83.3234 61.5865 65.2137 64.0703 64.6647 67.1632C64.6554 67.1943 64.6478 67.2258 64.642 67.2576C64.633 67.2887 64.6256 67.3202 64.6198 67.3521C64.6104 67.383 64.6028 67.4146 64.5972 67.4465C64.588 67.4775 64.5804 67.509 64.5745 67.5409C64.5654 67.5719 64.5578 67.6035 64.5519 67.6353C64.5426 67.6665 64.5351 67.6982 64.5292 67.7302C64.5199 67.7611 64.5123 67.7924 64.5065 67.8241C64.4975 67.8548 64.4901 67.886 64.4844 67.9175C64.4752 67.9484 64.4676 67.9798 64.4617 68.0114C64.4526 68.0423 64.4452 68.0737 64.4395 68.1053C64.4173 68.1993 64.3948 68.2932 64.372 68.3871C64.3629 68.4179 64.3555 68.4493 64.3499 68.481C64.3407 68.5117 64.3331 68.5429 64.3272 68.5744C64.3181 68.6055 64.3106 68.6371 64.3045 68.6683C64.2985 68.6994 64.2879 68.731 64.2824 68.7622C64.2768 68.7933 64.2658 68.825 64.2597 68.8561C64.2537 68.8872 64.2431 68.9184 64.2376 68.95C64.232 68.9816 64.2209 69.0123 64.2149 69.0439C64.2058 69.0748 64.1984 69.1061 64.1927 69.1378C64.1837 69.1689 64.1761 69.2001 64.1701 69.2312C64.161 69.2629 64.1534 69.294 64.1474 69.3251C64.1414 69.3563 64.1313 69.3879 64.1252 69.419C64.1192 69.4502 64.1086 69.4818 64.1026 69.5129C64.0965 69.5441 64.0859 69.5757 64.0804 69.6069C64.0749 69.638 64.0638 69.6691 64.0577 69.7008C64.0517 69.7324 64.0411 69.763 64.0351 69.7947C64.029 69.8263 64.019 69.8569 64.0129 69.8886C64.0069 69.9202 63.9963 69.9508 63.9902 69.9825C63.9842 70.0141 63.9741 70.0447 63.9681 70.0759C63.962 70.107 63.9515 70.1387 63.9454 70.1698C63.9394 70.2009 63.9288 70.2326 63.9228 70.2637C63.9167 70.2948 63.9066 70.3265 63.9006 70.3576C63.8946 70.3887 63.884 70.4204 63.8779 70.4515C63.8719 70.4826 63.8618 70.5143 63.8553 70.5454C63.8487 70.5766 63.8391 70.6077 63.8331 70.6393C63.8271 70.671 63.8165 70.7016 63.8104 70.7332C63.8044 70.7649 63.7943 70.7955 63.7883 70.8272C63.7822 70.8588 63.7717 70.8894 63.7656 70.9211C63.7596 70.9527 63.7495 70.9833 63.7429 71.015C63.7364 71.0466 63.7268 71.0772 63.7208 71.1089C63.7147 71.1405 63.7042 71.1711 63.6981 71.2023C63.6921 71.2334 63.682 71.265 63.6754 71.2962C63.6689 71.3273 63.6593 71.359 63.6533 71.3901C63.6472 71.4212 63.6367 71.4529 63.6306 71.484C63.6246 71.5151 63.6145 71.5468 63.608 71.5779C63.6014 71.609 63.5918 71.6407 63.5858 71.6718C63.5798 71.703 63.5692 71.7346 63.5631 71.7657C63.5571 71.7969 63.547 71.828 63.5405 71.8596C63.51 71.9668 63.4942 72.0776 63.4936 72.1891C63.4936 76.0413 82.3398 79.1644 105.587 79.1644C128.834 79.1644 147.68 76.0413 147.68 72.1891C147.68 72.0776 147.664 71.9668 147.633 71.8596Z" fill="#1C3666"/>
<path d="M105.587 73.0273C128.195 73.0273 146.522 70.4662 146.522 67.3069C146.522 64.1476 128.195 61.5865 105.587 61.5865C82.9793 61.5865 64.6521 64.1476 64.6521 67.3069C64.6521 70.4662 82.9793 73.0273 105.587 73.0273Z" fill="#0084F8"/>
<path d="M109.848 -2.27795L69.3953 4.59842V66.7755L109.848 70.6494L139.626 67.8407V0.627669L109.848 -2.27795Z" fill="#B9BEC2"/>
<path d="M109.848 14.8156C96.3683 16.6445 82.8793 18.4012 69.3953 20.199V13.526C82.8793 11.3947 96.3713 9.31469 109.848 7.13974V14.8156Z" fill="#A8ADB3"/>
<path d="M109.848 5.40995C96.3718 7.64064 82.8793 9.7704 69.3953 11.9539V4.59843C82.8798 2.30747 96.3748 0.0787868 109.848 -2.27795V5.40995Z" fill="#A8ADB3"/>
<path d="M109.848 24.4431C96.3658 25.6684 82.8793 26.8451 69.3953 28.0493V21.6801C82.8793 19.9792 96.3678 18.3155 109.848 16.587V24.4431Z" fill="#A8ADB3"/>
<path d="M109.848 34.0648C96.3644 34.5901 82.8801 35.0993 69.3953 35.5924V29.4497C82.8794 28.3687 96.3637 27.2895 109.848 26.2122V34.0648Z" fill="#A8ADB3"/>
<path d="M109.848 43.6858C96.3637 43.5134 82.8794 43.3293 69.3953 43.1334V36.9697C82.8798 36.5911 96.3641 36.2121 109.848 35.8328V43.6858Z" fill="#A8ADB3"/>
<path d="M75.8149 26.5737L71.4924 26.982C71.2168 27.0081 70.9937 26.8479 70.9937 26.6239V22.8073C70.9937 22.5773 71.2168 22.3634 71.4924 22.3302L75.8164 21.8069C76.0924 21.7738 76.316 21.9385 76.316 22.175V26.1102C76.3145 26.3397 76.0909 26.5476 75.8149 26.5737Z" fill="#DDE0E4"/>
<path d="M82.1536 25.9772L77.8174 26.385C77.5409 26.4111 77.3173 26.2439 77.3173 26.0114V22.0542C77.3173 21.8166 77.5414 21.5967 77.8179 21.5636C79.2642 21.3888 80.7104 21.2145 82.1566 21.0408C82.4337 21.0071 82.6603 21.1784 82.6603 21.4224C82.6603 22.7803 82.659 24.1382 82.6563 25.4961C82.6553 25.7362 82.4301 25.9511 82.1536 25.9772Z" fill="#DDE0E4"/>
<path d="M109.848 53.312C96.3634 52.542 82.8791 51.7611 69.3953 50.9694V44.5415C82.8794 44.8485 96.3637 45.153 109.848 45.4549V53.312Z" fill="#A8ADB3"/>
<path d="M75.8174 18.4817C74.3759 18.6783 72.9344 18.8751 71.4929 19.0723C71.2168 19.11 70.9937 18.9488 70.9937 18.7107V14.625C70.9937 14.3774 71.2173 14.1414 71.4929 14.0982L75.819 13.4288C76.095 13.3861 76.3191 13.5563 76.3191 13.8079V17.9735C76.3176 18.2146 76.094 18.4416 75.8174 18.4817Z" fill="#DDE0E4"/>
<path d="M82.1617 17.6155C80.7151 17.8124 79.2683 18.0092 77.8214 18.2061C77.5449 18.2437 77.3213 18.077 77.3213 17.8325V13.6518C77.3213 13.4007 77.5459 13.1591 77.8224 13.1165L82.1647 12.4466C82.4417 12.4039 82.6684 12.5781 82.6684 12.8342C82.6684 14.2547 82.667 15.6752 82.6643 17.0958C82.6638 17.3453 82.4402 17.5779 82.1617 17.6155Z" fill="#DDE0E4"/>
<path d="M75.8195 9.98307C74.3756 10.2174 72.9332 10.4526 71.4924 10.6886C71.2168 10.7338 70.9937 10.5611 70.9937 10.302V5.81798C70.9987 5.67918 71.0508 5.54619 71.1415 5.44074C71.2322 5.33529 71.356 5.26363 71.4929 5.23746C72.9367 4.99307 74.3794 4.74917 75.821 4.50578C76.0975 4.45908 76.3216 4.64439 76.3211 4.91858C76.3211 6.42144 76.3211 7.92463 76.3211 9.42816C76.3196 9.6903 76.0935 9.93787 75.8195 9.98307Z" fill="#DDE0E4"/>
<path d="M82.1692 8.95144L77.8259 9.657C77.5494 9.7017 77.3253 9.52693 77.3253 9.26429V4.7497C77.3307 4.61019 77.3835 4.47665 77.475 4.37098C77.5665 4.26532 77.6913 4.1938 77.829 4.16817L82.1742 3.437C82.4517 3.3903 82.6779 3.5756 82.6779 3.85029C82.6779 5.36386 82.6767 6.87744 82.6744 8.39101C82.6718 8.65616 82.4467 8.90624 82.1692 8.95144Z" fill="#DDE0E4"/>
<path d="M109.848 7.13955C96.3713 9.31449 82.8793 11.3945 69.3953 13.5258V11.9529C82.8793 9.76947 96.3718 7.63971 109.848 5.40903V7.13955Z" fill="#7E8387"/>
<path d="M75.8119 34.4633L71.4913 34.6516C71.2158 34.6637 70.9927 34.4964 70.9927 34.278V30.5884C70.9927 30.3684 71.2163 30.1736 71.4913 30.153L75.8134 29.8326C76.0889 29.812 76.3126 29.9807 76.3126 30.2082V34.0319C76.311 34.2584 76.0874 34.4507 75.8119 34.4633Z" fill="#DDE0E4"/>
<path d="M82.1466 34.189L77.8149 34.3768C77.5384 34.3889 77.3148 34.2141 77.3153 33.9861V30.1374C77.3153 29.9079 77.5394 29.7055 77.8154 29.6855L82.1501 29.3656C82.4271 29.345 82.6513 29.5207 82.6513 29.7578C82.6513 31.0855 82.6499 32.4133 82.6472 33.7411C82.6477 33.9761 82.4231 34.177 82.1466 34.189Z" fill="#DDE0E4"/>
<path d="M75.8089 42.321L71.4908 42.2854C71.2158 42.2829 70.9927 42.1016 70.9927 41.8806V38.1801C70.9927 37.9616 71.2158 37.7783 71.4913 37.7733L75.8104 37.6789C76.0864 37.6729 76.31 37.8511 76.31 38.0781V41.9112C76.3085 42.1397 76.0849 42.3235 75.8089 42.321Z" fill="#DDE0E4"/>
<path d="M82.1375 42.3741L77.8089 42.3379C77.5329 42.3379 77.3093 42.1466 77.3093 41.9166C77.3093 40.6307 77.3093 39.3448 77.3093 38.0588C77.3093 37.8303 77.5329 37.641 77.8089 37.635L82.1405 37.5406C82.4171 37.5346 82.6412 37.7209 82.6412 37.9569L82.6372 41.9477C82.6412 42.1843 82.4145 42.3766 82.1375 42.3741Z" fill="#DDE0E4"/>
<path d="M75.8069 50.4016L71.4908 50.1696C71.2158 50.1545 70.9927 49.9536 70.9927 49.7216V45.8694C70.9927 45.644 71.2158 45.4677 71.4913 45.4757L75.8084 45.5973C76.0839 45.6053 76.3075 45.7981 76.3075 46.0321V49.9963C76.306 50.2349 76.0824 50.4166 75.8069 50.4016Z" fill="#DDE0E4"/>
<path d="M82.1305 50.7412L77.8054 50.5087C77.5294 50.4941 77.3063 50.2872 77.3063 50.0482C77.3063 48.7194 77.3063 47.3908 77.3063 46.0624C77.3063 45.8284 77.5299 45.6456 77.8054 45.6536L82.133 45.7756C82.4095 45.7837 82.6332 45.985 82.6332 46.2276C82.6332 47.5932 82.6318 48.959 82.6291 50.3249C82.6312 50.571 82.407 50.7563 82.1305 50.7412Z" fill="#DDE0E4"/>
<path d="M109.848 70.6496L69.3953 66.7758V52.4294C82.8794 53.3032 96.3636 54.1736 109.848 55.0407V70.6496Z" fill="#A8ADB3"/>
<path d="M82.1114 59.0668L71.4898 58.1719C71.2143 58.1483 70.9917 57.9258 70.9917 57.6753V54.6391C70.9917 54.3965 71.2148 54.2168 71.4898 54.2374L82.1175 54.9976C82.3935 55.0172 82.6171 55.2377 82.6171 55.4903L82.6141 58.6404C82.6116 58.8986 82.3875 59.0899 82.1114 59.0668Z" fill="#DDE0E4"/>
<path d="M109.848 16.5869C96.3678 18.3169 82.8793 19.9791 69.3953 21.68V20.2006C82.8793 18.4028 96.3683 16.6462 109.848 14.8172V16.5869Z" fill="#7E8387"/>
<path d="M109.848 26.2125C96.3657 27.3133 82.8814 28.3925 69.3953 29.4501V28.0495C82.8793 26.8443 96.3657 25.6687 109.848 24.4434V26.2125Z" fill="#7E8387"/>
<path d="M109.848 35.8332C96.3641 36.2276 82.8798 36.6065 69.3953 36.9701V35.5926C82.8798 35.0834 96.3641 34.5742 109.848 34.065V35.8332Z" fill="#7E8387"/>
<path d="M109.848 45.455C96.3637 45.1628 82.8794 44.8583 69.3953 44.5416V43.1324C82.8798 43.3193 96.3641 43.5034 109.848 43.6848V45.455Z" fill="#7E8387"/>
<path d="M109.848 55.0404C96.3632 54.18 82.8791 53.3096 69.3953 52.4291V50.9677C82.8794 51.7522 96.3636 52.5331 109.848 53.3104V55.0404Z" fill="#7E8387"/>
<path d="M97.6292 48.6002L78.2663 47.5908V23.5077L97.6292 21.7646V48.6002Z" fill="url(#paint1_linear_209_7452)"/>
<path d="M75.326 51.4206L65.4614 60.1124C65.4261 60.143 65.3841 60.1651 65.3387 60.1768C65.2934 60.1885 65.2459 60.1895 65.2001 60.1797C65.1543 60.17 65.1113 60.1498 65.0747 60.1206C65.0381 60.0915 65.0087 60.0543 64.989 60.0119L63.6981 57.2143C63.6663 57.1446 63.6624 57.0656 63.687 56.9931C63.7116 56.9206 63.7629 56.8602 63.8305 56.8241L74.9855 50.931C75.3008 50.7648 75.5929 51.1851 75.326 51.4206Z" fill="#FFE595"/>
<path d="M74.7242 23.9803L63.7853 16.7378C63.7275 16.6993 63.6848 16.6422 63.6644 16.5759C63.6439 16.5097 63.647 16.4385 63.673 16.3742L65.101 12.9037C65.1206 12.8568 65.1519 12.8156 65.1918 12.784C65.2318 12.7524 65.2791 12.7314 65.3294 12.7229C65.3796 12.7145 65.4312 12.7188 65.4794 12.7356C65.5275 12.7523 65.5706 12.781 65.6046 12.8188L75.1161 23.5319C75.3493 23.7945 75.0179 24.1741 74.7242 23.9803Z" fill="#FFE595"/>
<path d="M70.014 34.6518L60.3227 32.627C60.279 32.6181 60.2338 32.619 60.1904 32.6295C60.147 32.6401 60.1066 32.6602 60.0719 32.6882C60.0372 32.7162 60.0092 32.7516 59.9899 32.7917C59.9705 32.8319 59.9603 32.8757 59.9601 32.9203V36.4275C59.9603 36.4706 59.9699 36.5132 59.9881 36.5524C60.0062 36.5915 60.0327 36.6263 60.0655 36.6544C60.0984 36.6825 60.1369 36.7033 60.1785 36.7152C60.2201 36.7272 60.2638 36.7301 60.3066 36.7238L69.9988 35.2423C70.3293 35.1916 70.3419 34.7206 70.014 34.6518Z" fill="#FFE595"/>
<path d="M74.1675 51.0694L64.3029 59.7611C64.2676 59.7918 64.2256 59.8138 64.1802 59.8255C64.1349 59.8372 64.0874 59.8382 64.0416 59.8285C63.9957 59.8187 63.9528 59.7985 63.9162 59.7694C63.8796 59.7403 63.8502 59.7031 63.8305 59.6607L62.5396 56.863C62.5078 56.7934 62.5039 56.7143 62.5285 56.6418C62.5531 56.5694 62.6044 56.509 62.672 56.4728L73.827 50.5797C74.1423 50.4135 74.4344 50.8338 74.1675 51.0694Z" fill="white"/>
<path d="M73.5658 23.6285L62.6269 16.386C62.5691 16.3476 62.5263 16.2904 62.5059 16.2242C62.4854 16.1579 62.4885 16.0867 62.5146 16.0225L63.9425 12.5519C63.9622 12.505 63.9934 12.4639 64.0334 12.4323C64.0733 12.4007 64.1206 12.3796 64.1709 12.3712C64.2211 12.3627 64.2727 12.367 64.3209 12.3838C64.369 12.4006 64.4121 12.4292 64.4462 12.467L73.9576 23.18C74.1908 23.4427 73.8594 23.8223 73.5658 23.6285Z" fill="white"/>
<path d="M68.8555 34.3005L59.1642 32.2757C59.1205 32.2668 59.0753 32.2677 59.0319 32.2783C58.9886 32.2889 58.9481 32.3089 58.9134 32.337C58.8787 32.365 58.8507 32.4004 58.8314 32.4405C58.812 32.4806 58.8019 32.5245 58.8016 32.569V36.0762C58.8018 36.1194 58.8114 36.162 58.8296 36.2011C58.8478 36.2403 58.8742 36.2751 58.9071 36.3032C58.9399 36.3313 58.9784 36.352 59.02 36.364C59.0616 36.3759 59.1053 36.3788 59.1481 36.3725L68.8404 34.8911C69.1708 34.8404 69.1834 34.3693 68.8555 34.3005Z" fill="white"/>
<path d="M66.0548 80.2877L66.7756 80.5514L66.0563 80.8165C65.796 80.9122 65.5596 81.0631 65.3633 81.2586C65.1671 81.4542 65.0157 81.6899 64.9195 81.9494L64.6541 82.667L64.3887 81.9494C64.2922 81.6899 64.1404 81.4543 63.9438 81.2589C63.7472 81.0635 63.5104 80.9129 63.2498 80.8175L62.5306 80.5524L63.2498 80.2877C63.5102 80.192 63.7466 80.0411 63.9429 79.8456C64.1391 79.65 64.2905 79.4143 64.3866 79.1548L64.6521 78.4372L64.9175 79.1548C65.0137 79.4144 65.1652 79.6501 65.3615 79.8456C65.5578 80.0412 65.7944 80.192 66.0548 80.2877Z" fill="white"/>
<path d="M50.323 6.36282C50.9222 6.36282 51.4079 5.87853 51.4079 5.28113C51.4079 4.68372 50.9222 4.19943 50.323 4.19943C49.7238 4.19943 49.2381 4.68372 49.2381 5.28113C49.2381 5.87853 49.7238 6.36282 50.323 6.36282Z" fill="white"/>
<path d="M49.5571 28.1541C50.5916 28.3801 55.9538 31.021 56.5788 31.2395C57.7207 29.6827 60.5448 27.4545 61.1276 26.9056L64.126 28.1541C64.126 28.1541 60.4169 35.042 58.927 35.6868C57.4371 36.3316 51.4171 34.6473 48.9229 33.4581C45.4017 31.7803 47.2835 27.6574 49.5571 28.1541Z" fill="#0084F8"/>
<path d="M62.041 25.7418C61.5096 26.7602 63.5389 28.6439 65.6997 26.7426C67.3512 25.2898 67.1326 24.0308 66.4768 23.7566C65.9384 23.5316 63.4649 23.0139 62.041 25.7418Z" fill="#FFAC70"/>
<path d="M70.4796 34.7688H88.5934C89.5347 33.992 89.5347 31.3681 88.5934 30.5304H70.4796V34.7688Z" fill="url(#paint2_linear_209_7452)"/>
<path d="M64.2842 25.5497C60.6043 25.5497 57.621 28.8682 57.621 32.9609C57.621 37.0537 60.6043 40.3721 64.2842 40.3721C67.9641 40.3721 70.9479 37.0542 70.9479 32.9609C70.9479 28.8676 67.9646 25.5497 64.2842 25.5497ZM64.5809 37.0145C62.9354 37.0145 61.6011 35.1997 61.6011 32.9609C61.6011 30.7222 62.9354 28.9073 64.5809 28.9073C66.2264 28.9073 67.5601 30.7222 67.5601 32.9609C67.5601 35.1997 66.2264 37.0145 64.5809 37.0145Z" fill="url(#paint3_linear_209_7452)"/>
<path d="M77.9435 31.2998H71.6617C71.635 31.2998 71.6093 31.2892 71.5904 31.2704C71.5716 31.2515 71.5609 31.2259 71.5609 31.1992C71.5609 31.1725 71.5716 31.147 71.5904 31.1281C71.6093 31.1092 71.635 31.0986 71.6617 31.0986H77.9435C77.9703 31.0986 77.9959 31.1092 78.0148 31.1281C78.0337 31.147 78.0443 31.1725 78.0443 31.1992C78.0443 31.2259 78.0337 31.2515 78.0148 31.2704C77.9959 31.2892 77.9703 31.2998 77.9435 31.2998Z" fill="white"/>
<path d="M69.5566 31.4688C69.531 31.4689 69.5063 31.4592 69.4876 31.4418C69.4689 31.4243 69.4575 31.4004 69.4559 31.3749C69.3551 29.7589 67.9116 27.9957 65.9462 27.0878C64.2906 26.3229 62.7126 26.3515 61.6176 27.1656C61.6071 27.1743 61.5949 27.1809 61.5818 27.1848C61.5687 27.1887 61.5549 27.1899 61.5413 27.1883C61.5277 27.1867 61.5146 27.1824 61.5027 27.1755C61.4908 27.1687 61.4805 27.1596 61.4723 27.1486C61.4641 27.1377 61.4582 27.1252 61.455 27.1119C61.4519 27.0987 61.4514 27.0849 61.4537 27.0714C61.4561 27.058 61.4611 27.0451 61.4686 27.0337C61.4761 27.0223 61.4858 27.0125 61.4972 27.0049C62.6557 26.1452 64.3057 26.109 66.0303 26.9045C66.9805 27.3441 67.8249 27.982 68.5064 28.7751C69.2045 29.6017 69.6024 30.4956 69.6563 31.3614C69.658 31.3879 69.649 31.4141 69.6313 31.434C69.6137 31.454 69.5888 31.4662 69.5621 31.4678L69.5566 31.4688Z" fill="white"/>
<path d="M63.2844 37.7081C63.2668 37.7084 63.2494 37.704 63.234 37.6955C61.9668 36.9925 61.1302 36.0157 60.7474 34.7989C60.7394 34.7735 60.7418 34.7459 60.7542 34.7223C60.7666 34.6987 60.7878 34.6809 60.8134 34.6729C60.8389 34.6649 60.8665 34.6673 60.8902 34.6797C60.9139 34.692 60.9318 34.7132 60.9398 34.7387C61.3065 35.9048 62.1113 36.8408 63.3323 37.5198C63.3519 37.5306 63.3674 37.5477 63.3762 37.5683C63.385 37.5889 63.3866 37.6119 63.3808 37.6335C63.3751 37.6552 63.3622 37.6743 63.3442 37.6878C63.3263 37.7013 63.3044 37.7085 63.2819 37.7081H63.2844Z" fill="white"/>
<path d="M63.577 24.056C62.8033 24.4402 63.4536 26.0703 64.6004 26.9687C65.3504 27.5552 67.8602 27.4206 68.041 26.7427C68.2219 26.0647 68.2395 24.1278 66.8493 23.7567C65.4592 23.3856 64.6926 23.5036 63.577 24.056Z" fill="#FFAC70"/>
<path d="M61.5756 26.1989C61.4341 25.6968 62.1478 24.937 62.8408 24.8978C63.5339 24.8586 63.4029 26.0101 62.5361 26.0528C61.6693 26.0955 61.5756 26.1989 61.5756 26.1989Z" fill="#FFAC70"/>
<path d="M62.5357 26.1546C62.5089 26.1552 62.4831 26.1453 62.4637 26.1269C62.4443 26.1086 62.4331 26.0833 62.4324 26.0566C62.4317 26.03 62.4417 26.0042 62.4601 25.9849C62.4785 25.9656 62.5039 25.9544 62.5306 25.9537C62.6517 25.9518 62.7701 25.9173 62.8731 25.8538C62.9761 25.7904 63.06 25.7003 63.1159 25.5931C63.2005 25.4274 63.2056 25.2371 63.128 25.1191C63.0716 25.0327 62.9739 24.9905 62.8459 24.9981C62.7533 25.0039 62.6618 25.022 62.5739 25.0518C62.5614 25.056 62.5482 25.0577 62.535 25.0568C62.5218 25.056 62.5089 25.0525 62.497 25.0466C62.4852 25.0408 62.4746 25.0327 62.4659 25.0227C62.4572 25.0128 62.4505 25.0013 62.4463 24.9888C62.442 24.9763 62.4403 24.9631 62.4412 24.9499C62.4421 24.9367 62.4455 24.9239 62.4514 24.9121C62.4573 24.9002 62.4654 24.8897 62.4754 24.881C62.4854 24.8723 62.4969 24.8657 62.5095 24.8615C62.6144 24.8258 62.7237 24.8042 62.8343 24.7972C63.0358 24.7861 63.2 24.861 63.2967 25.0091C63.4141 25.1884 63.4136 25.453 63.2967 25.6845C63.2249 25.8234 63.1168 25.9403 62.9838 26.023C62.8508 26.1056 62.6979 26.1509 62.5412 26.1541L62.5357 26.1546Z" fill="#EB5757"/>
<path d="M40.7497 31.0168C40.7497 31.0168 42.3902 29.9958 44.9589 29.0969C47.5277 28.198 49.5565 28.1543 49.5565 28.1543C53.043 32.5233 55.0179 37.6561 54.5218 48.1055C53.0108 49.7411 43.4479 50.3437 41.4186 49.4182C41.138 47.2874 42.2794 43.1761 42.2391 41.8855C42.2144 41.1106 39.3248 34.2001 40.7497 31.0168Z" fill="#0084F8"/>
<path d="M53.2765 35.0878C53.2551 35.0879 53.2343 35.0811 53.217 35.0686C53.1997 35.056 53.1868 35.0383 53.1803 35.018C52.6027 33.2019 51.7703 31.4763 50.7078 29.8927C50.6943 29.8705 50.6899 29.844 50.6956 29.8187C50.7013 29.7934 50.7165 29.7713 50.7382 29.757C50.7599 29.7426 50.7863 29.7372 50.8118 29.7418C50.8374 29.7464 50.8602 29.7607 50.8755 29.7817C51.9483 31.3807 52.7887 33.123 53.3717 34.9567C53.3758 34.9693 53.3774 34.9825 53.3763 34.9957C53.3752 35.0089 53.3716 35.0217 53.3656 35.0334C53.3595 35.0452 53.3512 35.0556 53.3411 35.0642C53.331 35.0728 53.3194 35.0792 53.3067 35.0833C53.2969 35.0862 53.2868 35.0877 53.2765 35.0878Z" fill="#1C3666"/>
<path d="M49.6222 14.445C50.887 17.1196 52.1477 17.092 52.5365 19.2443C52.9254 21.3967 50.0972 27.3797 45.0891 28.5206C40.0811 29.6616 36.3841 29.1453 34.8297 26.6485C33.2754 24.1517 35.6557 23.8991 35.4185 23.0458C35.1813 22.1926 32.4664 22.2569 32.337 18.5985C32.2076 14.9402 35.0569 7.43907 41.9124 6.70739C48.768 5.97571 48.91 12.9385 49.6222 14.445Z" fill="#1C3666"/>
<path d="M40.5431 29.1986C37.7487 29.1986 35.7758 28.359 34.7438 26.7018C33.6785 24.9908 34.4048 24.2752 34.9347 23.753C35.2147 23.4768 35.3834 23.2965 35.321 23.073C35.2585 22.8495 34.8314 22.6241 34.3363 22.3634C33.1043 21.7136 31.2427 20.7323 31.1515 18.1516C31.081 16.162 32.1528 13.4597 33.8825 11.2682C34.8697 10.0173 36.0135 8.9868 37.2823 8.2049C38.6813 7.33208 40.2604 6.7863 41.901 6.60846C47.6032 5.99932 48.7364 10.647 49.3454 13.1434C49.4758 13.6777 49.5882 14.1392 49.7131 14.4033C50.3145 15.6749 51.1183 16.3709 51.8285 16.9845C52.6138 17.6645 53.2892 18.2516 53.4992 19.4C53.7093 20.5485 52.8404 22.5558 51.347 24.4118C50.321 25.6864 48.1471 27.9271 45.112 28.6196C43.409 29.0063 41.8819 29.1986 40.5431 29.1986ZM42.8716 6.7551C42.5546 6.7549 42.2379 6.77166 41.9227 6.80531C38.9208 7.12571 36.1213 8.75378 34.0411 11.3902C32.3392 13.5471 31.284 16.1971 31.3525 18.1426C31.4401 20.6068 33.2398 21.5574 34.4305 22.1836C35.0107 22.4895 35.4298 22.7104 35.5154 23.0173C35.6121 23.3658 35.3522 23.6199 35.0762 23.8936C34.568 24.3958 33.9349 25.019 34.915 26.5938C36.3913 28.9651 39.9014 29.5968 45.0661 28.4202C48.0424 27.7428 50.18 25.5372 51.1894 24.2833C52.6253 22.498 53.4937 20.5033 53.3003 19.4322C53.1059 18.3535 52.4521 17.788 51.6956 17.1332C50.9713 16.5065 50.1503 15.7959 49.5297 14.4857C49.3963 14.2035 49.287 13.7555 49.1485 13.1881C48.5929 10.8991 47.58 6.7551 42.8716 6.7551Z" fill="#1C3666"/>
<path d="M40.0258 29.2198C39.501 29.2216 38.9767 29.1905 38.4558 29.1269C36.5056 28.8793 35.1356 28.1411 34.3831 26.9323C33.34 25.2571 34.2179 24.4496 34.8591 23.86C35.1854 23.5587 35.4433 23.3222 35.3703 23.059C35.3023 22.815 34.7951 22.593 34.1534 22.3123C32.6786 21.6675 30.4504 20.6932 30.3602 18.1492C30.2927 16.2329 31.5262 13.5432 33.5037 11.2964C35.8483 8.63487 38.8326 6.98521 41.907 6.65729C47.5658 6.05467 48.6916 10.6722 49.297 13.154C49.4335 13.7129 49.5408 14.1548 49.6677 14.423C50.2615 15.6785 51.1596 16.3062 52.0284 16.9133C52.9678 17.5697 53.8548 18.1894 54.097 19.5362C54.2935 20.629 53.3017 22.602 51.629 24.4461C49.715 26.5552 47.3337 28.0618 45.1003 28.569C43.1985 29.0023 41.4985 29.2198 40.0258 29.2198ZM42.8756 6.70399C42.5559 6.7046 42.2364 6.72237 41.9186 6.75722C38.8693 7.08264 35.9082 8.71573 33.5802 11.3627C31.6189 13.5909 30.395 16.2535 30.462 18.1457C30.5496 20.627 32.7431 21.5856 34.1947 22.2204C34.8873 22.5217 35.3874 22.7422 35.468 23.0319C35.5577 23.3543 35.2665 23.623 34.9281 23.9358C34.2788 24.5334 33.4704 25.2767 34.4697 26.8816C35.2051 28.0633 36.5509 28.7859 38.4694 29.029C40.2464 29.2544 42.4701 29.0671 45.0792 28.473C50.116 27.3266 54.3726 21.6353 53.9988 19.5563C53.7641 18.2506 52.9335 17.6696 51.9715 16.9952C51.1329 16.4096 50.183 15.7458 49.578 14.4662C49.4466 14.1885 49.3378 13.7421 49.1998 13.1776C48.6372 10.8736 47.6202 6.70399 42.8756 6.70399Z" fill="#1C3666"/>
<path d="M42.5858 25.6954L44.2368 30.0855C45.3449 30.5541 46.5034 30.3592 46.3719 29.386L45.1455 25.0572L42.5858 25.6954Z" fill="url(#paint4_linear_209_7452)"/>
<path d="M45.4862 25.8638C47.9574 24.9116 49.0095 21.6856 47.836 18.6583C46.6626 15.631 43.708 13.9488 41.2368 14.901C38.7656 15.8532 37.7136 19.0792 38.887 22.1065C40.0605 25.1338 43.015 26.816 45.4862 25.8638Z" fill="#FFAC70"/>
<path d="M40.5379 19.5123C40.839 19.3738 40.9504 18.9747 40.7867 18.6209C40.6231 18.267 40.2463 18.0924 39.9452 18.2309C39.6441 18.3693 39.5327 18.7684 39.6964 19.1223C39.86 19.4761 40.2368 19.6507 40.5379 19.5123Z" fill="#001B36"/>
<path d="M40.6859 18.6098C40.8554 18.5318 40.939 18.3523 40.8726 18.2087C40.8062 18.0652 40.6149 18.012 40.4454 18.0899C40.2759 18.1679 40.1924 18.3474 40.2588 18.491C40.3252 18.6345 40.5164 18.6877 40.6859 18.6098Z" fill="white"/>
<path d="M44.5255 17.6959C44.8266 17.5574 44.938 17.1583 44.7743 16.8045C44.6106 16.4506 44.2338 16.276 43.9327 16.4145C43.6316 16.5529 43.5202 16.952 43.6839 17.3059C43.8476 17.6597 44.2244 17.8343 44.5255 17.6959Z" fill="#001B36"/>
<path d="M44.6735 16.7934C44.8429 16.7154 44.9265 16.5359 44.8601 16.3923C44.7937 16.2488 44.6025 16.1956 44.433 16.2735C44.2635 16.3515 44.1799 16.531 44.2463 16.6746C44.3127 16.8181 44.504 16.8713 44.6735 16.7934Z" fill="white"/>
<path d="M43.2754 16.1075C42.9596 16.7694 42.7471 17.7275 43.0055 18.0444C43.5671 18.7329 44.5669 18.1273 44.7215 18.3618C45.3047 19.2441 43.3112 20.9526 41.8843 19.8036" fill="url(#paint5_linear_209_7452)"/>
<path d="M42.9516 20.2896C42.5382 20.2899 42.1377 20.1462 41.8193 19.8833C41.7998 19.8662 41.7877 19.8422 41.7854 19.8164C41.7832 19.7906 41.7911 19.7649 41.8074 19.7448C41.8237 19.7246 41.8472 19.7115 41.873 19.7082C41.8988 19.7049 41.9249 19.7117 41.9457 19.7271C42.7209 20.3508 43.6885 20.0787 44.2586 19.5624C44.6112 19.243 44.863 18.7654 44.6359 18.4184C44.6062 18.3883 44.4077 18.4184 44.2894 18.438C43.9025 18.4988 43.3183 18.5887 42.9259 18.1091C42.6136 17.7259 42.8881 16.6834 43.1828 16.0657C43.1943 16.0416 43.2149 16.023 43.2401 16.0141C43.2653 16.0051 43.2931 16.0066 43.3173 16.018C43.3414 16.0295 43.3601 16.05 43.369 16.0752C43.378 16.1003 43.3766 16.128 43.3651 16.1521C43.0548 16.8014 42.8614 17.7129 43.082 17.9825C43.4019 18.3743 43.8763 18.2994 44.2581 18.2397C44.51 18.1995 44.7114 18.1684 44.8041 18.308C45.0595 18.6941 44.8948 19.2581 44.3941 19.7116C44.0239 20.046 43.4991 20.2896 42.9516 20.2896Z" fill="#EB5757"/>
<path d="M41.5917 21.9248C42.2465 21.6471 45.3249 20.8075 45.7475 20.6282C45.7405 21.4522 45.1038 22.3024 44.2919 22.6263C43.48 22.9503 42.0636 22.7504 41.5917 21.9248Z" fill="white"/>
<path d="M41.1946 13.8323C41.1456 13.8327 41.0981 13.8153 41.061 13.7834C41.0239 13.7514 40.9998 13.707 40.9932 13.6585C40.8647 12.717 41.5402 12.1148 42.2216 11.9541C42.9333 11.7869 43.848 12.042 44.1764 12.9997C44.1937 13.0501 44.1902 13.1053 44.1667 13.1531C44.1432 13.201 44.1016 13.2375 44.051 13.2548C44.0004 13.272 43.9451 13.2686 43.8971 13.2451C43.8491 13.2217 43.8124 13.1802 43.7951 13.1297C43.5468 12.4051 42.8724 12.2138 42.3148 12.3453C41.787 12.4694 41.2974 12.9073 41.3926 13.6043C41.3998 13.657 41.3856 13.7105 41.3534 13.7528C41.3211 13.7952 41.2732 13.8231 41.2203 13.8303C41.2118 13.8314 41.2032 13.832 41.1946 13.8323Z" fill="#001B36"/>
<path d="M37.0278 16.4509C36.9922 16.4511 36.9572 16.4419 36.9263 16.4243C36.8954 16.4067 36.8698 16.3812 36.852 16.3505C36.3528 15.4696 36.7699 14.6179 37.3682 14.2001C37.9419 13.7984 38.842 13.6979 39.462 14.4181C39.4968 14.4586 39.5139 14.5111 39.5098 14.5643C39.5056 14.6174 39.4805 14.6667 39.4399 14.7013C39.3993 14.7359 39.3465 14.753 39.2932 14.7489C39.24 14.7448 39.1905 14.7197 39.1558 14.6792C38.6969 14.1449 38.0437 14.2187 37.5994 14.5285C37.13 14.8565 36.8253 15.4857 37.203 16.1526C37.2207 16.1832 37.2301 16.2179 37.23 16.2532C37.23 16.2886 37.2206 16.3233 37.2028 16.3538C37.1851 16.3844 37.1595 16.4097 37.1288 16.4273C37.098 16.4449 37.0632 16.4541 37.0278 16.4539V16.4509Z" fill="#001B36"/>
<path d="M38.4127 25.1334C39.3635 25.1334 40.1343 24.3649 40.1343 23.4169C40.1343 22.4689 39.3635 21.7005 38.4127 21.7005C37.4619 21.7005 36.6912 22.4689 36.6912 23.4169C36.6912 24.3649 37.4619 25.1334 38.4127 25.1334Z" fill="#FFAC70"/>
<path d="M37.3823 23.8422C37.3762 23.843 37.3699 23.843 37.3637 23.8422C37.3375 23.8373 37.3142 23.8223 37.2991 23.8003C37.284 23.7784 37.2783 23.7514 37.2831 23.7252C37.3778 23.2205 37.6755 22.8333 38.1001 22.6636C38.5448 22.4858 39.0667 22.5747 39.5326 22.9077C39.5434 22.9153 39.5526 22.9251 39.5596 22.9363C39.5666 22.9476 39.5713 22.9601 39.5735 22.9732C39.5756 22.9862 39.5752 22.9996 39.5721 23.0125C39.5691 23.0254 39.5635 23.0375 39.5557 23.0483C39.5401 23.0698 39.5165 23.0843 39.4902 23.0886C39.4638 23.0928 39.4368 23.0864 39.4152 23.0709C39.0062 22.7786 38.5544 22.6982 38.1751 22.8499C37.816 22.9935 37.5632 23.3265 37.4811 23.7624C37.4763 23.785 37.4639 23.8052 37.4459 23.8198C37.428 23.8343 37.4055 23.8422 37.3823 23.8422Z" fill="#EB5757"/>
<path d="M57.8846 41.0294C58.5646 41.6104 60.1723 42.2296 61.1923 42.1001C62.2122 41.9705 63.7449 41.1751 63.891 40.6583C64.037 40.1416 64.2471 38.4633 62.9516 38.2373C61.6562 38.0113 61.5111 38.9634 60.2317 38.4146C58.9524 37.8657 57.6902 38.4793 57.6902 38.4793L57.8846 41.0294Z" fill="#FFAC70"/>
<path d="M57.6887 38.4881C57.6308 38.246 58.5772 37.4069 59.3831 37.2683C60.189 37.1297 60.3053 37.3587 61.1701 37.3225C61.5041 37.3085 61.631 37.8101 61.1198 37.9859C60.6085 38.1617 59.6218 38.2947 59.7598 38.5383C59.8979 38.7818 58.0917 40.1653 57.6887 38.4881Z" fill="#FFAC70"/>
<path d="M59.7615 38.6356C59.7439 38.6355 59.7266 38.6308 59.7114 38.622C59.6962 38.6132 59.6836 38.6006 59.6748 38.5854C59.6599 38.5605 59.651 38.5324 59.6489 38.5035C59.6468 38.4745 59.6515 38.4455 59.6627 38.4187C59.7343 38.2509 60.0526 38.1636 60.5658 38.035C60.7512 37.9883 60.9431 37.9401 61.0887 37.8904C61.3183 37.811 61.3778 37.6659 61.3591 37.5654C61.3519 37.523 61.3289 37.4847 61.2948 37.4582C61.2607 37.4318 61.2179 37.4189 61.1748 37.4223C61.1481 37.4234 61.122 37.414 61.1023 37.3959C61.0826 37.3779 61.0709 37.3528 61.0698 37.3261C61.0686 37.2995 61.0782 37.2735 61.0963 37.2539C61.1143 37.2342 61.1395 37.2226 61.1662 37.2214C61.2578 37.216 61.3482 37.2442 61.4202 37.3007C61.4923 37.3573 61.541 37.4383 61.5571 37.5283C61.5908 37.7071 61.5067 37.9592 61.1541 38.0807C61.0005 38.1309 60.8046 38.1811 60.6147 38.2314C60.3513 38.2971 59.9141 38.4071 59.8526 38.492C59.8602 38.5074 59.8637 38.5244 59.8628 38.5415C59.8619 38.5586 59.8566 38.5752 59.8475 38.5896C59.8383 38.6041 59.8256 38.6161 59.8106 38.6243C59.7955 38.6325 59.7786 38.6368 59.7615 38.6366V38.6356Z" fill="#EB5757"/>
<path d="M40.7496 31.0164C40.1245 31.3544 39.5841 33.3299 40.0641 34.8797C40.5441 36.4294 42.9204 40.9023 48.3909 42.0338C53.8613 43.1652 57.9607 41.5316 57.9607 41.5316C58.89 40.4654 58.8422 39.3998 57.7991 38.3352C57.7991 38.3352 50.6106 38.4216 48.9187 37.2595C47.7875 36.4826 46.2326 35.1328 45.8186 33.9772C45.0943 31.9434 43.2 29.6911 40.7496 31.0164Z" fill="#0084F8"/>
<path d="M52.2987 42.5292C50.9801 42.53 49.6649 42.3965 48.3735 42.1309C45.9861 41.6378 43.9371 40.4772 42.2836 38.6814C41.0092 37.2974 40.2406 35.7843 39.9666 34.9095C39.9623 34.8968 39.9605 34.8834 39.9614 34.8699C39.9624 34.8565 39.966 34.8434 39.9721 34.8314C39.9782 34.8195 39.9867 34.8088 39.997 34.8001C40.0073 34.7915 40.0193 34.785 40.0322 34.781C40.0451 34.777 40.0586 34.7757 40.0721 34.777C40.0855 34.7784 40.0985 34.7824 40.1103 34.7889C40.1221 34.7953 40.1326 34.8041 40.1409 34.8147C40.1493 34.8252 40.1555 34.8373 40.159 34.8503C40.424 35.704 41.1775 37.1859 42.4291 38.5453C44.054 40.3095 46.0667 41.45 48.4118 41.9341C53.7886 43.0444 57.885 41.453 57.9258 41.4369C57.9382 41.4312 57.9517 41.428 57.9653 41.4277C57.979 41.4273 57.9926 41.4297 58.0053 41.4348C58.018 41.4398 58.0296 41.4474 58.0393 41.457C58.0489 41.4667 58.0565 41.4782 58.0616 41.4909C58.0667 41.5035 58.0691 41.5171 58.0688 41.5307C58.0684 41.5444 58.0652 41.5578 58.0595 41.5702C58.0538 41.5826 58.0456 41.5937 58.0354 41.6028C58.0252 41.6119 58.0133 41.6189 58.0003 41.6232C57.9903 41.6277 56.9456 42.0385 55.2447 42.3042C54.27 42.4547 53.2851 42.53 52.2987 42.5292Z" fill="#1C3666"/>
<path d="M54.0681 38.3365H54.0616C51.3372 38.1728 49.5889 37.8378 48.8656 37.3407C47.6754 36.5236 46.1397 35.1607 45.7277 34.0097C45.5774 33.5906 45.3868 33.187 45.1585 32.8045C45.1503 32.7931 45.1445 32.7801 45.1415 32.7664C45.1386 32.7526 45.1385 32.7384 45.1414 32.7247C45.1444 32.7109 45.1501 32.6979 45.1584 32.6866C45.1666 32.6752 45.1772 32.6656 45.1894 32.6586C45.2016 32.6515 45.2151 32.6471 45.2291 32.6455C45.2431 32.644 45.2573 32.6455 45.2707 32.6497C45.2842 32.654 45.2965 32.6611 45.3071 32.6704C45.3176 32.6798 45.326 32.6912 45.3318 32.704C45.5669 33.0981 45.7629 33.514 45.9171 33.9459C46.3135 35.0507 47.8144 36.3785 48.98 37.179C49.6629 37.648 51.4243 37.9825 54.0737 38.1396C54.1004 38.1404 54.1257 38.1517 54.1441 38.171C54.1625 38.1904 54.1724 38.2162 54.1716 38.2428C54.1709 38.2695 54.1596 38.2947 54.1402 38.3131C54.1208 38.3314 54.0948 38.3413 54.0681 38.3405V38.3365Z" fill="#1C3666"/>
<path d="M27.8594 51.7494C27.8558 51.7258 27.8518 51.7017 27.8473 51.6781C27.8427 51.6545 27.8397 51.6304 27.8352 51.6068C27.8307 51.5832 27.8276 51.5591 27.8236 51.535C27.8196 51.5109 27.8161 51.4878 27.8115 51.4637C27.807 51.4396 27.804 51.416 27.7994 51.3924C27.7949 51.3687 27.7919 51.3446 27.7873 51.321C27.7828 51.2974 27.7798 51.2733 27.7753 51.2492C27.7707 51.2251 27.7677 51.2015 27.7632 51.1779C27.7586 51.1543 27.7556 51.1302 27.7516 51.1066C27.7516 51.091 27.7465 51.0755 27.7435 51.0604C27.74 51.0363 27.736 51.0102 27.7314 50.9886C27.7269 50.967 27.7239 50.9384 27.7193 50.9168C27.7148 50.8952 27.7118 50.8666 27.7073 50.845C27.7027 50.8234 27.6997 50.7948 27.6952 50.7732C27.6906 50.7516 27.6876 50.7229 27.6831 50.7013C27.6785 50.6798 27.6755 50.6511 27.671 50.6295C27.6665 50.6079 27.6634 50.5793 27.6589 50.5577C27.6544 50.5361 27.6513 50.5075 27.6468 50.4859C27.6423 50.4643 27.6393 50.4357 27.6347 50.4141C27.6302 50.3925 27.6272 50.3664 27.6226 50.3423C27.6181 50.3182 27.6151 50.2921 27.6106 50.2705C27.606 50.2489 27.603 50.2203 27.599 50.1987L27.5869 50.1268L27.5748 50.055L27.5627 49.9832C27.5592 49.9591 27.5546 49.9355 27.5506 49.9114C27.5466 49.8873 27.5426 49.8612 27.5385 49.8396C27.5345 49.818 27.5305 49.7919 27.5264 49.7678C27.5224 49.7437 27.5184 49.7201 27.5143 49.696C27.5103 49.6719 27.5068 49.6458 27.5023 49.6242C27.4977 49.6026 27.4947 49.5765 27.4902 49.5529C27.4856 49.5293 27.4826 49.5026 27.4781 49.4805C27.4736 49.4584 27.4705 49.4303 27.466 49.4087C27.4615 49.3871 27.4584 49.361 27.4539 49.3374C27.4494 49.3138 27.4464 49.2872 27.4418 49.2656C27.4373 49.244 27.4343 49.2154 27.4297 49.1938C27.4252 49.1722 27.4222 49.1436 27.4176 49.122C27.4131 49.1004 27.4101 49.0718 27.4056 49.0502C27.401 49.0286 27.398 49.0025 27.394 48.9784L27.3819 48.9066C27.3784 48.8824 27.3743 48.8588 27.3698 48.8347C27.3653 48.8106 27.3622 48.7845 27.3577 48.7629C27.3532 48.7413 27.3502 48.7152 27.3456 48.6911C27.3411 48.667 27.3381 48.6434 27.3335 48.6193C27.329 48.5952 27.326 48.5691 27.3214 48.548C27.3169 48.5269 27.3139 48.4978 27.3094 48.4762C27.3048 48.4546 27.3018 48.426 27.2973 48.4044C27.2927 48.3828 27.2897 48.3541 27.2852 48.3325C27.2806 48.311 27.2776 48.2823 27.2736 48.2607C27.2696 48.2391 27.266 48.213 27.2615 48.1889C26.7442 44.7349 17.0812 41.981 5.23564 41.981C-6.60988 41.981 -16.2714 44.7349 -16.7902 48.1889C-16.7948 48.213 -16.7983 48.2391 -16.8023 48.2607C-16.8063 48.2823 -16.8104 48.311 -16.8139 48.3325C-16.8174 48.3541 -16.8225 48.3803 -16.826 48.4044C-16.8295 48.4285 -16.8346 48.4546 -16.8381 48.4762C-16.8416 48.4978 -16.8466 48.5239 -16.8502 48.548C-16.8537 48.5721 -16.8587 48.5957 -16.8623 48.6193C-16.8658 48.6429 -16.8708 48.6695 -16.8743 48.6911C-16.8779 48.7127 -16.8829 48.7413 -16.8864 48.7629C-16.89 48.7845 -16.895 48.8131 -16.8985 48.8347C-16.902 48.8563 -16.9071 48.8824 -16.9106 48.9066L-16.9227 48.9784L-16.9348 49.0502C-16.9388 49.0738 -16.9428 49.0979 -16.9464 49.122C-16.9499 49.1461 -16.9549 49.1722 -16.9585 49.1938C-16.962 49.2154 -16.967 49.2415 -16.9705 49.2656C-16.9741 49.2897 -16.9791 49.3133 -16.9826 49.3374C-16.9862 49.3615 -16.9912 49.3876 -16.9947 49.4087C-16.9982 49.4298 -17.0033 49.4589 -17.0068 49.4805C-17.0103 49.5021 -17.0154 49.5308 -17.0189 49.5524C-17.0224 49.5739 -17.0275 49.6026 -17.031 49.6242C-17.0345 49.6458 -17.0395 49.6744 -17.0431 49.696C-17.0466 49.7176 -17.0516 49.7437 -17.0552 49.7678C-17.0587 49.7919 -17.0637 49.8155 -17.0673 49.8396C-17.0708 49.8637 -17.0758 49.8898 -17.0793 49.9114C-17.0829 49.933 -17.0879 49.9591 -17.0914 49.9832L-17.1035 50.055L-17.1156 50.1268L-17.1277 50.1987L-17.1398 50.2705C-17.1438 50.2946 -17.1478 50.3182 -17.1514 50.3423C-17.1549 50.3664 -17.1599 50.39 -17.1635 50.4141C-17.167 50.4382 -17.172 50.4643 -17.1755 50.4859C-17.1791 50.5075 -17.1841 50.5336 -17.1876 50.5577C-17.1912 50.5818 -17.1962 50.6054 -17.1997 50.6295C-17.2032 50.6536 -17.2083 50.6798 -17.2118 50.7013C-17.2153 50.7229 -17.2204 50.7491 -17.2239 50.7732C-17.2274 50.7973 -17.2325 50.8209 -17.236 50.845C-17.2395 50.8691 -17.2445 50.8952 -17.2481 50.9168C-17.2516 50.9384 -17.2566 50.9645 -17.2602 50.9886C-17.2637 51.0127 -17.2687 51.0388 -17.2722 51.0604C-17.2753 51.0755 -17.2778 51.091 -17.2803 51.1066C-17.2848 51.1302 -17.2884 51.1568 -17.2924 51.1779C-17.2964 51.199 -17.3005 51.2281 -17.304 51.2492C-17.3075 51.2703 -17.3125 51.2969 -17.3161 51.321C-17.3196 51.3451 -17.3241 51.3682 -17.3282 51.3924C-17.3322 51.4165 -17.3362 51.4426 -17.3402 51.4637C-17.3443 51.4847 -17.3483 51.5114 -17.3523 51.535C-17.3564 51.5586 -17.3604 51.5827 -17.3639 51.6068C-17.3674 51.6309 -17.3725 51.657 -17.376 51.6781C-17.3795 51.6992 -17.3846 51.7258 -17.3881 51.7494C-17.4199 51.9205 -17.4359 52.0941 -17.4359 52.2682C-17.4359 56.6457 -7.28581 60.1941 5.23564 60.1941C17.7571 60.1941 27.9072 56.6477 27.9072 52.2682C27.9072 52.0941 27.8911 51.9205 27.8594 51.7494Z" fill="#1C3666"/>
<path d="M5.23542 54.9794C17.4122 54.9794 27.2834 52.0696 27.2834 48.4802C27.2834 44.8908 17.4122 41.981 5.23542 41.981C-6.94136 41.981 -16.8126 44.8908 -16.8126 48.4802C-16.8126 52.0696 -6.94136 54.9794 5.23542 54.9794Z" fill="#0084F8"/>
<path d="M20.6306 20.4381L8.23203 18.909L-11.3329 22.9154V47.8266L8.23203 52.7138L20.6306 49.416V20.4381Z" fill="#E3E4E6"/>
<path d="M20.6307 20.4381L8.23212 18.909V52.7138L20.6307 49.416V20.4381Z" fill="#A8ADB3"/>
<path d="M8.23212 18.909C12.3668 19.4036 16.498 19.9274 20.6307 20.4381V49.414L8.23212 52.7118V18.909Z" fill="#A8ADB3"/>
<path d="M11.5545 20.9428C13.7767 21.1835 15.9982 21.4292 18.2191 21.68C18.7923 21.7608 19.2134 22.2615 19.2265 22.835C19.2416 31.0805 19.2574 39.3255 19.2738 47.57C19.2507 48.1284 18.8014 48.5743 18.275 48.7039C16.0024 49.2272 13.731 49.7545 11.4608 50.2858C10.8836 50.4364 10.1638 50.1718 10.1542 49.4903L10.2253 21.9235C10.2484 21.236 10.9309 20.8709 11.5545 20.9428Z" fill="#DDE0E4"/>
<path d="M10.106 20.6863L10.032 50.7128C13.1414 49.9799 16.2517 49.2517 19.3631 48.5283C19.3447 39.5894 19.3279 30.6498 19.3128 21.7093C16.2447 21.3628 13.1758 21.0218 10.106 20.6863ZM19.2327 26.3494L17.9508 26.2525C17.9478 24.7175 17.9449 23.1823 17.9423 21.647L19.2241 21.7906C19.2271 23.3102 19.23 24.8298 19.2327 26.3494ZM15.1363 30.8454L15.1408 26.1415L16.4786 26.2369L16.4816 30.8876C15.9547 30.8706 15.6868 30.862 15.1363 30.8454ZM16.4816 30.981L16.4846 35.5891C15.9547 35.5961 15.6858 35.6001 15.1317 35.6091L15.1363 30.9389C15.6868 30.9559 15.9547 30.964 16.4816 30.981ZM15.0411 30.8424C14.5666 30.8284 14.0921 30.8148 13.6177 30.8018C13.6217 29.2129 13.6256 27.6243 13.6293 26.0361L15.0461 26.1365C15.0448 27.7046 15.0431 29.2733 15.0411 30.8424ZM15.0411 30.9368C15.0411 32.4953 15.0394 34.0534 15.036 35.6112C14.5589 35.6185 14.0821 35.6272 13.6056 35.6373L13.6177 30.8972C14.0921 30.9099 14.5666 30.9228 15.0411 30.9358V30.9368ZM13.5038 35.6388C12.9921 35.6495 12.4802 35.6604 11.9681 35.6714C11.9732 34.0644 11.9784 32.4591 11.9837 30.8555C12.4945 30.8682 13.0052 30.8813 13.5159 30.8947L13.5038 35.6388ZM13.5038 35.7342L13.4918 40.4346C12.979 40.4738 12.4661 40.5135 11.953 40.5536C11.9581 38.958 11.9633 37.3628 11.9686 35.7678C12.48 35.7558 12.9916 35.7446 13.5033 35.7342H13.5038ZM13.6046 35.7342C14.0811 35.7241 14.5579 35.7149 15.035 35.7066C15.035 37.2449 15.0333 38.7831 15.03 40.3211C14.5512 40.3563 14.0722 40.3921 13.593 40.4286C13.5974 38.8624 13.6016 37.297 13.6056 35.7322L13.6046 35.7342ZM15.03 40.4135C15.03 41.9237 15.0283 43.4338 15.0249 44.9437L13.5809 45.1526C13.5849 43.6096 13.5888 42.0662 13.5925 40.5225C14.0723 40.484 14.5518 40.447 15.031 40.4115L15.03 40.4135ZM15.1262 40.4065C15.6833 40.3648 15.9537 40.3452 16.4861 40.3061L16.4891 44.7338C15.9532 44.8096 15.6833 44.8483 15.1212 44.9286L15.1262 40.4065ZM15.1262 40.3141L15.1307 35.7046C15.6848 35.695 15.9537 35.6905 16.4836 35.683L16.4866 40.2167C15.9547 40.2523 15.6843 40.2714 15.1272 40.3121L15.1262 40.3141ZM16.5748 35.6815C17.1036 35.6739 17.363 35.6709 17.8783 35.6649C17.8813 37.1503 17.8842 38.6358 17.8869 40.1212C17.3701 40.1554 17.1097 40.1715 16.5773 40.2106C16.5776 38.6994 16.5771 37.189 16.5758 35.6794L16.5748 35.6815ZM16.5748 35.5896L16.5717 30.9856L17.8697 31.0288C17.8728 32.544 17.8756 34.0593 17.8783 35.5745C17.365 35.5775 17.1046 35.5805 16.5758 35.5875L16.5748 35.5896ZM16.5717 30.8926C16.5717 29.3433 16.5706 27.7942 16.5682 26.2455L17.8612 26.3404C17.8642 27.8727 17.867 29.4049 17.8697 30.9368C17.3565 30.9168 17.0986 30.9077 16.5728 30.8907L16.5717 30.8926ZM16.5682 26.1521C16.5682 24.5993 16.567 23.0467 16.5647 21.4943L17.8531 21.639C17.8555 23.1753 17.8581 24.7116 17.8612 26.248C17.3494 26.2073 17.0926 26.1882 16.5692 26.15L16.5682 26.1521ZM16.4776 26.1455C15.9532 26.1069 15.6873 26.0878 15.1398 26.0486L15.1443 21.3361L16.475 21.4843C16.4767 23.0367 16.4779 24.5898 16.4786 26.1435L16.4776 26.1455ZM15.0481 26.0396C14.576 26.0061 14.1039 25.9726 13.6318 25.9391C13.6351 24.3482 13.639 22.758 13.6434 21.1684L15.0537 21.3241C15.05 22.8963 15.0481 24.4681 15.0481 26.0396ZM13.5305 25.9331L12.0019 25.8277L12.017 20.9906L13.5426 21.1569L13.5305 25.9331ZM13.5305 26.029L13.5184 30.7998C13.0077 30.7857 12.497 30.7721 11.9863 30.7591C11.992 29.1481 11.9972 27.5371 12.0019 25.9261C12.5099 25.9596 13.0186 25.9939 13.528 26.029H13.5305ZM11.8749 30.7556L10.2032 30.7144C10.2073 29.0786 10.2115 27.4427 10.2158 25.8066C10.7739 25.8437 11.332 25.8809 11.8901 25.918L11.8749 30.7556ZM11.8749 30.8525C11.8699 32.4595 11.8647 34.0664 11.8593 35.6734C11.3033 35.6865 10.7472 35.6995 10.1911 35.7126L10.2032 30.8133C10.76 30.826 11.3172 30.8391 11.8749 30.8525ZM11.8593 35.7703C11.8543 37.3676 11.8491 38.9649 11.8437 40.5622L10.1781 40.6952C10.1821 39.0672 10.1863 37.4391 10.1906 35.811C10.7457 35.797 11.3014 35.7834 11.8578 35.7703H11.8593ZM11.8437 40.6586C11.838 42.2418 11.8328 43.8252 11.8281 45.4087C11.2737 45.4907 10.7197 45.5731 10.166 45.6558C10.17 44.0348 10.1742 42.4139 10.1786 40.7932C10.7323 40.748 11.2868 40.7031 11.8422 40.6586H11.8437ZM11.9535 40.6495C12.4669 40.6084 12.98 40.568 13.4928 40.5285L13.4807 45.1657L11.9384 45.3922L11.9535 40.6495ZM13.4807 45.2586L13.4686 49.8139L11.9228 50.1739L11.9379 45.4871L13.4807 45.2586ZM13.5814 45.243C14.0626 45.172 14.5439 45.1017 15.0255 45.0321C15.0255 46.5051 15.0238 47.9782 15.0204 49.4513L13.5693 49.7887L13.5814 45.243ZM15.1222 45.018C15.6822 44.9367 15.9542 44.8975 16.4902 44.8207L16.4932 49.1108L15.1176 49.4297L15.1222 45.018ZM16.5828 44.8076C17.1172 44.7313 17.3786 44.6946 17.8964 44.6218C17.8994 46.0098 17.9023 47.3975 17.905 48.7849C17.3857 48.9044 17.1228 48.9652 16.5864 49.0897C16.585 47.6622 16.5838 46.2348 16.5828 44.8076ZM16.5828 44.7202C16.5828 43.2472 16.5817 41.7741 16.5793 40.301C17.1112 40.2634 17.3711 40.2453 17.8889 40.2101C17.8919 41.6531 17.8947 43.096 17.8974 44.5389C17.3781 44.6082 17.1167 44.6454 16.5828 44.7202ZM17.977 40.2006C18.4933 40.1659 18.7481 40.1504 19.2584 40.1162C19.2614 41.527 19.2642 42.9375 19.2669 44.3476C18.7577 44.4164 18.5029 44.4516 17.9856 44.5229C17.9826 43.0829 17.9797 41.6425 17.977 40.2016V40.2006ZM17.977 40.1122C17.974 38.6281 17.9711 37.1443 17.9684 35.6609C18.4832 35.6553 18.7381 35.6528 19.2498 35.6488C19.2528 37.1092 19.2557 38.5693 19.2584 40.0294C18.7476 40.0625 18.4928 40.0791 17.977 40.1132V40.1122ZM17.9679 35.5705C17.9653 34.0566 17.9624 32.5428 17.9594 31.0293C18.4736 31.0468 18.728 31.0559 19.2412 31.0754C19.2443 32.5699 19.2471 34.0648 19.2498 35.5599C18.7376 35.564 18.4832 35.5665 17.9695 35.5715L17.9679 35.5705ZM17.9594 30.9358C17.9564 29.4052 17.9535 27.8742 17.9508 26.3429L19.2327 26.4393C19.2357 27.9539 19.2386 29.4685 19.2412 30.983C18.728 30.9655 18.4731 30.9564 17.9594 30.9358ZM11.9052 20.9786C11.8995 22.5926 11.8943 24.2066 11.8895 25.8206C11.3315 25.7824 10.7726 25.745 10.2128 25.7081C10.2172 24.0713 10.2214 22.4347 10.2254 20.7983L11.9052 20.9786ZM10.1624 45.7532L11.8246 45.5021L11.8095 50.1985L10.1473 50.5862C10.1544 48.9759 10.1594 47.3649 10.1624 45.7532ZM17.9931 48.7663C17.9908 47.3813 17.9879 45.9963 17.9846 44.6113C18.5018 44.5389 18.7567 44.5038 19.2659 44.434C19.2689 45.7798 19.2718 47.1257 19.2745 48.4715L17.9931 48.7663Z" fill="#A8ADB3"/>
<path d="M-11.3329 22.9154L8.23202 18.909V52.7138L-11.3329 47.8266V22.9154Z" fill="#E3E4E6"/>
<path d="M-9.8594 41.4729C-4.71231 42.3522 0.44284 43.1858 5.59245 44.0516C6.09008 44.1354 6.50511 44.5035 6.50259 44.8751C6.48781 47.3409 6.47338 49.8062 6.45927 52.2713L-10.3978 48.0605C-10.3948 46.0082 -10.3918 43.956 -10.3888 41.9037C-10.3883 41.6145 -10.153 41.4226 -9.8594 41.4729Z" fill="#F7F7F7"/>
<path d="M-9.21274 23.6656C-4.50872 22.7677 0.19648 21.8772 4.90285 20.994C5.58987 20.8805 6.68789 21.1567 6.63853 22.0571L6.5252 41.13C6.51009 42.0339 5.40905 42.3824 4.66159 42.2428C0.0141468 41.5679 -4.63732 40.9246 -9.28426 40.2471C-9.8786 40.1467 -10.3662 39.6551 -10.3858 39.0419C-10.3781 34.3575 -10.3704 29.6732 -10.3626 24.9889C-10.3375 24.3396 -9.83982 23.7997 -9.21274 23.6656Z" fill="#F7F7F7"/>
<path d="M-2.99443 30.4458C-3.01609 31.4722 -3.88544 32.3571 -4.91647 32.3862C-5.84123 32.4123 -6.71108 31.6169 -6.67935 30.6748C-6.6456 29.7026 -5.84425 28.8253 -4.86308 28.7253C-4.62376 28.7007 -4.38193 28.7272 -4.15366 28.803C-3.9254 28.8788 -3.71593 29.0022 -3.53917 29.1649C-3.36242 29.3277 -3.22243 29.5261 -3.1285 29.7469C-3.03458 29.9677 -2.98888 30.206 -2.99443 30.4458ZM-8.28306 32.5585C-8.92827 33.3163 -8.32235 34.2433 -7.79046 34.8102C-6.12832 36.5859 -2.22633 36.9058 -0.179881 35.3867C1.55529 34.0986 2.38888 31.7063 2.26145 29.5871C2.15215 27.7918 0.912599 25.8252 -0.921295 26.4002C-2.02636 26.7462 -2.96422 27.8063 -2.52148 29.1241C-2.04752 30.5342 -2.21927 32.1567 -3.71973 32.8301C-4.57951 33.2163 -5.95808 33.3042 -6.67481 32.6971C-7.12107 32.3179 -7.80507 31.999 -8.28104 32.5585H-8.28306Z" fill="#0084F8"/>
<path d="M1.61851 2.39094L3.36274 3.03273L1.6175 3.67502C0.986098 3.90745 0.41272 4.27354 -0.0631623 4.7481C-0.539044 5.22265 -0.906125 5.7944 -1.13913 6.42396L-1.78333 8.16352L-2.42754 6.42396C-2.66057 5.79433 -3.02772 5.22254 -3.50369 4.74798C-3.97967 4.27341 -4.55316 3.90736 -5.18467 3.67502L-6.92941 3.03273L-5.18467 2.39094C-4.55316 2.15861 -3.97967 1.79255 -3.50369 1.31799C-3.02772 0.84343 -2.66057 0.271637 -2.42754 -0.357995L-1.78333 -2.09805L-1.13913 -0.357995C-0.906017 0.271671 -0.538783 0.843479 -0.0627198 1.31804C0.413343 1.7926 0.98692 2.15864 1.61851 2.39094Z" fill="#FFE595"/>
<path d="M3.63128 78.0171C5.1871 78.0171 6.44834 76.7596 6.44834 75.2084C6.44834 73.6572 5.1871 72.3997 3.63128 72.3997C2.07545 72.3997 0.814209 73.6572 0.814209 75.2084C0.814209 76.7596 2.07545 78.0171 3.63128 78.0171Z" fill="#0084F8"/>
</g>
</g>
</g>
<defs>
<filter id="filter0_b_209_7452" x="-243.71" y="-105.187" width="486.465" height="272.42" filterUnits="userSpaceOnUse" color-interpolation-filters="sRGB">
<feFlood flood-opacity="0" result="BackgroundImageFix"/>
<feGaussianBlur in="BackgroundImage" stdDeviation="9.3551"/>
<feComposite in2="SourceAlpha" operator="in" result="effect1_backgroundBlur_209_7452"/>
<feBlend mode="normal" in="SourceGraphic" in2="effect1_backgroundBlur_209_7452" result="shape"/>
</filter>
<linearGradient id="paint0_linear_209_7452" x1="-49.0207" y1="221.903" x2="451.103" y2="0.187101" gradientUnits="userSpaceOnUse">
<stop stop-color="#0084F8"/>
<stop offset="0.677083" stop-color="#58C2F1"/>
</linearGradient>
<linearGradient id="paint1_linear_209_7452" x1="80.5173" y1="48.8864" x2="96.5029" y2="21.1158" gradientUnits="userSpaceOnUse">
<stop stop-color="#E5942C"/>
<stop offset="0.36" stop-color="#EBAD3B"/>
<stop offset="0.74" stop-color="#F0C247"/>
<stop offset="1" stop-color="#F2C94C"/>
</linearGradient>
<linearGradient id="paint2_linear_209_7452" x1="79.8893" y1="34.7688" x2="79.8893" y2="30.5304" gradientUnits="userSpaceOnUse">
<stop offset="0.06" stop-color="#E5942C"/>
<stop offset="0.35" stop-color="#E5942C"/>
<stop offset="0.53" stop-color="#E9A435"/>
<stop offset="1" stop-color="#F2C94C"/>
</linearGradient>
<linearGradient id="paint3_linear_209_7452" x1="57.621" y1="32.9609" x2="70.9479" y2="32.9609" gradientUnits="userSpaceOnUse">
<stop stop-color="#E5942C"/>
<stop offset="0.3" stop-color="#EAA838"/>
<stop offset="0.73" stop-color="#F0C047"/>
<stop offset="1" stop-color="#F2C94C"/>
</linearGradient>
<linearGradient id="paint4_linear_209_7452" x1="44.4836" y1="30.3291" x2="44.4836" y2="25.0572" gradientUnits="userSpaceOnUse">
<stop stop-color="#FFAC70"/>
<stop offset="0.25" stop-color="#FEA96F"/>
<stop offset="0.45" stop-color="#FC9E6C"/>
<stop offset="0.65" stop-color="#F88D67"/>
<stop offset="0.83" stop-color="#F27460"/>
<stop offset="1" stop-color="#EB5757"/>
</linearGradient>
<linearGradient id="paint5_linear_209_7452" x1="42.4086" y1="17.9796" x2="44.8664" y2="18.6866" gradientUnits="userSpaceOnUse">
<stop stop-color="#EB5757" stop-opacity="0"/>
<stop offset="1" stop-color="#EB5757"/>
</linearGradient>
<clipPath id="clip0_209_7452">
<rect width="80" height="80" rx="8" fill="white"/>
</clipPath>
<clipPath id="clip1_209_7452">
<rect width="449.045" height="235" fill="white" transform="translate(-225 -86.4773)"/>
</clipPath>
</defs>
</svg>
