<svg width="80" height="24" viewBox="0 0 80 24" fill="none" xmlns="http://www.w3.org/2000/svg">
<mask id="path-1-inside-1_13_20742" fill="white">
<path fill-rule="evenodd" clip-rule="evenodd" d="M10.9334 0.00279687C10.3396 -0.022116 9.74041 0.119403 9.20799 0.427355L1.59201 4.83244C0.606872 5.40225 0 6.4553 0 7.59491V16.4051C0 17.5447 0.606872 18.5977 1.59201 19.1676L9.20799 23.5726C9.74041 23.8806 10.3396 24.0221 10.9334 23.9972V24H76.5334C78.0061 24 79.2001 22.8061 79.2001 21.3333V2.66667C79.2001 1.19391 78.0061 1.80008e-09 76.5334 1.80008e-09H10.9334V0.00279687Z"/>
</mask>
<path fill-rule="evenodd" clip-rule="evenodd" d="M10.9334 0.00279687C10.3396 -0.022116 9.74041 0.119403 9.20799 0.427355L1.59201 4.83244C0.606872 5.40225 0 6.4553 0 7.59491V16.4051C0 17.5447 0.606872 18.5977 1.59201 19.1676L9.20799 23.5726C9.74041 23.8806 10.3396 24.0221 10.9334 23.9972V24H76.5334C78.0061 24 79.2001 22.8061 79.2001 21.3333V2.66667C79.2001 1.19391 78.0061 1.80008e-09 76.5334 1.80008e-09H10.9334V0.00279687Z" fill="#F0F5F9"/>
<path d="M9.20799 0.427355L9.07447 0.19652V0.19652L9.20799 0.427355ZM10.9334 0.00279687L10.9222 0.269229L11.2001 0.280886V0.00279687H10.9334ZM1.59201 4.83244L1.72553 5.06328L1.59201 4.83244ZM1.59201 19.1676L1.4585 19.3984H1.4585L1.59201 19.1676ZM9.20799 23.5726L9.07447 23.8035L9.20799 23.5726ZM10.9334 23.9972H11.2001V23.7191L10.9222 23.7308L10.9334 23.9972ZM10.9334 24H10.6667V24.2667H10.9334V24ZM10.9334 1.80008e-09V-0.266667H10.6667V1.80008e-09H10.9334ZM9.3415 0.65819C9.8293 0.376048 10.3782 0.246404 10.9222 0.269229L10.9446 -0.263635C10.301 -0.290636 9.65151 -0.137241 9.07447 0.19652L9.3415 0.65819ZM1.72553 5.06328L9.3415 0.65819L9.07447 0.19652L1.4585 4.60161L1.72553 5.06328ZM0.266667 7.59491C0.266667 6.55033 0.822931 5.58534 1.72553 5.06328L1.4585 4.60161C0.390812 5.21916 -0.266667 6.36026 -0.266667 7.59491H0.266667ZM0.266667 16.4051V7.59491H-0.266667V16.4051H0.266667ZM1.72553 18.9367C0.822932 18.4147 0.266667 17.4497 0.266667 16.4051H-0.266667C-0.266667 17.6397 0.390813 18.7808 1.4585 19.3984L1.72553 18.9367ZM9.3415 23.3418L1.72553 18.9367L1.4585 19.3984L9.07447 23.8035L9.3415 23.3418ZM10.9222 23.7308C10.3782 23.7536 9.8293 23.624 9.3415 23.3418L9.07447 23.8035C9.65151 24.1372 10.301 24.2906 10.9446 24.2636L10.9222 23.7308ZM11.2001 24V23.9972H10.6667V24H11.2001ZM76.5334 23.7333H10.9334V24.2667H76.5334V23.7333ZM78.9334 21.3333C78.9334 22.6588 77.8589 23.7333 76.5334 23.7333V24.2667C78.1534 24.2667 79.4667 22.9534 79.4667 21.3333H78.9334ZM78.9334 2.66667V21.3333H79.4667V2.66667H78.9334ZM76.5334 0.266667C77.8589 0.266667 78.9334 1.34118 78.9334 2.66667H79.4667C79.4667 1.04663 78.1534 -0.266667 76.5334 -0.266667V0.266667ZM10.9334 0.266667H76.5334V-0.266667H10.9334V0.266667ZM11.2001 0.00279687V1.80008e-09H10.6667V0.00279687H11.2001Z" fill="#1C3666" mask="url(#path-1-inside-1_13_20742)"/>
<path d="M10.8371 14.301C9.69572 14.301 8.77032 13.3747 8.77032 12.2321C8.77032 11.0896 9.69572 10.1632 10.8371 10.1632C11.9785 10.1632 12.9039 11.0896 12.9039 12.2321C12.9039 13.3747 11.9785 14.301 10.8371 14.301ZM6.65644 12.2321C6.65644 11.8274 6.71479 11.4359 6.82228 11.066L2.40002 8.51032V16.2675C2.40002 16.7881 2.67744 17.2697 3.12785 17.53L9.77557 21.3717V16.2808C7.98107 15.8105 6.65644 14.176 6.65644 12.2321ZM10.1093 2.90097L3.53425 6.70065L7.92068 9.23582C8.6741 8.50109 9.70289 8.04714 10.8381 8.04714C11.9744 8.04714 13.0032 8.50109 13.7566 9.23685L18.143 6.70167L11.5649 2.90097C11.1145 2.63966 10.5597 2.63966 10.1093 2.90097ZM14.853 11.068C14.9594 11.438 15.0178 11.8284 15.0178 12.2321C15.0178 14.176 13.6932 15.8105 11.8987 16.2808V21.3717L18.5464 17.53C18.9968 17.2697 19.2742 16.7881 19.2742 16.2675V8.51236L14.853 11.068Z" fill="url(#paint0_linear_13_20742)"/>
<path d="M25.4806 11.3892V19.5747H23.5459V11.3892H25.4806ZM30.1762 11.3892L27.5689 15.0628L30.3891 19.5747H28.1473L25.539 15.2042L28.135 11.3892H30.1762Z" fill="#1C3666"/>
<path d="M35.7345 13.9818C36.277 14.569 36.5483 15.3898 36.5483 16.4442C36.5483 17.1134 36.4244 17.6985 36.1767 18.1986C35.929 18.6986 35.5748 19.087 35.1152 19.3616C34.6545 19.6373 34.1099 19.7746 33.4814 19.7746C32.5294 19.7746 31.78 19.4815 31.2334 18.8943C30.6868 18.3082 30.4135 17.4874 30.4135 16.4319C30.4135 15.7628 30.5373 15.1777 30.785 14.6776C31.0328 14.1775 31.387 13.7902 31.8466 13.5145C32.3072 13.2389 32.8518 13.1016 33.4804 13.1016C34.4395 13.1016 35.1909 13.3957 35.7345 13.9818ZM32.6307 14.9502C32.4424 15.2689 32.3472 15.7638 32.3472 16.4329C32.3472 17.1185 32.4393 17.6186 32.6246 17.9331C32.8088 18.2477 33.0944 18.4055 33.4804 18.4055C33.8581 18.4055 34.1417 18.2457 34.33 17.927C34.5184 17.6083 34.6136 17.1144 34.6136 16.4442C34.6136 15.7587 34.5214 15.2586 34.3362 14.944C34.1509 14.6294 33.8663 14.4716 33.4804 14.4716C33.1026 14.4726 32.8191 14.6315 32.6307 14.9502Z" fill="#1C3666"/>
<path d="M41.6812 13.2082L41.3864 15.0158C41.15 14.9605 40.9616 14.9328 40.8203 14.9328C40.4508 14.9328 40.1693 15.0609 39.9768 15.3171C39.7844 15.5733 39.6329 15.9565 39.5223 16.4689V19.5758H37.6582V13.3025H39.2869L39.4404 14.5188C39.5817 14.0854 39.7967 13.7451 40.0833 13.4972C40.3699 13.2492 40.6944 13.1252 41.0568 13.1252C41.2841 13.1252 41.4929 13.1529 41.6812 13.2082Z" fill="#1C3666"/>
<path d="M47.4628 16.9883H43.581C43.6435 17.5161 43.794 17.886 44.0294 18.0992C44.2659 18.3123 44.5914 18.4178 45.0091 18.4178C45.2609 18.4178 45.5045 18.3728 45.741 18.2816C45.9774 18.1914 46.2323 18.051 46.5077 17.8624L47.2744 18.9015C46.5425 19.4846 45.7287 19.7756 44.832 19.7756C43.8175 19.7756 43.0385 19.4764 42.4959 18.8779C41.9534 18.2795 41.6821 17.4761 41.6821 16.4678C41.6821 15.8304 41.7958 15.2566 42.024 14.7493C42.2523 14.2411 42.586 13.8394 43.0272 13.5442C43.4674 13.2491 43.9946 13.1016 44.6088 13.1016C45.5137 13.1016 46.2211 13.3854 46.7329 13.9521C47.2437 14.5188 47.4996 15.3068 47.4996 16.3141C47.4986 16.5744 47.4863 16.7988 47.4628 16.9883ZM45.6693 15.7833C45.6529 14.8231 45.3151 14.3425 44.6549 14.3425C44.3324 14.3425 44.0826 14.4603 43.9055 14.6971C43.7284 14.9338 43.6199 15.3232 43.581 15.8663H45.6693V15.7833Z" fill="#1C3666"/>
<path d="M53.2853 11.4127C53.6825 11.5623 54.0581 11.7868 54.4123 12.086L53.4921 13.1845C53.2484 12.9959 53.0079 12.8535 52.7724 12.7592C52.5359 12.6649 52.2841 12.6178 52.0169 12.6178C51.4662 12.6178 51.0322 12.8504 50.7128 13.3146C50.3944 13.7788 50.2347 14.4961 50.2347 15.4645C50.2347 16.4175 50.3944 17.1246 50.7128 17.5847C51.0311 18.0458 51.4744 18.2753 52.0405 18.2753C52.3394 18.2753 52.6107 18.2179 52.8543 18.1042C53.0979 17.9904 53.362 17.8265 53.6446 17.6144L54.5065 18.7252C54.1994 19.0326 53.8278 19.2847 53.3917 19.4814C52.9556 19.6782 52.4735 19.7765 51.9463 19.7765C51.1908 19.7765 50.5347 19.6116 49.9757 19.2806C49.4168 18.9496 48.9828 18.4598 48.6716 17.8101C48.3604 17.1604 48.2058 16.3786 48.2058 15.4655C48.2058 14.5761 48.3655 13.8075 48.6839 13.1619C49.0022 12.5164 49.4424 12.0265 50.0054 11.6915C50.5674 11.3564 51.2072 11.1893 51.9228 11.1893C52.4346 11.1883 52.8881 11.2631 53.2853 11.4127Z" fill="#1C3666"/>
<path d="M60.065 13.9818C60.6076 14.569 60.8789 15.3898 60.8789 16.4442C60.8789 17.1134 60.755 17.6985 60.5073 18.1986C60.2595 18.6986 59.9054 19.087 59.4457 19.3616C58.9851 19.6373 58.4405 19.7746 57.8119 19.7746C56.8599 19.7746 56.1106 19.4815 55.564 18.8943C55.0173 18.3082 54.744 17.4874 54.744 16.4319C54.744 15.7628 54.8679 15.1777 55.1156 14.6776C55.3633 14.1775 55.7175 13.7902 56.1772 13.5145C56.6378 13.2389 57.1824 13.1016 57.8109 13.1016C58.7711 13.1016 59.5225 13.3957 60.065 13.9818ZM56.9613 14.9502C56.7729 15.2689 56.6777 15.7638 56.6777 16.4329C56.6777 17.1185 56.7699 17.6186 56.9551 17.9331C57.1394 18.2477 57.425 18.4055 57.8109 18.4055C58.1887 18.4055 58.4722 18.2457 58.6606 17.927C58.8489 17.6083 58.9441 17.1144 58.9441 16.4442C58.9441 15.7587 58.852 15.2586 58.6667 14.944C58.4814 14.6294 58.1969 14.4716 57.8109 14.4716C57.4332 14.4726 57.1507 14.6315 56.9613 14.9502Z" fill="#1C3666"/>
<path d="M66.932 13.5985C67.2391 13.9295 67.3926 14.3937 67.3926 14.9922V19.5747H65.5285V15.3109C65.5285 14.9963 65.4794 14.778 65.3811 14.655C65.2828 14.5331 65.1354 14.4716 64.9389 14.4716C64.5611 14.4716 64.1998 14.7432 63.8538 15.2863V19.5737H61.9897V13.3024H63.6183L63.7483 14.0463C64.0155 13.7318 64.3052 13.495 64.6154 13.3372C64.9266 13.1794 65.2746 13.1005 65.6595 13.1005C66.2011 13.1015 66.6259 13.2676 66.932 13.5985Z" fill="#1C3666"/>
<path d="M72.6083 15.1571L74.9678 19.5747H72.856L71.4515 16.4564L70.0706 19.5747H68.0171L70.306 15.2278L68.1952 11.3892H70.2958L71.4761 14.0114L72.7147 11.3892H74.7682L72.6083 15.1571Z" fill="#1C3666"/>
<path d="M24.7686 4.43299C25.326 4.43299 25.7571 4.55056 26.0619 4.7857C26.3667 5.01648 26.5191 5.36266 26.5191 5.82424C26.5191 6.31629 26.3602 6.68206 26.0423 6.92156C25.7244 7.16105 25.3021 7.2808 24.7752 7.2808H24.2069V8.93332H23.5864V4.43299H24.7686ZM24.749 6.79093C25.1105 6.79093 25.3848 6.72125 25.572 6.58191C25.7636 6.44257 25.8594 6.19219 25.8594 5.83077C25.8594 5.50854 25.7636 5.27557 25.572 5.13188C25.3848 4.98818 25.1148 4.91633 24.7621 4.91633H24.2069V6.79093H24.749ZM28.4445 5.41274C28.9279 5.41274 29.3024 5.57385 29.568 5.89608C29.838 6.21831 29.973 6.65594 29.973 7.20895C29.973 7.56602 29.912 7.88172 29.7901 8.15605C29.6681 8.42602 29.4918 8.63722 29.261 8.78962C29.0302 8.93767 28.7559 9.0117 28.438 9.0117C27.9547 9.0117 27.578 8.85058 27.308 8.52835C27.0381 8.20612 26.9031 7.7685 26.9031 7.21549C26.9031 6.85842 26.964 6.5449 27.086 6.27492C27.2079 6.00059 27.3842 5.7894 27.615 5.64135C27.8458 5.48894 28.1223 5.41274 28.4445 5.41274ZM28.4445 5.89608C27.848 5.89608 27.5497 6.33588 27.5497 7.21549C27.5497 8.09073 27.8458 8.52835 28.438 8.52835C29.0302 8.52835 29.3263 8.08855 29.3263 7.20895C29.3263 6.33371 29.0324 5.89608 28.4445 5.89608ZM34.8977 5.49112L34.1139 8.93332H33.2975L32.6966 6.03325L32.0761 8.93332H31.2792L30.4758 5.49112H31.0767L31.6972 8.51529L32.3765 5.49112H33.0493L33.6959 8.51529L34.323 5.49112H34.8977ZM38.2472 7.11098C38.2472 7.21113 38.2428 7.31346 38.2341 7.41797H36.0395C36.0656 7.79681 36.1614 8.07549 36.3269 8.25402C36.4923 8.43256 36.7057 8.52182 36.967 8.52182C37.1324 8.52182 37.2848 8.49787 37.4242 8.44997C37.5635 8.40208 37.7094 8.32587 37.8618 8.22137L38.1231 8.58061C37.7573 8.868 37.3567 9.0117 36.9212 9.0117C36.4423 9.0117 36.0678 8.85494 35.7978 8.54142C35.5322 8.2279 35.3994 7.79681 35.3994 7.24814C35.3994 6.89108 35.456 6.57538 35.5692 6.30105C35.6868 6.02236 35.8522 5.80464 36.0656 5.64788C36.2833 5.49112 36.5381 5.41274 36.8298 5.41274C37.287 5.41274 37.6376 5.56297 37.8814 5.86343C38.1253 6.16388 38.2472 6.57973 38.2472 7.11098ZM37.6528 6.93462C37.6528 6.59497 37.5853 6.33588 37.4503 6.15735C37.3153 5.97882 37.1128 5.88955 36.8429 5.88955C36.3508 5.88955 36.083 6.25097 36.0395 6.97381H37.6528V6.93462ZM40.7026 5.41274C40.8245 5.41274 40.9377 5.4258 41.0422 5.45193L40.9312 6.03978C40.8267 6.01365 40.7265 6.00059 40.6307 6.00059C40.4174 6.00059 40.2454 6.07897 40.1147 6.23573C39.9841 6.39249 39.8818 6.63634 39.8077 6.96728V8.93332H39.2068V5.49112H39.7228L39.7816 6.19001C39.8731 5.9331 39.9972 5.73932 40.1539 5.60869C40.3107 5.47806 40.4936 5.41274 40.7026 5.41274ZM44.1282 7.11098C44.1282 7.21113 44.1239 7.31346 44.1152 7.41797H41.9205C41.9467 7.79681 42.0425 8.07549 42.2079 8.25402C42.3734 8.43256 42.5868 8.52182 42.848 8.52182C43.0135 8.52182 43.1659 8.49787 43.3053 8.44997C43.4446 8.40208 43.5905 8.32587 43.7429 8.22137L44.0041 8.58061C43.6384 8.868 43.2378 9.0117 42.8023 9.0117C42.3233 9.0117 41.9488 8.85494 41.6789 8.54142C41.4132 8.2279 41.2804 7.79681 41.2804 7.24814C41.2804 6.89108 41.337 6.57538 41.4503 6.30105C41.5678 6.02236 41.7333 5.80464 41.9467 5.64788C42.1644 5.49112 42.4191 5.41274 42.7109 5.41274C43.1681 5.41274 43.5186 5.56297 43.7625 5.86343C44.0063 6.16388 44.1282 6.57973 44.1282 7.11098ZM43.5339 6.93462C43.5339 6.59497 43.4664 6.33588 43.3314 6.15735C43.1964 5.97882 42.9939 5.88955 42.7239 5.88955C42.2319 5.88955 41.9641 6.25097 41.9205 6.97381H43.5339V6.93462ZM47.7528 4.1064V8.93332H47.2238L47.165 8.45651C47.0518 8.63068 46.9102 8.76785 46.7404 8.868C46.5706 8.9638 46.3812 9.0117 46.1722 9.0117C45.7628 9.0117 45.4428 8.85058 45.212 8.52835C44.9856 8.20612 44.8723 7.77286 44.8723 7.22855C44.8723 6.87584 44.9268 6.56232 45.0356 6.28799C45.1445 6.01365 45.3013 5.80029 45.5059 5.64788C45.7106 5.49112 45.9501 5.41274 46.2244 5.41274C46.5771 5.41274 46.8863 5.55426 47.1519 5.8373V4.03455L47.7528 4.1064ZM46.3028 8.53489C46.4857 8.53489 46.6424 8.49352 46.7731 8.41078C46.9037 8.32369 47.03 8.19524 47.1519 8.02541V6.34024C47.0387 6.19219 46.9168 6.08115 46.7861 6.00712C46.6599 5.92874 46.5162 5.88955 46.355 5.88955C46.0894 5.88955 45.8826 6.00059 45.7345 6.22267C45.5908 6.44475 45.519 6.77568 45.519 7.21549C45.519 7.65964 45.5865 7.99058 45.7215 8.2083C45.8565 8.42602 46.0502 8.53489 46.3028 8.53489ZM52.7385 6.55578C53.0477 6.60804 53.298 6.7169 53.4896 6.88237C53.6812 7.04784 53.777 7.30475 53.777 7.65311C53.777 8.50658 53.1826 8.93332 51.9939 8.93332H50.7529V4.43299H51.8175C52.388 4.43299 52.8234 4.52661 53.1239 4.71385C53.4287 4.90109 53.5811 5.18631 53.5811 5.5695C53.5811 5.83077 53.4983 6.04849 53.3329 6.22267C53.1718 6.39685 52.9736 6.50789 52.7385 6.55578ZM51.3734 4.92286V6.34024H52.0527C52.3139 6.34024 52.5273 6.2771 52.6928 6.15082C52.8626 6.02454 52.9475 5.84601 52.9475 5.61522C52.9475 5.35395 52.8582 5.17324 52.6797 5.07309C52.5055 4.97294 52.2399 4.92286 51.8828 4.92286H51.3734ZM51.9939 8.43691C52.3597 8.43691 52.6383 8.38248 52.8299 8.27362C53.0259 8.16476 53.1239 7.95792 53.1239 7.65311C53.1239 7.35701 53.0302 7.14364 52.843 7.013C52.6558 6.88237 52.4119 6.81705 52.1114 6.81705H51.3734V8.43691H51.9939ZM56.0723 8.95291C55.9373 9.35352 55.7478 9.66922 55.504 9.90001C55.2645 10.1351 54.9205 10.2767 54.472 10.3246L54.4067 9.85429C54.6331 9.8151 54.8138 9.75849 54.9488 9.68446C55.0838 9.61044 55.1905 9.51464 55.2689 9.39707C55.3516 9.28385 55.4278 9.12927 55.4975 8.93332H55.295L54.1389 5.49112H54.779L55.6999 8.4957L56.6013 5.49112H57.2218L56.0723 8.95291Z" fill="#1C3666"/>
<defs>
<linearGradient id="paint0_linear_13_20742" x1="2.40002" y1="12.0384" x2="19.2748" y2="12.0384" gradientUnits="userSpaceOnUse">
<stop stop-color="#27A8E0"/>
<stop offset="1" stop-color="#204496"/>
</linearGradient>
</defs>
</svg>
