<svg width="24" height="25" viewBox="0 0 24 25" fill="none" xmlns="http://www.w3.org/2000/svg">
<path d="M2.72192 8.38464V17.6598C2.72338 17.8754 2.78086 18.0869 2.88875 18.2737C2.99663 18.4605 3.15123 18.6162 3.33744 18.7255L11.3845 23.3586C11.572 23.4655 11.7841 23.5218 12 23.5218C12.216 23.5218 12.4281 23.4655 12.6156 23.3586L20.6626 18.7255C20.8489 18.6162 21.0035 18.4605 21.1113 18.2737C21.2192 18.0869 21.2767 17.8754 21.2782 17.6598V8.38464C21.2767 8.16906 21.2192 7.95755 21.1113 7.77076C21.0035 7.58397 20.8489 7.4283 20.6626 7.31895L12.6156 2.68587C12.4281 2.57894 12.216 2.52271 12 2.52271C11.7841 2.52271 11.572 2.57894 11.3845 2.68587L3.33744 7.31895C3.15123 7.4283 2.99663 7.58397 2.88875 7.77076C2.78086 7.95755 2.72338 8.16906 2.72192 8.38464Z" fill="#1C3666"/>
<path d="M7.91771 11.3923L5.4375 18.4458H7.29313L7.79098 16.8563H10.2078L10.7057 18.4458H12.5975L10.1263 11.3923H7.91771ZM8.13494 15.6009L9.04012 12.7561L9.94531 15.6009H8.13494Z" fill="white"/>
<path d="M18.5627 14.3274H16.6075V12.1509H15.1592V14.3274H13.1859V15.6279H15.1592V17.8045H16.6075V15.6279H18.5627V14.3274Z" fill="white"/>
<path d="M8.94955 9.26988H9.34783L9.89998 10.173H10.6332L9.96335 9.13439C10.0609 9.10083 10.1526 9.05208 10.2349 8.98991C10.3196 8.9162 10.3865 8.82423 10.4304 8.72097C10.4743 8.61771 10.4941 8.50586 10.4884 8.39384C10.4923 8.28382 10.4706 8.17438 10.4251 8.0741C10.3795 7.97383 10.3113 7.88543 10.2258 7.81582C10.0218 7.65927 9.7676 7.58223 9.51076 7.59908H8.28876V10.173H8.94955V9.26988ZM8.94955 8.14097H9.42024C9.52333 8.13356 9.62579 8.1623 9.7099 8.22225C9.74527 8.25163 9.77284 8.28922 9.7902 8.33175C9.80757 8.37427 9.81419 8.42041 9.80947 8.46608C9.81492 8.51315 9.80869 8.56084 9.79132 8.60494C9.77396 8.64903 9.746 8.68818 9.7099 8.71896C9.62281 8.77151 9.52187 8.7967 9.42024 8.79122H8.94955V8.14097Z" fill="white"/>
<path d="M11.6471 9.16155H12.7061V8.68289H11.6471V8.15907H12.9777V7.64429H10.9772V10.2092H13.032V9.68537H11.6471V9.16155Z" fill="white"/>
<path d="M13.8648 10.0918C14.0499 10.1954 14.2591 10.2484 14.4713 10.2454C14.6661 10.2579 14.8598 10.2072 15.0234 10.1008C15.106 10.0424 15.1767 9.9689 15.2316 9.8841V10.2092H15.6842V8.83647H14.5256V9.28803H15.1139C15.1286 9.35041 15.1286 9.41531 15.1139 9.47768C15.0882 9.53027 15.0511 9.57652 15.0053 9.61315C14.9565 9.64799 14.9011 9.67258 14.8424 9.68541C14.7733 9.69482 14.7033 9.69482 14.6342 9.68541C14.5113 9.69073 14.3893 9.66264 14.2812 9.60414C14.1834 9.53731 14.1078 9.44299 14.0639 9.33318C14.0128 9.18511 13.9882 9.02919 13.9915 8.8726C13.9889 8.7249 14.0135 8.57797 14.0639 8.43909C14.1044 8.32992 14.177 8.23549 14.2721 8.16816C14.3704 8.10872 14.4831 8.07747 14.598 8.07784C14.7102 8.07618 14.8204 8.1076 14.9148 8.16816C15.0093 8.23847 15.0739 8.34158 15.0959 8.45714L15.7204 8.2133C15.6377 8.00801 15.4919 7.83414 15.304 7.71659C15.0878 7.59959 14.8438 7.54338 14.598 7.554C14.3584 7.5479 14.1214 7.60393 13.91 7.71659C13.7198 7.81888 13.5652 7.97633 13.4665 8.16816C13.3525 8.38837 13.2964 8.63386 13.3036 8.88161C13.298 9.1311 13.3506 9.37848 13.4574 9.60414C13.5389 9.80513 13.6813 9.97567 13.8648 10.0918Z" fill="white"/>
</svg>
