<svg width="24" height="25" viewBox="0 0 24 25" fill="none" xmlns="http://www.w3.org/2000/svg">
<g clip-path="url(#clip0_209_6480)">
<path d="M3 8.25407V17.8363C2.99813 18.0056 3.04024 18.1723 3.12203 18.3193C3.20381 18.4664 3.32231 18.5885 3.46536 18.6731L11.5346 23.4417C11.6777 23.5254 11.8396 23.5693 12.0044 23.5693C12.1691 23.5693 12.331 23.5254 12.4741 23.4417L20.5346 18.6731C20.6777 18.5885 20.7962 18.4664 20.878 18.3193C20.9597 18.1723 21.0019 18.0056 21 17.8363V8.29905C21.0003 8.13132 20.9574 7.9665 20.8757 7.82117C20.794 7.67584 20.6764 7.55516 20.5346 7.4713L12.4741 2.69366C12.331 2.61004 12.1691 2.56604 12.0044 2.56604C11.8396 2.56604 11.6777 2.61004 11.5346 2.69366L3.46536 7.4713C3.32988 7.55123 3.21622 7.66484 3.13489 7.80164C3.05356 7.93845 3.00717 8.09404 3 8.25407Z" fill="#1C3666"/>
<path d="M12.0176 16.1898C11.9144 16.6157 11.7092 17.0084 11.4205 17.3325C11.1518 17.6327 10.8136 17.8586 10.4371 17.9893C10.0309 18.1344 9.60278 18.2044 9.17269 18.1962C8.58065 18.2106 7.99468 18.0713 7.46927 17.7913C6.9945 17.5197 6.60938 17.1094 6.36293 16.6127C6.11385 16.0313 5.98523 15.4032 5.98523 14.7682C5.98523 14.1332 6.11385 13.5051 6.36293 12.9237C6.60938 12.427 6.9945 12.0167 7.46927 11.7451C7.99206 11.4666 8.57483 11.3273 9.16391 11.3402C9.58949 11.3359 10.0131 11.3996 10.4195 11.5291C10.7804 11.6501 11.1082 11.8567 11.3766 12.1319C11.6528 12.4212 11.847 12.782 11.9385 13.1757L10.4546 13.7875C10.4131 13.4558 10.2537 13.1514 10.0068 12.9327C9.77725 12.7715 9.5035 12.6896 9.22537 12.6988C8.93947 12.6934 8.6584 12.7747 8.41756 12.9327C8.18216 13.1064 8.00196 13.3474 7.89952 13.6255C7.76633 13.9906 7.7037 14.3786 7.71512 14.7682C7.70889 15.1559 7.76527 15.542 7.88195 15.9109C7.97498 16.1917 8.15349 16.4345 8.39122 16.6037C8.65359 16.772 8.96011 16.8537 9.26927 16.8376C9.5583 16.8467 9.84123 16.7511 10.0683 16.5677C10.3066 16.3569 10.465 16.0672 10.5161 15.7489L12.0176 16.1898Z" fill="white"/>
<path d="M18.0234 12.7798H14.6605V14.2373H17.2946V15.578H14.6605V18.1422H12.9659V11.4841H18.0234V12.7798Z" fill="white"/>
<path d="M10.3756 9.19876C10.4552 9.12994 10.5175 9.04252 10.5572 8.94387C10.597 8.84522 10.613 8.73823 10.6039 8.63192C10.6095 8.52994 10.5917 8.42807 10.5521 8.33436C10.5124 8.24064 10.452 8.1577 10.3756 8.0921C10.1869 7.94546 9.95358 7.87212 9.71709 7.88515H8.58441V10.3145H9.19027V9.41472H9.55905L10.0683 10.3145H10.7444L10.1298 9.33372C10.2179 9.30164 10.3008 9.25615 10.3756 9.19876ZM9.19027 8.36201H9.62929C9.72515 8.35607 9.8204 8.38125 9.90148 8.43398C9.93097 8.46473 9.95397 8.50137 9.96908 8.54161C9.98418 8.58185 9.99105 8.62484 9.98928 8.66792C9.99218 8.71111 9.98583 8.75445 9.97066 8.79486C9.95549 8.83527 9.93188 8.87178 9.90148 8.90186C9.82209 8.95848 9.72551 8.98401 9.62929 8.97383H9.19027V8.36201Z" fill="white"/>
<path d="M11.6751 9.32472H12.6498V8.86585H11.6751V8.37099H12.8956V7.88513H11.0605V10.3144H12.9483V9.81958H11.6751V9.32472Z" fill="white"/>
<path d="M14.3532 9.00081V9.42369H14.8976C14.9085 9.48315 14.9085 9.54419 14.8976 9.60365C14.8722 9.65329 14.8362 9.69636 14.7922 9.7296C14.7491 9.76602 14.6978 9.79078 14.6429 9.8016C14.5789 9.81095 14.5138 9.81095 14.4498 9.8016C14.3363 9.80497 14.2241 9.777 14.1249 9.72062C14.0341 9.66199 13.9658 9.57299 13.9317 9.4687C13.8828 9.33034 13.859 9.18395 13.8615 9.03681C13.8587 8.8955 13.8825 8.75497 13.9317 8.62293C13.9678 8.52231 14.0319 8.43472 14.1161 8.37101C14.2065 8.308 14.3142 8.27645 14.4234 8.28103C14.5272 8.27638 14.6294 8.30812 14.7132 8.37101C14.7985 8.4376 14.8577 8.53337 14.88 8.64092L15.4507 8.40698C15.374 8.21273 15.2386 8.04878 15.0644 7.93912C14.8649 7.8299 14.6406 7.77709 14.4146 7.78615C14.1949 7.78338 13.9778 7.83591 13.7824 7.93912C13.6083 8.03787 13.4674 8.18848 13.3785 8.37101C13.275 8.57657 13.2236 8.80555 13.2293 9.03681C13.2252 9.27268 13.2733 9.50644 13.3698 9.72062C13.4517 9.89696 13.5832 10.0442 13.7473 10.1435C13.9185 10.2426 14.1127 10.2923 14.3093 10.2874C14.4885 10.2968 14.6662 10.2497 14.8185 10.1525C14.8958 10.0975 14.9615 10.0271 15.0117 9.94556V10.2515H15.4332V8.93782L14.3532 9.00081Z" fill="white"/>
</g>
<defs>
<clipPath id="clip0_209_6480">
<rect width="18" height="21" fill="white" transform="translate(3 2.52271)"/>
</clipPath>
</defs>
</svg>
