<svg width="24" height="25" viewBox="0 0 24 25" fill="none" xmlns="http://www.w3.org/2000/svg">
<g clip-path="url(#clip0_209_636)">
<path d="M3.00001 8.36124V17.6835C2.99936 17.8901 3.0518 18.0932 3.15202 18.2723C3.25224 18.4513 3.39667 18.6 3.57073 18.7033L11.4732 23.369C11.647 23.4711 11.8437 23.5248 12.0439 23.5248C12.2441 23.5248 12.4408 23.4711 12.6146 23.369L20.4732 18.7033C20.6472 18.6 20.7917 18.4513 20.8919 18.2723C20.9921 18.0932 21.0445 17.8901 21.0439 17.6835V8.36124C21.0445 8.15466 20.9921 7.95157 20.8919 7.7725C20.7917 7.59344 20.6472 7.44475 20.4732 7.34146L12.6146 2.67582C12.4408 2.57372 12.2441 2.52002 12.0439 2.52002C11.8437 2.52002 11.647 2.57372 11.4732 2.67582L3.57073 7.34146C3.39667 7.44475 3.25224 7.59344 3.15202 7.7725C3.0518 7.95157 2.99936 8.15466 3.00001 8.36124Z" fill="#1C3666"/>
<path d="M11.798 11.457C12.2338 11.4304 12.6702 11.4969 13.0797 11.6522C13.4893 11.8075 13.863 12.0483 14.1775 12.3595C14.713 13.08 15.0031 13.9616 15.0031 14.8683C15.0031 15.775 14.713 16.6565 14.1775 17.3771C13.863 17.6882 13.4893 17.929 13.0797 18.0843C12.6702 18.2397 12.2338 18.3061 11.798 18.2795H8.99704V11.457H11.798ZM11.6312 16.8717C11.8607 16.8933 12.0919 16.857 12.3046 16.7657C12.5174 16.6745 12.7052 16.5312 12.8517 16.3483C13.1054 15.879 13.2385 15.351 13.2385 14.8141C13.2385 14.2773 13.1054 13.7493 12.8517 13.28C12.7052 13.0971 12.5174 12.9537 12.3046 12.8625C12.0919 12.7713 11.8607 12.7349 11.6312 12.7565H10.7531V16.8717H11.6312Z" fill="white"/>
<path d="M10.3492 9.17372C10.4239 9.10119 10.4834 9.01375 10.524 8.91677C10.5647 8.81979 10.5857 8.71529 10.5857 8.60969C10.5857 8.50409 10.5647 8.3996 10.524 8.30262C10.4834 8.20563 10.4239 8.1182 10.3492 8.04566C10.1571 7.89864 9.9211 7.82524 9.68192 7.83812H8.53168V10.3108H9.14632V9.40837H9.52388L10.0331 10.3108H10.7268L10.1034 9.30909C10.1937 9.28227 10.2775 9.23614 10.3492 9.17372ZM9.14632 8.32542H9.59411C9.68986 8.32065 9.78478 8.34584 9.86633 8.39763C9.89793 8.42879 9.92224 8.46689 9.93745 8.50909C9.95265 8.55129 9.95834 8.59649 9.95411 8.64128C9.95903 8.68478 9.95362 8.72884 9.93833 8.7697C9.92304 8.81057 9.89833 8.84703 9.86633 8.87593C9.78631 8.9313 9.69021 8.95677 9.59411 8.94811H9.14632V8.32542Z" fill="white"/>
<path d="M11.6664 9.30913H12.6586V8.83985H11.6664V8.34351H12.9132V7.83813H11.043V10.3108H12.9571V9.8145H11.6664V9.30913Z" fill="white"/>
<path d="M14.3883 8.97524V9.40843H14.9854C14.9868 9.47155 14.9716 9.53387 14.9415 9.5889C14.9248 9.64139 14.8906 9.68614 14.8449 9.71526C14.798 9.75285 14.7443 9.78046 14.6869 9.79647C14.6228 9.8065 14.5577 9.8065 14.4937 9.79647C14.3788 9.80241 14.2651 9.77082 14.1688 9.70622C14.0752 9.64842 14.0038 9.55916 13.9669 9.45354C13.918 9.31162 13.8942 9.16187 13.8966 9.01135C13.8948 8.86675 13.9186 8.72303 13.9669 8.5872C14.0033 8.48393 14.071 8.39538 14.16 8.33451C14.2498 8.2701 14.358 8.23833 14.4673 8.24426C14.5738 8.23966 14.6788 8.2714 14.7659 8.33451C14.8512 8.4013 14.9105 8.49736 14.9327 8.60524L15.5122 8.37062C15.4327 8.17247 15.2944 8.00511 15.1171 7.89232C14.9144 7.78284 14.6873 7.72992 14.4586 7.73889C14.2359 7.73499 14.0157 7.78771 13.8176 7.89232C13.6405 7.99455 13.4969 8.14843 13.4049 8.33451C13.3013 8.54713 13.25 8.78265 13.2556 9.02038C13.2516 9.25696 13.2996 9.4914 13.3961 9.70622C13.4812 9.88615 13.6155 10.0367 13.7825 10.1394C13.9569 10.2387 14.1539 10.2886 14.3532 10.2838C14.5324 10.2932 14.7101 10.246 14.8625 10.1484C14.9466 10.0951 15.0162 10.0206 15.0644 9.93184V10.2477H15.4859V8.91206L14.3883 8.97524Z" fill="white"/>
</g>
<defs>
<clipPath id="clip0_209_636">
<rect width="18" height="21" fill="white" transform="translate(3 2.52271)"/>
</clipPath>
</defs>
</svg>
