<svg width="32" height="32" viewBox="0 0 32 32" fill="none" xmlns="http://www.w3.org/2000/svg">
<rect width="32" height="32" rx="10" fill="#0084F8"/>
<path d="M19.999 12.5H21.999C21.999 9.663 19.244 8.369 16.999 8.071V6H14.999V8.071C12.754 8.369 9.99902 9.663 9.99902 12.5C9.99902 15.206 12.665 16.613 14.999 16.93V21.9C13.551 21.649 11.999 20.876 11.999 19.5H9.99902C9.99902 22.089 12.424 23.619 14.999 23.936V24.999V26H16.999V24.999V23.93C19.244 23.632 21.999 22.337 21.999 19.5C21.999 16.663 19.244 15.369 16.999 15.071V10.1C18.329 10.339 19.999 11.041 19.999 12.5ZM11.999 12.5C11.999 11.041 13.669 10.339 14.999 10.1V14.899C13.628 14.646 11.999 13.897 11.999 12.5ZM19.999 19.5C19.999 20.959 18.329 21.661 16.999 21.9V17.1C18.329 17.339 19.999 18.041 19.999 19.5Z" fill="white"/>
</svg>
