<svg width="33" height="32" viewBox="0 0 33 32" fill="none" xmlns="http://www.w3.org/2000/svg">
<rect x="0.666656" width="32" height="32" rx="10" fill="#0084F8"/>
<path d="M24.9607 12.292L20.6607 16.584L19.3687 15.292L17.9547 16.706L20.6607 19.41L26.3727 13.708L24.9607 12.292ZM8.66666 12C8.66666 14.28 10.3867 16 12.6667 16C14.9467 16 16.6667 14.28 16.6667 12C16.6667 9.72 14.9467 8 12.6667 8C10.3867 8 8.66666 9.72 8.66666 12ZM14.6667 12C14.6667 13.178 13.8447 14 12.6667 14C11.4887 14 10.6667 13.178 10.6667 12C10.6667 10.822 11.4887 10 12.6667 10C13.8447 10 14.6667 10.822 14.6667 12ZM8.66666 22C8.66666 20.346 10.0127 19 11.6667 19H13.6667C15.3207 19 16.6667 20.346 16.6667 22V23H18.6667V22C18.6667 19.243 16.4237 17 13.6667 17H11.6667C8.90966 17 6.66666 19.243 6.66666 22V23H8.66666V22Z" fill="white"/>
</svg>
