<svg width="33" height="32" viewBox="0 0 33 32" fill="none" xmlns="http://www.w3.org/2000/svg">
<rect x="0.333313" width="32" height="32" rx="10" fill="#0084F8"/>
<path d="M24.2363 12.586C24.1873 12.48 24.1263 12.379 24.0403 12.293L18.0403 6.293C17.9543 6.207 17.8533 6.146 17.7473 6.097C17.7173 6.083 17.6853 6.075 17.6533 6.064C17.5693 6.036 17.4833 6.018 17.3943 6.013C17.3733 6.011 17.3543 6 17.3333 6H10.3333C9.23031 6 8.33331 6.897 8.33331 8V24C8.33331 25.103 9.23031 26 10.3333 26H22.3333C23.4363 26 24.3333 25.103 24.3333 24V13C24.3333 12.979 24.3223 12.96 24.3203 12.938C24.3153 12.849 24.2983 12.763 24.2693 12.679C24.2593 12.647 24.2503 12.616 24.2363 12.586ZM20.9193 12H18.3333V9.414L20.9193 12ZM10.3333 24V8H16.3333V13C16.3333 13.553 16.7803 14 17.3333 14H22.3333L22.3353 24H10.3333Z" fill="white"/>
<path d="M12.3333 16H20.3333V18H12.3333V16ZM12.3333 20H20.3333V22H12.3333V20ZM12.3333 12H14.3333V14H12.3333V12Z" fill="white"/>
</svg>
