<svg width="414" height="81" viewBox="0 0 414 81" fill="none" xmlns="http://www.w3.org/2000/svg">
<g clip-path="url(#clip0_13_10273)">
<g clip-path="url(#clip1_13_10273)">
<path d="M485.148 0.733739L27.0996 -122L-41.9381 135.652L416.11 258.386L485.148 0.733739Z" fill="#FFE595"/>
<path d="M344.795 50.0012L342.778 47.9878C343.697 46.2898 344.203 44.3996 344.256 42.4698L347.01 41.7349C347.178 41.6912 347.336 41.6148 347.474 41.5101C347.612 41.4054 347.729 41.2745 347.816 41.1248C347.904 40.9752 347.961 40.8097 347.985 40.6379C348.008 40.4661 347.998 40.2913 347.954 40.1236L346.805 35.8218C346.761 35.6539 346.684 35.4962 346.58 35.3579C346.475 35.2195 346.344 35.1032 346.194 35.0156C346.044 34.9279 345.878 34.8707 345.706 34.8471C345.534 34.8235 345.359 34.834 345.191 34.8781L342.437 35.6154C341.427 33.972 340.046 32.588 338.406 31.5743L339.139 28.8379C339.229 28.5001 339.182 28.14 339.007 27.8371C338.832 27.5342 338.544 27.3131 338.206 27.2226L333.912 26.072C333.574 25.9815 333.214 26.0289 332.911 26.2037C332.608 26.3786 332.387 26.6667 332.297 27.0046L331.561 29.7505C329.633 29.8087 327.746 30.317 326.049 31.2346L324.033 29.2188C323.909 29.0967 323.763 29.0001 323.602 28.9346C323.441 28.869 323.269 28.8357 323.096 28.8367C322.922 28.8377 322.75 28.8729 322.59 28.9402C322.43 29.0076 322.285 29.1058 322.163 29.2293L319.018 32.3804C318.896 32.5037 318.799 32.6498 318.734 32.8103C318.668 32.9709 318.635 33.1428 318.636 33.3163C318.637 33.4897 318.672 33.6612 318.74 33.821C318.807 33.9807 318.905 34.1257 319.029 34.2474L321.046 36.2608C320.127 37.9588 319.621 39.849 319.568 41.7789L316.814 42.5138C316.646 42.5575 316.488 42.6339 316.35 42.7386C316.212 42.8432 316.096 42.9742 316.008 43.1238C315.92 43.2735 315.863 43.439 315.84 43.6108C315.816 43.7826 315.827 43.9574 315.871 44.1251L317.019 48.4268C317.063 48.5948 317.14 48.7524 317.245 48.8908C317.349 49.0291 317.481 49.1455 317.63 49.2331C317.78 49.3207 317.946 49.378 318.118 49.4016C318.29 49.4252 318.465 49.4147 318.633 49.3706L321.387 48.6357C322.397 50.2779 323.778 51.661 325.419 52.6744L324.685 55.4131C324.594 55.751 324.642 56.111 324.816 56.4139C324.991 56.7169 325.279 56.9379 325.617 57.0284L329.911 58.1791C330.249 58.2696 330.609 58.2222 330.912 58.0473C331.215 57.8724 331.436 57.5843 331.527 57.2465L332.266 54.4886C334.193 54.4318 336.081 53.9243 337.777 53.0069L339.794 55.0203C339.918 55.1424 340.064 55.239 340.225 55.3046C340.385 55.3701 340.557 55.4034 340.731 55.4024C340.905 55.4014 341.076 55.3663 341.236 55.2989C341.396 55.2315 341.541 55.1333 341.664 55.0098L344.809 51.8587C345.052 51.6099 345.187 51.275 345.185 50.9271C345.182 50.5792 345.042 50.2464 344.795 50.0012ZM330.516 47.2591C329.496 46.986 328.581 46.4168 327.885 45.6234C327.19 44.83 326.745 43.848 326.607 42.8018C326.47 41.7556 326.645 40.6921 327.112 39.7457C327.579 38.7994 328.316 38.0128 329.23 37.4854C330.144 36.958 331.194 36.7135 332.247 36.7828C333.3 36.8521 334.309 37.2322 335.146 37.8748C335.983 38.5175 336.61 39.3939 336.949 40.3933C337.288 41.3927 337.322 42.4701 337.049 43.4892C336.682 44.8553 335.788 46.0199 334.563 46.7268C333.338 47.4338 331.882 47.6252 330.516 47.2591Z" fill="#0084F8"/>
<path d="M133.098 60.9522L99.0497 51.829" stroke="#0084F8" stroke-width="1.27443" stroke-miterlimit="10" stroke-linecap="round"/>
<path d="M103.717 51.7319L103.043 54.2488C102.942 54.6262 102.743 54.9702 102.467 55.2463C102.19 55.5224 101.846 55.7207 101.468 55.8213L98.9528 56.4973C98.5759 56.5983 98.1791 56.5983 97.8022 56.4973C97.4253 56.3963 97.0816 56.1979 96.8057 55.922L94.9651 54.0788C94.6885 53.8029 94.4895 53.4589 94.3881 53.0817C94.2868 52.7044 94.2867 52.307 94.3878 51.9296L95.0622 49.4128C95.1633 49.0354 95.3621 48.6914 95.6385 48.4153C95.9149 48.1392 96.2592 47.9409 96.6367 47.8402L99.1523 47.1642C99.5292 47.0632 99.9261 47.0632 100.303 47.1642C100.68 47.2652 101.024 47.4636 101.299 47.7395L103.14 49.5828C103.417 49.8587 103.616 50.2026 103.717 50.5799C103.818 50.9572 103.818 51.3545 103.717 51.7319Z" fill="#FFE595" stroke="#0084F8" stroke-width="1.27443" stroke-miterlimit="10"/>
<path d="M312.134 80.9337L346.183 90.0569" stroke="#0084F8" stroke-width="1.27443" stroke-miterlimit="10" stroke-linecap="round"/>
<path d="M329.484 51.1096L306.489 136.927C305.453 140.802 303.414 144.336 300.578 147.174C297.743 150.011 294.21 152.051 290.335 153.09L204.523 176.071C200.65 177.108 196.572 177.108 192.7 176.071C188.827 175.033 185.295 172.994 182.46 170.159L119.635 107.351C116.799 104.514 114.76 100.981 113.723 97.1057C112.685 93.2306 112.687 89.1507 113.727 85.2764L136.722 -0.540834C137.76 -4.41353 139.799 -7.94483 142.634 -10.7799C145.469 -13.6149 149 -15.6539 152.873 -16.6918L238.688 -39.6845C242.561 -40.7223 246.638 -40.7223 250.511 -39.6845C254.384 -38.6468 257.915 -36.608 260.75 -33.7729L323.572 29.0469C326.407 31.8822 328.446 35.4136 329.483 39.2864C330.521 43.1591 330.521 47.2368 329.484 51.1096Z" fill="#FFE595" stroke="#0084F8" stroke-width="1.27443" stroke-miterlimit="10"/>
<path d="M453.179 27.9011L449.558 41.4135C449.277 42.4599 448.726 43.4139 447.96 44.1799C447.194 44.9458 446.239 45.4966 445.193 45.777L431.692 49.4034C430.645 49.6839 429.543 49.6839 428.496 49.4034C427.449 49.1228 426.494 48.5717 425.728 47.8053L415.827 37.9009C415.062 37.1346 414.511 36.1804 414.231 35.1341C413.951 34.0878 413.951 32.9862 414.231 31.9399L417.85 18.4346C418.13 17.3884 418.681 16.4344 419.447 15.6684C420.213 14.9023 421.166 14.3512 422.213 14.0704L435.728 10.4479C436.775 10.1674 437.877 10.1674 438.924 10.4479C439.971 10.7284 440.925 11.2796 441.692 12.046L451.571 21.9369C452.339 22.7022 452.892 23.6564 453.174 24.7034C453.457 25.7504 453.458 26.8533 453.179 27.9011Z" fill="#FFE595" stroke="#0084F8" stroke-width="1.27443" stroke-miterlimit="10"/>
<path d="M84.3241 18.5651L82.756 24.4171C82.5976 25.0078 82.2867 25.5465 81.8544 25.9791C81.4221 26.4117 80.8836 26.723 80.293 26.8818L74.4391 28.4506C73.8486 28.6078 73.2271 28.6073 72.6368 28.4491C72.0466 28.2909 71.5081 27.9807 71.0753 27.5493L66.7901 23.2637C66.358 22.8309 66.0473 22.292 65.8892 21.7012C65.7311 21.1105 65.7312 20.4885 65.8894 19.8977L67.4574 14.0457C67.6158 13.455 67.9267 12.9163 68.3591 12.4837C68.7914 12.0511 69.3298 11.7398 69.9205 11.581L75.7737 10.0146C76.3642 9.85612 76.9859 9.856 77.5765 10.0142C78.167 10.1725 78.7054 10.4835 79.1375 10.9159L83.4233 15.1991C83.8554 15.6319 84.1661 16.1708 84.3242 16.7616C84.4823 17.3523 84.4823 17.9743 84.3241 18.5651Z" fill="#FFE595" stroke="#0084F8" stroke-width="1.27443" stroke-miterlimit="10"/>
<path d="M33.5345 1.99262L32.8601 4.50951C32.7592 4.8867 32.5609 5.23068 32.2849 5.50685C32.0089 5.78302 31.665 5.98162 31.2879 6.08267L28.7723 6.75868C28.3954 6.85966 27.9985 6.85967 27.6216 6.75868C27.2447 6.65769 26.9011 6.45927 26.6252 6.18336L24.7846 4.3401C24.508 4.06421 24.309 3.72029 24.2076 3.343C24.1062 2.9657 24.1061 2.56835 24.2072 2.19099L24.8816 -0.325897C24.9824 -0.703776 25.1811 -1.04837 25.4577 -1.32489C25.7343 -1.60141 26.0789 -1.80007 26.4568 -1.90081L28.9718 -2.57443C29.3487 -2.67542 29.7455 -2.67542 30.1224 -2.57443C30.4993 -2.47344 30.843 -2.27502 31.1189 -1.99911L32.9601 -0.158244C33.2365 0.118129 33.4351 0.462488 33.536 0.84011C33.6368 1.21773 33.6363 1.61526 33.5345 1.99262Z" fill="#0084F8"/>
<path d="M155.859 3.063C155.36 2.92924 154.832 2.94651 154.343 3.11264C153.853 3.27877 153.424 3.58628 153.109 3.9963C152.795 4.40632 152.609 4.90043 152.575 5.41614C152.541 5.93185 152.661 6.446 152.92 6.89358C153.178 7.34116 153.563 7.70206 154.027 7.93064C154.49 8.15923 155.011 8.24522 155.524 8.17776C156.036 8.1103 156.517 7.89242 156.905 7.55166C157.294 7.2109 157.573 6.76257 157.707 6.26336C157.884 5.59402 157.789 4.8817 157.443 4.28204C157.097 3.68237 156.527 3.2441 155.859 3.063ZM157.888 -4.50911C157.388 -4.64293 156.86 -4.62558 156.371 -4.45927C155.881 -4.29296 155.452 -3.98517 155.138 -3.57483C154.823 -3.1645 154.637 -2.67007 154.604 -2.15412C154.57 -1.63818 154.691 -1.1239 154.95 -0.676389C155.209 -0.228875 155.595 0.131764 156.059 0.359891C156.522 0.588018 157.044 0.673374 157.556 0.605161C158.069 0.536949 158.549 0.318232 158.938 -0.0233102C159.326 -0.364853 159.604 -0.813866 159.737 -1.31353C159.913 -1.98238 159.817 -2.69362 159.471 -3.29222C159.124 -3.89082 158.555 -4.32824 157.888 -4.50911ZM153.83 10.6351C153.331 10.5014 152.803 10.5186 152.314 10.6848C151.824 10.8509 151.395 11.1584 151.08 11.5684C150.766 11.9784 150.58 12.4725 150.546 12.9883C150.512 13.504 150.632 14.0181 150.891 14.4657C151.149 14.9133 151.534 15.2742 151.998 15.5028C152.461 15.7313 152.982 15.8173 153.495 15.7499C154.007 15.6824 154.488 15.4645 154.876 15.1238C155.265 14.783 155.544 14.3347 155.678 13.8355C155.855 13.1661 155.76 12.4538 155.414 11.8541C155.068 11.2545 154.498 10.8162 153.83 10.6351Z" fill="#0084F8"/>
<path d="M384.882 12.9349C384.161 12.7422 383.399 12.7676 382.692 13.0079C381.986 13.2482 381.366 13.6926 380.912 14.2849C380.458 14.8772 380.19 15.5908 380.141 16.3355C380.093 17.0802 380.266 17.8226 380.64 18.4688C381.013 19.115 381.57 19.636 382.239 19.9659C382.908 20.2958 383.661 20.4199 384.401 20.3223C385.141 20.2248 385.835 19.9101 386.396 19.418C386.957 18.9258 387.36 18.2784 387.553 17.5575C387.808 16.5905 387.671 15.5615 387.171 14.6953C386.67 13.8292 385.847 13.1963 384.882 12.9349V12.9349ZM387.813 1.99656C387.091 1.80325 386.329 1.82821 385.621 2.06829C384.914 2.30837 384.294 2.75279 383.839 3.34534C383.385 3.9379 383.116 4.65197 383.067 5.39726C383.018 6.14256 383.191 6.8856 383.565 7.53243C383.938 8.17926 384.495 8.70083 385.165 9.03117C385.835 9.36151 386.588 9.48579 387.328 9.38831C388.069 9.29082 388.764 8.97593 389.325 8.48347C389.887 7.99101 390.29 7.34308 390.483 6.62164C390.739 5.65431 390.603 4.62478 390.102 3.7581C389.602 2.89142 388.779 2.25809 387.813 1.99656ZM381.951 23.8708C381.23 23.6775 380.467 23.7024 379.76 23.9425C379.053 24.1826 378.433 24.627 377.978 25.2195C377.523 25.8121 377.255 26.5262 377.206 27.2715C377.157 28.0168 377.33 28.7598 377.704 29.4066C378.077 30.0535 378.634 30.575 379.304 30.9054C379.974 31.2357 380.727 31.36 381.467 31.2625C382.208 31.165 382.902 30.8501 383.464 30.3577C384.026 29.8652 384.428 29.2173 384.622 28.4958C384.878 27.5285 384.741 26.499 384.241 25.6323C383.741 24.7656 382.917 24.1323 381.951 23.8708Z" stroke="#0084F8" stroke-width="1.27443" stroke-miterlimit="10"/>
<path d="M28.5479 124.686L24.634 120.761C26.4177 117.456 27.4028 113.779 27.5106 110.026L32.8608 108.59C33.5185 108.414 34.0793 107.984 34.42 107.394C34.7606 106.805 34.8532 106.104 34.6775 105.446L32.431 97.0634C32.2543 96.406 31.8238 95.8456 31.2341 95.5054C30.6445 95.1653 29.9439 95.0731 29.2863 95.2491L23.929 96.6825C21.9582 93.4808 19.2655 90.7847 16.0663 88.8098L17.4995 83.4611C17.6758 82.8031 17.5835 82.102 17.2429 81.512C16.9023 80.922 16.3412 80.4915 15.6832 80.3152L7.30474 78.0702C6.97891 77.9826 6.639 77.96 6.30446 78.0039C5.96991 78.0478 5.64731 78.1572 5.35511 78.3259C5.0629 78.4946 4.80684 78.7193 4.60157 78.9871C4.39629 79.2549 4.24585 79.5605 4.15883 79.8865L2.72694 85.2304C-1.03112 85.3408 -4.71115 86.3294 -8.01865 88.117L-11.9398 84.2C-12.4216 83.7186 -13.0748 83.448 -13.7559 83.4476C-14.437 83.4473 -15.0905 83.7173 -15.5728 84.1982L-21.7096 90.3347C-22.1907 90.8165 -22.4608 91.4696 -22.4606 92.1505C-22.4604 92.8314 -22.1898 93.4844 -21.7084 93.9659L-17.7909 97.887C-19.5775 101.191 -20.5628 104.868 -20.6674 108.623L-26.0219 110.064C-26.6799 110.241 -27.2409 110.672 -27.5816 111.262C-27.9224 111.852 -28.015 112.553 -27.8392 113.211L-25.5922 121.591C-25.505 121.917 -25.3544 122.223 -25.1491 122.491C-24.9437 122.758 -24.6877 122.983 -24.3955 123.152C-24.1033 123.321 -23.7807 123.43 -23.4461 123.474C-23.1116 123.518 -22.7716 123.496 -22.4457 123.409L-17.0907 121.974C-15.1207 125.176 -12.4276 127.872 -9.22746 129.845L-10.6606 135.193C-10.7479 135.519 -10.7702 135.859 -10.7262 136.194C-10.6821 136.528 -10.5727 136.85 -10.404 137.143C-10.2354 137.435 -10.0108 137.691 -9.74321 137.896C-9.4756 138.101 -9.17016 138.252 -8.84433 138.339L-0.46348 140.585C-0.137658 140.672 0.202171 140.695 0.536601 140.651C0.871031 140.607 1.19351 140.497 1.48563 140.328C1.77776 140.16 2.0338 139.935 2.23915 139.668C2.44449 139.4 2.59512 139.095 2.68242 138.769L4.11623 133.418C7.87403 133.309 11.554 132.321 14.8612 130.533L18.7841 134.453C19.0225 134.692 19.3056 134.881 19.6172 135.01C19.9287 135.139 20.2627 135.206 20.5999 135.205C20.9372 135.205 21.2711 135.139 21.5826 135.01C21.8941 134.88 22.177 134.691 22.4153 134.452L28.5532 128.321C29.0343 127.838 29.304 127.184 29.303 126.503C29.302 125.821 29.0304 125.168 28.5479 124.686V124.686ZM0.73048 119.363C-1.25478 118.831 -3.03786 117.723 -4.39324 116.178C-5.74863 114.633 -6.61544 112.721 -6.88405 110.684C-7.15267 108.646 -6.81103 106.575 -5.90232 104.731C-4.99362 102.888 -3.55868 101.355 -1.77898 100.328C0.000720124 99.2998 2.04524 98.8228 4.09602 98.9571C6.1468 99.0913 8.1117 99.8307 9.74225 101.082C11.3728 102.333 12.5957 104.039 13.2564 105.985C13.9171 107.931 13.9858 110.03 13.4539 112.015C12.7407 114.676 10.9997 116.945 8.61372 118.323C6.2277 119.701 3.39208 120.075 0.73048 119.363V119.363Z" stroke="#0084F8" stroke-width="1.27443" stroke-miterlimit="10"/>
<path d="M439.916 82.5458L386.83 68.3214C383.744 67.4946 380.572 69.3258 379.745 72.4116L365.521 125.497C364.694 128.583 366.525 131.755 369.611 132.582L422.697 146.806C425.783 147.633 428.955 145.802 429.781 142.716L444.006 89.6301C444.832 86.5444 443.001 83.3726 439.916 82.5458Z" stroke="#0084F8" stroke-width="1.27443" stroke-miterlimit="10"/>
<path d="M75.1122 62.6127L-35.3132 33.0243C-38.399 32.1975 -41.5707 34.0287 -42.3976 37.1145L-71.986 147.54C-72.8128 150.626 -70.9816 153.797 -67.8958 154.624L42.5296 184.213C45.6154 185.04 48.7871 183.208 49.614 180.123L79.2024 69.6971C80.0292 66.6113 78.198 63.4396 75.1122 62.6127Z" stroke="#0084F8" stroke-width="1.27443" stroke-miterlimit="10"/>
<path d="M250.48 -6.64061L246.165 -14.114C245.11 -15.9415 242.773 -16.5677 240.946 -15.5126L233.472 -11.1978C231.645 -10.1427 231.019 -7.8059 232.074 -5.97843L236.389 1.495C237.444 3.32247 239.78 3.9486 241.608 2.89351L249.081 -1.42128C250.909 -2.47637 251.535 -4.81314 250.48 -6.64061Z" fill="#0084F8"/>
<path d="M146.758 90.6214C157.203 93.4203 167.94 87.2213 170.739 76.7757C173.538 66.33 167.339 55.5931 156.893 52.7942C146.448 49.9953 135.711 56.1942 132.912 66.6399C130.113 77.0856 136.312 87.8225 146.758 90.6214Z" stroke="#0084F8" stroke-width="1.27443" stroke-miterlimit="10"/>
<path d="M288.402 18.4903C288.904 17.9873 289.531 17.6255 290.218 17.4414C290.905 17.2572 291.628 17.2571 292.315 17.4412C293.002 17.6253 293.628 17.987 294.131 18.49C294.634 18.9929 294.995 19.6194 295.179 20.3064L301.28 43.0744L307.382 65.84C307.566 66.5268 307.566 67.2498 307.382 67.9366C307.198 68.6233 306.837 69.2495 306.334 69.7523C305.831 70.255 305.205 70.6166 304.518 70.8007C303.832 70.9848 303.109 70.985 302.422 70.8011L256.884 58.5993C256.198 58.4152 255.571 58.0535 255.069 57.5507C254.566 57.0479 254.205 56.4217 254.021 55.735C253.837 55.0482 253.837 54.3252 254.021 53.6384C254.205 52.9517 254.566 52.3255 255.069 51.8228L271.736 35.1581L288.402 18.4903Z" stroke="#0084F8" stroke-width="1.27443" stroke-miterlimit="10"/>
<path d="M235.378 19.5629L182.292 5.33853C179.206 4.5117 176.034 6.34292 175.207 9.42866L160.983 62.5146C160.156 65.6003 161.988 68.7721 165.073 69.5989L218.159 83.8232C221.245 84.6501 224.417 82.8189 225.244 79.7331L239.468 26.6472C240.295 23.5614 238.463 20.3897 235.378 19.5629Z" fill="#FFE595" stroke="#0084F8" stroke-width="1.27443" stroke-miterlimit="10"/>
<path d="M182.292 5.33621L235.38 19.5612C236.114 19.7578 236.802 20.097 237.404 20.5594C238.007 21.0218 238.513 21.5984 238.892 22.2563C239.272 22.9141 239.519 23.6403 239.618 24.3934C239.717 25.1465 239.667 25.9118 239.47 26.6455L237.616 33.564L173.363 16.3474L175.217 9.42892C175.614 7.94874 176.581 6.68642 177.908 5.91909C179.234 5.15176 180.811 4.94213 182.292 5.33621Z" fill="#0084F8" stroke="#0084F8" stroke-width="1.27443" stroke-miterlimit="10"/>
<path d="M273.87 70.6808L217.411 55.5526C214.325 54.7258 211.153 56.557 210.326 59.6428L195.198 116.102C194.371 119.188 196.203 122.36 199.288 123.186L255.748 138.315C258.833 139.141 262.005 137.31 262.832 134.224L277.96 77.7652C278.787 74.6794 276.956 71.5077 273.87 70.6808Z" fill="#FFE595" stroke="#0084F8" stroke-width="1.27443" stroke-miterlimit="10"/>
<path d="M217.406 55.5615L273.865 70.6897C274.599 70.8863 275.286 71.2255 275.889 71.6879C276.492 72.1504 276.997 72.727 277.377 73.3848C277.757 74.0426 278.004 74.7688 278.103 75.522C278.202 76.2751 278.152 77.0403 277.955 77.7741L275.927 85.3438L208.295 67.222L210.326 59.6428C210.725 58.1637 211.695 56.9033 213.022 56.1382C214.349 55.373 215.926 55.1657 217.406 55.5615Z" fill="#0084F8" stroke="#0084F8" stroke-width="1.27443" stroke-miterlimit="10"/>
<path d="M367.179 -42.3824L320.626 -29.9133C318.242 -29.272 316.068 -28.0151 314.324 -26.2687C312.579 -24.5223 311.324 -22.3479 310.685 -19.9634L308.407 -11.4633" stroke="#0084F8" stroke-width="1.27443" stroke-miterlimit="10" stroke-linecap="round"/>
<path d="M28.914 1.96628L15.6933 5.50146C13.3063 6.14106 10.793 6.14106 8.40603 5.50147C6.01902 4.86187 3.84243 3.60521 2.09503 1.85781L-31.987 -32.2175" stroke="#0084F8" stroke-width="1.27443" stroke-miterlimit="10" stroke-linecap="round"/>
</g>
</g>
<defs>
<clipPath id="clip0_13_10273">
<rect width="413.333" height="80" fill="white" transform="translate(0.666687 0.522705)"/>
</clipPath>
<clipPath id="clip1_13_10273">
<rect width="474.207" height="266.741" fill="white" transform="translate(27.0993 -122) rotate(15)"/>
</clipPath>
</defs>
</svg>
