<svg width="414" height="81" viewBox="0 0 414 81" fill="none" xmlns="http://www.w3.org/2000/svg">
<g clip-path="url(#clip0_13_10133)">
<g clip-path="url(#clip1_13_10133)">
<path d="M457.14 16.4807L22.4281 -100L-43.0923 144.525L391.62 261.006L457.14 16.4807Z" fill="#47C2B1"/>
<path d="M211.544 -39.1297L126.877 -61.8161C122.086 -63.1 117.161 -60.2564 115.877 -55.4647L97.5266 13.0182C96.2427 17.8099 99.0863 22.7352 103.878 24.0191L188.545 46.7056C193.337 47.9895 198.262 45.1459 199.546 40.3542L217.896 -28.1288C219.18 -32.9205 216.336 -37.8457 211.544 -39.1297Z" stroke="#0084F8" stroke-width="1.2095" stroke-miterlimit="10"/>
<path d="M152.384 -1.53634L131.844 -7.04005C129.975 -7.54096 128.053 -6.43157 127.552 -4.56216L127.41 -4.03009C126.909 -2.16068 128.018 -0.239152 129.888 0.261755L150.428 5.76547C152.297 6.26637 154.219 5.15698 154.72 3.28757L154.862 2.7555C155.363 0.88609 154.254 -1.03543 152.384 -1.53634Z" stroke="#0084F8" stroke-width="1.2095" stroke-miterlimit="10"/>
<path d="M179.4 5.7024L164.692 1.76147C162.823 1.26056 160.901 2.36994 160.4 4.23935L160.258 4.77143C159.757 6.64084 160.866 8.56236 162.736 9.06327L177.443 13.0042C179.313 13.5051 181.234 12.3957 181.735 10.5263L181.878 9.99423C182.379 8.12482 181.269 6.20331 179.4 5.7024Z" stroke="#0084F8" stroke-width="1.2095" stroke-miterlimit="10"/>
<path d="M438.911 22.5063L354.244 -0.180125C349.452 -1.46405 344.527 1.37955 343.243 6.17124L324.893 74.6542C323.609 79.4459 326.452 84.3712 331.244 85.6551L415.911 108.342C420.703 109.625 425.628 106.782 426.912 101.99L445.262 33.5072C446.546 28.7155 443.702 23.7903 438.911 22.5063Z" stroke="#0084F8" stroke-width="1.2095" stroke-miterlimit="10"/>
<path d="M397.337 29.3969L375.662 23.5893C374.771 23.3504 373.854 23.8795 373.615 24.7711L372.802 27.8073C372.563 28.6988 373.092 29.6152 373.984 29.8541L395.658 35.6618C396.55 35.9007 397.466 35.3716 397.705 34.48L398.518 31.4438C398.757 30.5523 398.228 29.6358 397.337 29.3969Z" stroke="#0084F8" stroke-width="1.2095" stroke-miterlimit="10"/>
<path d="M367.858 14.4074L358.258 11.8351C355.525 11.1027 352.715 12.7248 351.983 15.4583L349.41 25.0582C348.678 27.7916 350.3 30.6013 353.033 31.3337L362.633 33.906C365.367 34.6385 368.176 33.0163 368.909 30.2828L371.481 20.6829C372.214 17.9495 370.591 15.1398 367.858 14.4074Z" stroke="#0084F8" stroke-width="1.2095" stroke-miterlimit="10"/>
<path d="M362.891 17.2747L361.125 16.8015C358.392 16.0691 355.582 17.6913 354.85 20.4247L354.377 22.1907C353.644 24.9242 355.266 27.7339 358 28.4663L359.766 28.9395C362.499 29.6719 365.309 28.0498 366.041 25.3163L366.515 23.5503C367.247 20.8168 365.625 18.0072 362.891 17.2747Z" stroke="#0084F8" stroke-width="1.32904" stroke-miterlimit="10"/>
<path d="M364.327 27.4851L363.947 27.3832C363.362 27.2264 362.76 27.5736 362.603 28.1589L362.501 28.5392C362.345 29.1244 362.692 29.726 363.277 29.8828L363.657 29.9847C364.243 30.1415 364.844 29.7942 365.001 29.209L365.103 28.8286C365.26 28.2434 364.912 27.6419 364.327 27.4851Z" fill="#0084F8" stroke="#0084F8" stroke-width="1.32904" stroke-miterlimit="10"/>
<path d="M364.223 55.2255L343.682 49.7218C341.813 49.2209 339.892 50.3303 339.391 52.1997L339.248 52.7318C338.747 54.6012 339.857 56.5227 341.726 57.0236L362.266 62.5273C364.136 63.0282 366.057 61.9188 366.558 60.0494L366.7 59.5173C367.201 57.6479 366.092 55.7264 364.223 55.2255Z" stroke="#0084F8" stroke-width="1.2095" stroke-miterlimit="10"/>
<path d="M391.24 62.465L376.533 58.524C374.663 58.0231 372.742 59.1325 372.241 61.0019L372.098 61.534C371.597 63.4034 372.707 65.3249 374.576 65.8258L389.284 69.7668C391.153 70.2677 393.075 69.1583 393.576 67.2889L393.718 66.7568C394.219 64.8874 393.11 62.9659 391.24 62.465Z" stroke="#0084F8" stroke-width="1.2095" stroke-miterlimit="10"/>
<path d="M422.646 70.8801L403.548 65.7628C401.679 65.2619 399.757 66.3713 399.256 68.2407L399.114 68.7728C398.613 70.6422 399.722 72.5637 401.591 73.0646L420.689 78.1819C422.559 78.6828 424.48 77.5734 424.981 75.704L425.124 75.1719C425.625 73.3025 424.515 71.381 422.646 70.8801Z" stroke="#0084F8" stroke-width="1.2095" stroke-miterlimit="10"/>
<path d="M402.042 85.2774L412.754 88.1476C414.623 88.6485 416.544 87.5391 417.045 85.6697L417.188 85.1376C417.689 83.2682 416.579 81.3467 414.71 80.8458L403.998 77.9756C402.129 77.4747 400.208 78.5841 399.707 80.4535L399.564 80.9856C399.063 82.855 400.173 84.7765 402.042 85.2774Z" stroke="#0084F8" stroke-width="1.2095" stroke-miterlimit="10"/>
<path d="M360.283 66.2598L345.575 62.3188C343.706 61.8179 341.785 62.9273 341.284 64.7967L341.141 65.3288C340.64 67.1982 341.75 69.1197 343.619 69.6206L358.327 73.5616C360.196 74.0625 362.118 72.9531 362.619 71.0837L362.761 70.5516C363.262 68.6822 362.153 66.7607 360.283 66.2598Z" stroke="#0084F8" stroke-width="1.2095" stroke-miterlimit="10"/>
<path d="M391.689 74.6749L372.591 69.5576C370.721 69.0567 368.8 70.1661 368.299 72.0355L368.156 72.5676C367.656 74.437 368.765 76.3585 370.634 76.8594L389.732 81.9767C391.602 82.4776 393.523 81.3682 394.024 79.4988L394.167 78.9667C394.668 77.0973 393.558 75.1758 391.689 74.6749Z" stroke="#0084F8" stroke-width="1.2095" stroke-miterlimit="10"/>
<path d="M336.641 -50.9066L251.974 -73.5931C247.182 -74.877 242.257 -72.0334 240.973 -67.2417L222.623 1.24127C221.339 6.03296 224.183 10.9582 228.974 12.2422L313.641 34.9286C318.433 36.2125 323.358 33.3689 324.642 28.5772L342.992 -39.9058C344.276 -44.6974 341.433 -49.6227 336.641 -50.9066Z" stroke="#0084F8" stroke-width="1.2095" stroke-miterlimit="10"/>
<path d="M303.83 -6.47637L284.732 -11.5936C282.863 -12.0945 280.941 -10.9852 280.44 -9.11574L280.297 -8.58367C279.797 -6.71426 280.906 -4.79274 282.775 -4.29183L301.873 0.825433C303.743 1.32634 305.664 0.216947 306.165 -1.65246L306.308 -2.18453C306.809 -4.05394 305.699 -5.97546 303.83 -6.47637Z" stroke="#0084F8" stroke-width="1.2095" stroke-miterlimit="10"/>
<path d="M286.065 8.68169L265.525 3.17797C263.655 2.67706 261.734 3.78646 261.233 5.65587L261.09 6.18793C260.589 8.05734 261.699 9.97886 263.568 10.4798L284.108 15.9835C285.978 16.4844 287.899 15.375 288.4 13.5056L288.543 12.9735C289.044 11.1041 287.934 9.18259 286.065 8.68169Z" fill="#0084F8"/>
<path d="M-24.5405 48.1944L60.1265 70.8808C64.9181 72.1647 69.8434 69.3211 71.1273 64.5294L89.4773 -3.95355C90.7612 -8.74524 87.9176 -13.6705 83.1259 -14.9544L-1.54102 -37.6409C-6.33271 -38.9248 -11.258 -36.0812 -12.5419 -31.2895L-30.8919 37.1935C-32.1758 41.9852 -29.3322 46.9104 -24.5405 48.1944Z" stroke="#0084F8" stroke-width="1.2095" stroke-miterlimit="10"/>
<path d="M44.0676 36.344L64.6077 41.8477C66.4771 42.3486 68.3986 41.2392 68.8995 39.3698L69.0421 38.8377C69.543 36.9683 68.4336 35.0468 66.5642 34.5459L46.0241 29.0421C44.1547 28.5412 42.2331 29.6506 41.7322 31.52L41.5897 32.0521C41.0888 33.9215 42.1982 35.843 44.0676 36.344Z" stroke="#0084F8" stroke-width="1.2095" stroke-miterlimit="10"/>
<path d="M17.0501 29.1045L31.7579 33.0454C33.6273 33.5463 35.5488 32.4369 36.0497 30.5675L36.1923 30.0355C36.6932 28.166 35.5838 26.2445 33.7144 25.7436L19.0066 21.8027C17.1372 21.3018 15.2157 22.4112 14.7148 24.2806L14.5722 24.8126C14.0713 26.6821 15.1807 28.6036 17.0501 29.1045Z" stroke="#0084F8" stroke-width="1.2095" stroke-miterlimit="10"/>
<path d="M-14.3558 20.6894L4.74212 25.8067C6.61153 26.3076 8.53305 25.1982 9.03396 23.3288L9.17652 22.7967C9.67743 20.9273 8.56804 19.0058 6.69863 18.5048L-12.3993 13.3876C-14.2687 12.8867 -16.1902 13.9961 -16.6911 15.8655L-16.8337 16.3975C-17.3346 18.267 -16.2252 20.1885 -14.3558 20.6894Z" stroke="#0084F8" stroke-width="1.2095" stroke-miterlimit="10"/>
<path d="M0.203132 28.8542L-10.5084 25.984C-12.3779 25.4831 -14.2994 26.5925 -14.8003 28.4619L-14.9428 28.994C-15.4438 30.8634 -14.3344 32.7849 -12.465 33.2858L-1.75338 36.156C0.116029 36.6569 2.03755 35.5475 2.53846 33.6781L2.68103 33.146C3.18194 31.2766 2.07254 29.3551 0.203132 28.8542Z" stroke="#0084F8" stroke-width="1.2095" stroke-miterlimit="10"/>
<path d="M41.9622 47.8695L56.67 51.8104C58.5394 52.3113 60.4609 51.202 60.9618 49.3326L61.1044 48.8005C61.6053 46.9311 60.4959 45.0095 58.6265 44.5086L43.9187 40.5677C42.0493 40.0668 40.1278 41.1762 39.6269 43.0456L39.4843 43.5777C38.9834 45.4471 40.0928 47.3686 41.9622 47.8695Z" stroke="#0084F8" stroke-width="1.2095" stroke-miterlimit="10"/>
<path d="M10.5567 39.4544L29.6546 44.5717C31.524 45.0726 33.4455 43.9632 33.9464 42.0938L34.089 41.5617C34.5899 39.6923 33.4805 37.7708 31.6111 37.2699L12.5132 32.1526C10.6438 31.6517 8.72226 32.7611 8.22135 34.6305L8.07878 35.1626C7.57788 37.032 8.68727 38.9535 10.5567 39.4544Z" stroke="#0084F8" stroke-width="1.2095" stroke-miterlimit="10"/>
<path d="M77.8509 121.152L162.518 143.839C167.31 145.123 172.235 142.279 173.519 137.487L191.869 69.0045C193.153 64.2128 190.309 59.2875 185.517 58.0036L100.85 35.3171C96.0587 34.0332 91.1335 36.8768 89.8495 41.6685L71.4996 110.151C70.2157 114.943 73.0592 119.868 77.8509 121.152Z" stroke="#0084F8" stroke-width="1.2095" stroke-miterlimit="10"/>
<path d="M138.046 64.5175L121.054 59.9644C120.163 59.7255 119.246 60.2546 119.007 61.1462L118.194 64.1824C117.955 65.0739 118.484 65.9904 119.375 66.2293L136.368 70.7823C137.259 71.0212 138.176 70.4921 138.415 69.6006L139.228 66.5644C139.467 65.6728 138.938 64.7564 138.046 64.5175Z" stroke="#0084F8" stroke-width="1.2095" stroke-miterlimit="10"/>
<path d="M113.249 50.7824L103.649 48.2101C100.916 47.4777 98.1064 49.0998 97.3739 51.8333L94.8017 61.4332C94.0692 64.1666 95.6914 66.9763 98.4249 67.7087L108.025 70.281C110.758 71.0134 113.568 69.3913 114.3 66.6578L116.873 57.0579C117.605 54.3245 115.983 51.5148 113.249 50.7824Z" stroke="#0084F8" stroke-width="1.2095" stroke-miterlimit="10"/>
<path d="M106.649 52.2561L105.866 52.0462C103.132 51.3137 100.323 52.9359 99.5904 55.6693L98.6397 59.2172C97.9073 61.9507 99.5294 64.7604 102.263 65.4928L103.046 65.7027C105.78 66.4351 108.589 64.813 109.322 62.0795L110.273 58.5316C111.005 55.7981 109.383 52.9885 106.649 52.2561Z" stroke="#0084F8" stroke-width="1.2095" stroke-miterlimit="10"/>
<path d="M110.82 55.2834L110.245 55.1293C108.236 54.5909 106.17 55.7834 105.632 57.7929L104.933 60.4011C104.394 62.4106 105.587 64.4761 107.596 65.0145L108.172 65.1686C110.181 65.707 112.246 64.5145 112.785 62.5051L113.484 59.8968C114.022 57.8873 112.83 55.8219 110.82 55.2834Z" fill="#0084F8"/>
<path d="M310.08 47.3042L225.413 24.6177C220.622 23.3338 215.696 26.1774 214.412 30.9691L196.062 99.4521C194.778 104.244 197.622 109.169 202.414 110.453L287.081 133.139C291.872 134.423 296.798 131.58 298.082 126.788L316.432 58.3051C317.715 53.5134 314.872 48.5881 310.08 47.3042Z" stroke="#0084F8" stroke-width="1.2095" stroke-miterlimit="10"/>
<path d="M228.891 85.8671L243.598 89.808C245.468 90.3089 247.389 89.1995 247.89 87.3301L248.033 86.798C248.534 84.9286 247.424 83.0071 245.555 82.5062L230.847 78.5653C228.978 78.0644 227.056 79.1737 226.555 81.0431L226.413 81.5752C225.912 83.4446 227.021 85.3662 228.891 85.8671Z" stroke="#0084F8" stroke-width="1.2095" stroke-miterlimit="10"/>
<path d="M267.201 53.6048L246.054 47.9385C245.163 47.6996 244.246 48.2287 244.008 49.1203L243.194 52.1565C242.955 53.0481 243.484 53.9645 244.376 54.2034L265.523 59.8697C266.414 60.1086 267.331 59.5795 267.57 58.6879L268.383 55.6517C268.622 54.7602 268.093 53.8437 267.201 53.6048Z" stroke="#0084F8" stroke-width="1.2095" stroke-miterlimit="10"/>
<path d="M238.237 38.7506L228.637 36.1784C225.903 35.4459 223.094 37.0681 222.361 39.8015L219.789 49.4014C219.057 52.1349 220.679 54.9446 223.412 55.677L233.012 58.2493C235.746 58.9817 238.555 57.3595 239.288 54.6261L241.86 45.0262C242.592 42.2927 240.97 39.4831 238.237 38.7506Z" stroke="#0084F8" stroke-width="1.2095" stroke-miterlimit="10"/>
<path d="M229.507 39.6415L229.016 39.5098C227.291 39.0478 225.519 40.0711 225.057 41.7954L223.12 49.0225C222.658 50.7469 223.682 52.5193 225.406 52.9814L225.897 53.113C227.622 53.575 229.394 52.5517 229.856 50.8274L231.793 43.6003C232.255 41.8759 231.231 40.1035 229.507 39.6415Z" stroke="#0084F8" stroke-width="1.2095" stroke-miterlimit="10"/>
<path d="M234.464 40.9695L233.972 40.8378C232.248 40.3758 230.475 41.3991 230.013 43.1234L228.077 50.3505C227.615 52.0749 228.638 53.8473 230.363 54.3094L230.854 54.441C232.578 54.9031 234.351 53.8797 234.813 52.1554L236.749 44.9283C237.211 43.2039 236.188 41.4315 234.464 40.9695Z" stroke="#0084F8" stroke-width="1.2095" stroke-miterlimit="10"/>
<path d="M56.6758 83.7666L-27.9911 61.0801C-32.7828 59.7962 -37.7081 62.6398 -38.992 67.4315L-57.342 135.914C-58.6259 140.706 -55.7823 145.631 -50.9906 146.915L33.6764 169.602C38.4681 170.886 43.3933 168.042 44.6773 163.25L63.0272 94.7675C64.3111 89.9758 61.4675 85.0505 56.6758 83.7666Z" stroke="#0084F8" stroke-width="1.2095" stroke-miterlimit="10"/>
</g>
</g>
<defs>
<clipPath id="clip0_13_10133">
<rect width="413.333" height="80" fill="white" transform="translate(0.333344 0.522705)"/>
</clipPath>
<clipPath id="clip1_13_10133">
<rect width="450.047" height="253.151" fill="white" transform="translate(22.4281 -100) rotate(15)"/>
</clipPath>
</defs>
</svg>
