<svg width="414" height="81" viewBox="0 0 414 81" fill="none" xmlns="http://www.w3.org/2000/svg">
<g clip-path="url(#clip0_13_9798)">
<g clip-path="url(#clip1_13_9798)">
<path d="M453.014 -58.4296L25.4312 -173L-39.0147 67.5154L388.568 182.086L453.014 -58.4296Z" fill="#6FCF97"/>
<g opacity="0.8">
<path opacity="0.8" d="M18.8142 6.69477C18.4896 7.98009 17.7119 9.10497 16.624 9.86248C14.4252 11.3428 11.6972 10.6118 10.5331 8.23044L8.42508 3.92057L6.31703 -0.389308C5.15078 -2.77123 2.42494 -3.50162 0.226199 -2.02134C-0.851495 -1.25736 -1.62843 -0.140884 -1.97034 1.13512C-2.31224 2.41113 -2.19763 3.76649 -1.64631 4.96697C-0.482289 7.3483 2.24355 8.07869 4.44452 6.599L8.42508 3.92057L12.4013 1.23144C14.6001 -0.248844 17.3282 0.48214 18.4922 2.86347C19.0568 4.06027 19.1712 5.42051 18.8142 6.69477Z" stroke="#FAFAFA" stroke-width="1.18967" stroke-miterlimit="10"/>
<path opacity="0.8" d="M54.3576 18.6747C55.258 17.2145 55.6822 15.5103 55.5714 13.7983C55.4605 12.0863 54.8201 10.4511 53.7389 9.11912C52.6576 7.78715 51.1889 6.82429 49.5363 6.3639C47.8836 5.9035 46.1287 5.96834 44.5145 6.54942C45.5275 7.17821 46.3392 8.08402 46.8535 9.15968L51.0719 17.78C51.7222 19.1119 53.1263 19.4929 54.3576 18.6747Z" stroke="#FAFAFA" stroke-width="1.18967" stroke-linejoin="round"/>
<path opacity="0.8" d="M50.0681 22.132C48.4357 22.7062 46.6643 22.7541 45.0032 22.269C43.3421 21.784 41.8748 20.7903 40.8079 19.4279C39.741 18.0654 39.128 16.4027 39.0553 14.6738C38.9826 12.9448 39.4538 11.2366 40.4026 9.78937C41.5619 9.19536 42.8082 9.61284 43.414 10.8349L47.6323 19.4553C48.1612 20.5691 49.009 21.5007 50.0681 22.132V22.132Z" stroke="#FAFAFA" stroke-width="1.18967" stroke-linejoin="round"/>
<path opacity="0.8" d="M63.1541 2.70767L39.3609 -3.6677C37.7546 -4.09811 36.1035 -3.14486 35.6731 -1.53857L29.2978 22.2547C28.8674 23.861 29.8206 25.512 31.4269 25.9424L55.2201 32.3178C56.8264 32.7482 58.4775 31.795 58.9079 30.1887L65.2833 6.39545C65.7137 4.78915 64.7604 3.13808 63.1541 2.70767Z" stroke="#FAFAFA" stroke-width="1.18967" stroke-miterlimit="10"/>
<path opacity="0.8" d="M483.032 -9.74943L420.376 -26.5382C418.77 -26.9686 417.118 -26.0153 416.688 -24.409L399.899 38.2475C399.469 39.8538 400.422 41.5048 402.028 41.9353L464.685 58.724C466.291 59.1544 467.942 58.2012 468.373 56.5949L485.161 -6.06165C485.592 -7.66795 484.639 -9.31902 483.032 -9.74943Z" stroke="#FAFAFA" stroke-width="1.18967" stroke-miterlimit="10"/>
<path opacity="0.8" d="M397.033 66.3848C396.678 67.66 396.794 69.0206 397.36 70.2173C398.524 72.5986 401.25 73.329 403.449 71.8487L407.431 69.1709L411.412 66.4902C413.611 65.0122 416.336 65.7426 417.503 68.1223C418.066 69.3204 418.181 70.6808 417.827 71.9564" stroke="#FAFAFA" stroke-width="1.18967" stroke-miterlimit="10"/>
<path opacity="0.8" d="M415.063 72.5965C416.937 68.4311 415.079 63.5355 410.914 61.6617C406.748 59.788 401.853 61.6457 399.979 65.8111C398.105 69.9764 399.963 74.8721 404.128 76.7459C408.294 78.6196 413.189 76.7619 415.063 72.5965Z" fill="#6FCF97" stroke="#FAFAFA" stroke-width="1.18967" stroke-miterlimit="10"/>
<path opacity="0.8" d="M397.033 66.3848C397.363 65.102 398.144 63.981 399.233 63.2267C401.431 61.7487 404.157 62.4791 405.322 64.8582L407.431 69.1709L409.539 73.4808C410.704 75.8599 413.43 76.5902 415.63 75.1128C416.717 74.3582 417.497 73.2379 417.827 71.9564" stroke="#FAFAFA" stroke-width="1.18967" stroke-miterlimit="10"/>
<path opacity="0.8" d="M242.045 45.6788C241.261 48.605 241.448 51.7892 242.794 54.5416C245.491 60.0381 251.796 61.7274 256.878 58.3153L266.078 52.1186L275.285 45.9259C280.372 42.5032 286.677 44.1925 289.369 49.6995C290.716 52.4475 290.904 55.6367 290.121 58.5608" stroke="#FAFAFA" stroke-width="2.38164" stroke-miterlimit="10"/>
<path opacity="0.8" d="M275.812 68.7312C284.961 63.4495 288.095 51.7516 282.813 42.6034C277.532 33.4551 265.834 30.3207 256.686 35.6025C247.537 40.8842 244.403 52.582 249.685 61.7303C254.966 70.8785 266.664 74.0129 275.812 68.7312Z" fill="#6FCF97" stroke="#FAFAFA" stroke-width="2.38164" stroke-miterlimit="10"/>
<path opacity="0.8" d="M273.381 54.3952C272.752 53.4888 271.947 52.718 271.014 52.1284L273.942 58.1282C274.267 56.6997 274.082 55.4567 273.381 54.3952Z" fill="#FAFAFA"/>
<path opacity="0.8" d="M259.685 50.9737C260.143 51.3903 260.631 51.7731 261.145 52.119L258.003 45.699C257.732 46.64 257.745 47.6402 258.042 48.5736C258.395 49.4909 258.958 50.3128 259.685 50.9737Z" fill="#FAFAFA"/>
<path opacity="0.8" d="M266.687 63.4499L263.12 56.157L262.567 58.2214C262.29 58.0876 262.011 57.9458 261.729 57.7867C260.829 57.2723 260.004 56.6369 259.277 55.8983C258.608 55.2145 258.082 54.4033 257.732 53.5128L254.088 56.4793C254.634 57.4698 255.331 58.3693 256.154 59.1454C257.076 60.0198 258.103 60.7761 259.212 61.3969C259.931 61.7832 260.677 62.1178 261.443 62.3981L260.646 65.3711L264.096 66.2954L264.897 63.3046C265.49 63.3954 266.088 63.444 266.687 63.4499Z" fill="#FAFAFA"/>
<path opacity="0.8" d="M265.453 40.7589L269 48.0107L269.563 45.9084C270.131 46.188 270.666 46.5321 271.155 46.934C272.167 47.7459 272.999 48.7606 273.596 49.9128L277.046 47.2808C276.29 45.8021 275.199 44.5206 273.86 43.5389C272.875 42.8255 271.797 42.2514 270.655 41.833L271.455 38.8466L268.006 37.9223L267.205 40.9109C266.625 40.8206 266.04 40.7698 265.453 40.7589Z" fill="#FAFAFA"/>
<path opacity="0.8" d="M242.045 45.6788C242.828 42.7547 244.583 40.0908 247.125 38.3803C252.212 34.9577 258.516 36.647 261.208 42.154L266.078 52.1186L270.955 62.0872C273.652 67.5836 279.956 69.273 285.038 65.8608C287.579 64.1548 289.337 61.4871 290.121 58.5608" stroke="#FAFAFA" stroke-width="2.38164" stroke-miterlimit="10"/>
<path opacity="0.8" d="M306.75 26.3254L244.093 9.53665C242.487 9.10624 240.836 10.0595 240.406 11.6658L223.617 74.3223C223.186 75.9286 224.14 77.5797 225.746 78.0101L288.402 94.7988C290.009 95.2292 291.66 94.276 292.09 92.6697L308.879 30.0132C309.309 28.4069 308.356 26.7558 306.75 26.3254Z" stroke="#FAFAFA" stroke-width="1.18967" stroke-miterlimit="10"/>
<path opacity="0.8" d="M356.428 8.89111C356.099 10.1733 355.318 11.2937 354.229 12.0469C352.031 13.5272 349.305 12.7968 348.141 10.4155L346.033 6.10561L343.922 1.79515C342.758 -0.586185 340.032 -1.31658 337.834 0.163703C336.755 0.926505 335.977 2.04299 335.635 3.31946C335.292 4.59593 335.408 5.95185 335.961 7.15202C337.125 9.53335 339.851 10.2637 342.05 8.78346L346.033 6.10561L350.013 3.42718C352.212 1.9469 354.938 2.67728 356.102 5.05861C356.668 6.25526 356.784 7.61593 356.428 8.89111V8.89111Z" stroke="#FAFAFA" stroke-width="1.18967" stroke-miterlimit="10"/>
<path opacity="0.8" d="M382.708 18.3887C383.609 16.9285 384.033 15.2241 383.923 13.5117C383.813 11.7993 383.172 10.1637 382.091 8.83129C381.01 7.49892 379.541 6.53578 377.888 6.0753C376.235 5.61482 374.479 5.67978 372.865 6.26118C373.879 6.89011 374.691 7.79609 375.206 8.87204L379.425 17.4924C380.074 18.8265 381.478 19.2075 382.708 18.3887Z" stroke="#FAFAFA" stroke-width="1.18967" stroke-linejoin="round"/>
<path opacity="0.8" d="M378.418 21.8459C376.785 22.4196 375.014 22.467 373.353 21.9816C371.692 21.4961 370.225 20.5022 369.159 19.1396C368.092 17.777 367.48 16.1144 367.407 14.3855C367.335 12.6567 367.806 10.9486 368.755 9.50163C369.912 8.90703 371.161 9.32511 371.763 10.5583L375.982 19.1787C376.512 20.289 377.36 21.2172 378.418 21.8459V21.8459Z" stroke="#FAFAFA" stroke-width="1.18967" stroke-linejoin="round"/>
<path opacity="0.8" d="M405.306 -30.5762L342.649 -47.365C341.043 -47.7954 339.392 -46.8421 338.961 -45.2358L322.173 17.4207C321.742 19.027 322.696 20.6781 324.302 21.1085L386.958 37.8972C388.565 38.3276 390.216 37.3744 390.646 35.7681L407.435 -26.8884C407.865 -28.4947 406.912 -30.1458 405.306 -30.5762Z" stroke="#FAFAFA" stroke-width="1.18967" stroke-miterlimit="10"/>
<path opacity="0.8" d="M278.301 -22.9536L254.507 -29.329C252.901 -29.7594 251.25 -28.8061 250.82 -27.1998L244.444 -3.4066C244.014 -1.8003 244.967 -0.149228 246.573 0.281178L270.367 6.65655C271.973 7.08696 273.624 6.13371 274.054 4.52742L280.43 -19.2658C280.86 -20.8721 279.907 -22.5232 278.301 -22.9536Z" stroke="#FAFAFA" stroke-width="1.18967" stroke-miterlimit="10"/>
<path opacity="0.8" d="M308.367 3.42682C309.267 1.9665 309.69 0.262604 309.579 -1.44904C309.468 -3.16068 308.827 -4.79542 307.746 -6.127C306.665 -7.45857 305.196 -8.42113 303.544 -8.88143C301.892 -9.34174 300.137 -9.27704 298.523 -8.69628C299.538 -8.06904 300.351 -7.16359 300.865 -6.08766L305.083 2.53493C305.734 3.86461 307.138 4.24559 308.367 3.42682Z" stroke="#FAFAFA" stroke-width="1.18967" stroke-linejoin="round"/>
<path opacity="0.8" d="M304.077 6.88628C302.445 7.45886 300.675 7.50584 299.015 7.02062C297.355 6.53541 295.889 5.54238 294.823 4.18105C293.756 2.81973 293.143 1.15852 293.07 -0.569168C292.996 -2.29686 293.466 -4.00421 294.412 -5.45135C295.57 -6.04818 296.818 -5.6301 297.424 -4.40577L301.641 4.2168C302.171 5.32786 303.019 6.25682 304.077 6.88628V6.88628Z" stroke="#FAFAFA" stroke-width="1.18967" stroke-linejoin="round"/>
<path opacity="0.8" d="M163.851 3.90384C163.495 5.17855 163.61 6.53904 164.176 7.73574C165.34 10.1171 168.068 10.8481 170.266 9.36778L174.247 6.68934L178.228 4.00867C180.429 2.53121 183.154 3.2616 184.319 5.64071C184.884 6.83834 184.999 8.19942 184.643 9.47483" stroke="#FAFAFA" stroke-width="1.18967" stroke-miterlimit="10"/>
<path opacity="0.8" d="M181.871 10.1109C183.744 5.94552 181.887 1.04986 177.721 -0.823885C173.556 -2.69763 168.66 -0.839892 166.786 3.32548C164.913 7.49085 166.77 12.3865 170.936 14.2603C175.101 16.134 179.997 14.2763 181.871 10.1109Z" fill="#6FCF97" stroke="#FAFAFA" stroke-width="1.18967" stroke-miterlimit="10"/>
<path opacity="0.8" d="M163.851 3.90384C164.181 2.62113 164.961 1.49983 166.049 0.745195C168.247 -0.732858 170.975 -0.00187199 172.14 2.37723L174.247 6.68933L176.355 10.9992C177.522 13.3789 180.248 14.1093 182.446 12.6312C183.534 11.8774 184.314 10.7568 184.643 9.47483" stroke="#FAFAFA" stroke-width="1.18967" stroke-miterlimit="10"/>
<path opacity="0.8" d="M190.16 -4.91489L166.366 -11.2903C164.76 -11.7207 163.109 -10.7674 162.679 -9.16112L156.303 14.6321C155.873 16.2384 156.826 17.8895 158.432 18.3199L182.226 24.6952C183.832 25.1256 185.483 24.1724 185.913 22.5661L192.289 -1.22711C192.719 -2.83341 191.766 -4.48448 190.16 -4.91489Z" stroke="#FAFAFA" stroke-width="1.18967" stroke-miterlimit="10"/>
<path opacity="0.8" d="M202.69 14.3107C202.334 15.5854 202.449 16.9459 203.014 18.1426C204.178 20.5239 206.907 21.2549 209.105 19.7746L213.086 17.0962L217.067 14.4155C219.267 12.9381 221.993 13.6685 223.158 16.0476C223.723 17.2452 223.838 18.6063 223.481 19.8817" stroke="#FAFAFA" stroke-width="1.18967" stroke-miterlimit="10"/>
<path opacity="0.8" d="M220.71 20.5185C222.583 16.3531 220.726 11.4574 216.56 9.58369C212.395 7.70995 207.499 9.5677 205.625 13.7331C203.752 17.8984 205.609 22.7941 209.775 24.6679C213.94 26.5416 218.836 24.6839 220.71 20.5185Z" fill="#6FCF97" stroke="#FAFAFA" stroke-width="1.18967" stroke-miterlimit="10"/>
<path opacity="0.8" d="M216.243 18.0782C215.973 17.683 215.625 17.3464 215.222 17.0885L216.493 19.6847C216.565 19.4142 216.579 19.1318 216.536 18.8553C216.493 18.5788 216.394 18.3143 216.243 18.0782Z" fill="#FAFAFA"/>
<path opacity="0.8" d="M210.322 16.599C210.52 16.7787 210.731 16.9444 210.953 17.095L209.596 14.3089C209.48 14.7148 209.487 15.1458 209.615 15.548C209.765 15.9487 210.007 16.3087 210.322 16.599Z" fill="#FAFAFA"/>
<path opacity="0.8" d="M213.348 21.9973L211.806 18.844L211.567 19.7348C211.446 19.6785 211.327 19.6156 211.207 19.5476C210.817 19.3255 210.46 19.0507 210.146 18.7311C209.853 18.4359 209.622 18.0842 209.468 17.6974L207.905 18.9803C208.139 19.4076 208.437 19.796 208.79 20.1316C209.188 20.5108 209.632 20.8389 210.111 21.1085C210.421 21.2771 210.744 21.4218 211.076 21.5414L210.731 22.8286L212.223 23.2284L212.571 21.93C212.828 21.9708 213.088 21.9933 213.348 21.9973Z" fill="#FAFAFA"/>
<path opacity="0.8" d="M212.816 12.1808L214.35 15.3178L214.594 14.4092C214.84 14.5295 215.071 14.6779 215.282 14.8514C215.719 15.2029 216.079 15.6414 216.338 16.1392L217.836 15.0034C217.51 14.3636 217.038 13.8095 216.458 13.3858C216.032 13.0773 215.566 12.8287 215.073 12.6472L215.419 11.3577L213.926 10.9579L213.58 12.2496C213.327 12.2091 213.072 12.1861 212.816 12.1808Z" fill="#FAFAFA"/>
<path opacity="0.8" d="M202.69 14.3107C203.019 13.028 203.799 11.9067 204.888 11.1521C207.086 9.67401 209.814 10.405 210.978 12.7841L213.086 17.0962L215.194 21.4061C216.361 23.7858 219.087 24.5162 221.285 23.0381C222.373 22.2845 223.153 21.1638 223.481 19.8817" stroke="#FAFAFA" stroke-width="1.18967" stroke-miterlimit="10"/>
<path opacity="0.8" d="M229.023 5.49856L205.23 -0.87681C203.624 -1.30722 201.972 -0.353968 201.542 1.25233L195.167 25.0455C194.736 26.6518 195.69 28.3029 197.296 28.7333L221.089 35.1087C222.695 35.5391 224.346 34.5859 224.777 32.9796L231.152 9.18634C231.583 7.58004 230.629 5.92897 229.023 5.49856Z" stroke="#FAFAFA" stroke-width="1.18967" stroke-miterlimit="10"/>
<path opacity="0.8" d="M174.278 48.3512C173.951 49.637 173.17 50.7612 172.079 51.5165C169.88 52.9968 167.152 52.2658 165.988 49.8845L163.88 45.5746L161.772 41.2648C160.606 38.8828 157.88 38.1524 155.681 39.6327C154.604 40.3967 153.827 41.5132 153.485 42.7892C153.143 44.0652 153.258 45.4206 153.809 46.621C154.973 49.0024 157.699 49.7327 159.9 48.2531L163.88 45.5746L167.861 42.8962C170.06 41.4159 172.788 42.1469 173.952 44.5282C174.516 45.7221 174.632 47.079 174.278 48.3512V48.3512Z" stroke="#FAFAFA" stroke-width="1.18967" stroke-miterlimit="10"/>
<path opacity="0.8" d="M179.746 33.9484L155.953 27.573C154.347 27.1426 152.696 28.0959 152.265 29.7022L145.89 53.4954C145.459 55.1017 146.413 56.7528 148.019 57.1832L171.812 63.5585C173.418 63.9889 175.07 63.0357 175.5 61.4294L181.875 37.6362C182.306 36.0299 181.352 34.3788 179.746 33.9484Z" stroke="#FAFAFA" stroke-width="1.18967" stroke-miterlimit="10"/>
<path opacity="0.8" d="M209.813 60.3289C210.714 58.8686 211.138 57.1645 211.027 55.4525C210.916 53.7405 210.276 52.1053 209.194 50.7733C208.113 49.4413 206.645 48.4785 204.992 48.0181C203.339 47.5577 201.584 47.6225 199.97 48.2036C200.983 48.833 201.796 49.7389 202.311 50.8144L206.527 59.4342C207.18 60.7667 208.582 61.1471 209.813 60.3289Z" stroke="#FAFAFA" stroke-width="1.18967" stroke-linejoin="round"/>
<path opacity="0.8" d="M205.524 63.7862C203.892 64.3578 202.122 64.4038 200.463 63.9178C198.803 63.4318 197.338 62.4383 196.272 61.0767C195.207 59.7152 194.594 58.054 194.521 56.3265C194.448 54.599 194.918 52.892 195.865 51.4453C197.024 50.8513 198.27 51.2688 198.876 52.4909L203.094 61.1113C203.622 62.2235 204.467 63.1544 205.524 63.7862V63.7862Z" stroke="#FAFAFA" stroke-width="1.18967" stroke-linejoin="round"/>
<path opacity="0.8" d="M218.61 44.3618L194.816 37.9865C193.21 37.5561 191.559 38.5093 191.129 40.1156L184.753 63.9088C184.323 65.5151 185.276 67.1662 186.882 67.5966L210.676 73.972C212.282 74.4024 213.933 73.4491 214.363 71.8429L220.739 48.0496C221.169 46.4433 220.216 44.7923 218.61 44.3618Z" stroke="#FAFAFA" stroke-width="1.18967" stroke-miterlimit="10"/>
<path opacity="0.8" d="M319.307 45.558C318.951 46.8327 319.066 48.1932 319.631 49.3899C320.795 51.7712 323.523 52.5022 325.722 51.0219L329.703 48.3435L333.684 45.6628C335.884 44.1854 338.61 44.9158 339.775 47.2949C340.34 48.4925 340.456 49.8537 340.1 51.1296" stroke="#FAFAFA" stroke-width="1.18967" stroke-miterlimit="10"/>
<path opacity="0.8" d="M337.331 51.7684C339.205 47.603 337.347 42.7073 333.181 40.8336C329.016 38.9598 324.12 40.8176 322.247 44.983C320.373 49.1483 322.231 54.044 326.396 55.9177C330.561 57.7915 335.457 55.9337 337.331 51.7684Z" fill="#6FCF97" stroke="#FAFAFA" stroke-width="1.18967" stroke-miterlimit="10"/>
<path opacity="0.8" d="M319.307 45.558C319.636 44.2753 320.416 43.154 321.504 42.3994C323.702 40.9213 326.43 41.6523 327.595 44.0314L329.703 48.3435L331.811 52.6534C332.977 55.0331 335.703 55.7635 337.901 54.2854C338.99 53.5319 339.77 52.4116 340.1 51.1296" stroke="#FAFAFA" stroke-width="1.18967" stroke-miterlimit="10"/>
<path opacity="0.8" d="M345.615 36.7393L321.822 30.3639C320.216 29.9335 318.565 30.8868 318.134 32.4931L311.759 56.2863C311.328 57.8926 312.282 59.5436 313.888 59.974L337.681 66.3494C339.287 66.7798 340.938 65.8266 341.369 64.2203L347.744 40.4271C348.175 38.8208 347.221 37.1697 345.615 36.7393Z" stroke="#FAFAFA" stroke-width="1.18967" stroke-miterlimit="10"/>
<path opacity="0.8" d="M358.155 55.9672C357.798 57.2419 357.913 58.6024 358.479 59.7991C359.643 62.1804 362.371 62.9114 364.57 61.4311L368.55 58.7527L372.531 56.072C374.732 54.5946 377.458 55.325 378.622 57.7041C379.188 58.9016 379.304 60.2629 378.948 61.5388" stroke="#FAFAFA" stroke-width="1.18967" stroke-miterlimit="10"/>
<path opacity="0.8" d="M376.173 62.1767C378.046 58.0113 376.189 53.1157 372.023 51.2419C367.858 49.3682 362.962 51.2259 361.088 55.3913C359.215 59.5566 361.072 64.4523 365.238 66.3261C369.403 68.1998 374.299 66.3421 376.173 62.1767Z" fill="#6FCF97" stroke="#FAFAFA" stroke-width="1.18967" stroke-miterlimit="10"/>
<path opacity="0.8" d="M371.705 59.7341C371.435 59.3395 371.089 59.0032 370.686 58.745L371.955 61.3406C372.027 61.0701 372.041 60.7877 371.999 60.5112C371.956 60.2347 371.856 59.9702 371.705 59.7341Z" fill="#FAFAFA"/>
<path opacity="0.8" d="M365.777 58.2532C365.976 58.4328 366.187 58.5986 366.408 58.7492L365.052 55.9631C364.936 56.369 364.942 56.8 365.071 57.2022C365.221 57.6029 365.463 57.9628 365.777 58.2532Z" fill="#FAFAFA"/>
<path opacity="0.8" d="M368.804 63.6517L367.262 60.4984L367.023 61.3892C366.902 61.3329 366.783 61.2699 366.663 61.2019C366.273 60.9798 365.916 60.7051 365.602 60.3854C365.309 60.0902 365.078 59.7386 364.924 59.3517L363.347 60.6333C363.58 61.0605 363.879 61.4489 364.232 61.7846C364.63 62.1638 365.074 62.4919 365.553 62.7615C365.863 62.9301 366.186 63.0748 366.518 63.1943L366.173 64.4815L367.665 64.8813L368.013 63.583C368.275 63.6249 368.539 63.6479 368.804 63.6517Z" fill="#FAFAFA"/>
<path opacity="0.8" d="M368.273 53.8355L369.819 56.9754L370.062 56.0668C370.308 56.1871 370.539 56.3355 370.751 56.509C371.188 56.8605 371.548 57.2991 371.807 57.7969L373.305 56.661C372.978 56.0212 372.506 55.4671 371.926 55.0434C371.501 54.7349 371.035 54.4864 370.542 54.3048L370.887 53.0154L369.395 52.6156L369.049 53.9072C368.793 53.8652 368.533 53.8412 368.273 53.8355Z" fill="#FAFAFA"/>
<path opacity="0.8" d="M358.155 55.9672C358.484 54.6845 359.264 53.5632 360.352 52.8086C362.55 51.3305 365.278 52.0615 366.443 54.4406L368.55 58.7527L370.658 63.0626C371.825 65.4423 374.551 66.1726 376.749 64.6946C377.838 63.9414 378.619 62.821 378.948 61.5388" stroke="#FAFAFA" stroke-width="1.18967" stroke-miterlimit="10"/>
<path opacity="0.8" d="M384.479 47.1527L360.685 40.7774C359.079 40.347 357.428 41.3002 356.998 42.9065L350.622 66.6997C350.192 68.306 351.145 69.9571 352.751 70.3875L376.545 76.7629C378.151 77.1933 379.802 76.24 380.232 74.6337L386.608 50.8405C387.038 49.2342 386.085 47.5831 384.479 47.1527Z" stroke="#FAFAFA" stroke-width="1.18967" stroke-miterlimit="10"/>
<path opacity="0.8" d="M329.734 90.0054C329.405 91.2875 328.625 92.4082 327.537 93.1618C325.338 94.6421 322.61 93.9111 321.446 91.5298L319.338 87.2199L317.23 82.91C316.066 80.5287 313.338 79.7977 311.139 81.278C310.061 82.042 309.285 83.1584 308.943 84.4344C308.601 85.7105 308.715 87.0658 309.267 88.2663C310.431 90.6476 313.159 91.3786 315.358 89.8983L319.338 87.2199L323.319 84.5415C325.517 83.0612 328.245 83.7922 329.409 86.1735C329.975 87.3702 330.09 88.7307 329.734 90.0054Z" stroke="#FAFAFA" stroke-width="1.18967" stroke-miterlimit="10"/>
<path opacity="0.8" d="M374.065 86.016L350.272 79.6407C348.666 79.2102 347.015 80.1635 346.584 81.7698L340.209 105.563C339.778 107.169 340.732 108.82 342.338 109.251L366.131 115.626C367.737 116.057 369.389 115.103 369.819 113.497L376.194 89.7038C376.625 88.0975 375.672 86.4464 374.065 86.016Z" stroke="#FAFAFA" stroke-width="1.18967" stroke-miterlimit="10"/>
<path opacity="0.8" d="M124.962 -6.5167C124.606 -5.24189 124.721 -3.88177 125.286 -2.6848C126.452 -0.302876 129.178 0.427513 131.377 -1.05277L135.357 -3.73121L139.341 -6.41128C141.539 -7.88933 144.265 -7.15894 145.429 -4.77984C145.995 -3.58225 146.111 -2.22099 145.755 -0.945113" stroke="#FAFAFA" stroke-width="1.18967" stroke-miterlimit="10"/>
<path opacity="0.8" d="M142.979 -0.311713C144.852 -4.47709 142.995 -9.37275 138.829 -11.2465C134.664 -13.1202 129.768 -11.2625 127.895 -7.09713C126.021 -2.93175 127.879 1.96391 132.044 3.83765C136.209 5.71139 141.105 3.85366 142.979 -0.311713Z" fill="#6FCF97" stroke="#FAFAFA" stroke-width="1.18967" stroke-miterlimit="10"/>
<path opacity="0.8" d="M135.621 1.17058L134.079 -1.98272L133.841 -1.09193C133.722 -1.14761 133.6 -1.21117 133.48 -1.27919C133.092 -1.50111 132.735 -1.77567 132.422 -2.09506C132.129 -2.39046 131.898 -2.74206 131.744 -3.12878L130.183 -1.84527C130.416 -1.41801 130.715 -1.02961 131.068 -0.693966C131.466 -0.314237 131.911 0.0141347 132.391 0.2835C132.7 0.451918 133.022 0.596442 133.354 0.715796L133.009 2.00299L134.501 2.4028L134.849 1.10447C135.105 1.14434 135.363 1.16643 135.621 1.17058Z" fill="#FAFAFA"/>
<path opacity="0.8" d="M124.962 -6.51672C125.293 -7.79856 126.072 -8.91924 127.159 -9.67536C129.359 -11.1528 132.085 -10.4224 133.25 -8.04332L135.357 -3.73122L137.467 0.579252C138.632 2.95836 141.358 3.68874 143.556 2.21069C144.645 1.45748 145.425 0.337057 145.755 -0.945126" stroke="#FAFAFA" stroke-width="1.18967" stroke-miterlimit="10"/>
<path opacity="0.8" d="M151.297 -15.3282L127.503 -21.7036C125.897 -22.134 124.246 -21.1808 123.816 -19.5745L117.44 4.21876C117.01 5.82506 117.963 7.47613 119.569 7.90653L143.363 14.2819C144.969 14.7123 146.62 13.7591 147.05 12.1528L153.426 -11.6404C153.856 -13.2467 152.903 -14.8978 151.297 -15.3282Z" stroke="#FAFAFA" stroke-width="1.18967" stroke-miterlimit="10"/>
<path opacity="0.8" d="M96.5519 27.5245C96.2237 28.8104 95.4419 29.9343 94.3505 30.6893C92.1518 32.1695 89.4259 31.4392 88.2619 29.0578L86.1516 24.7474L84.0436 20.4375C82.8796 18.0562 80.1537 17.3258 77.9528 18.8054C76.8751 19.5694 76.0981 20.6859 75.7562 21.9619C75.4143 23.2379 75.5289 24.5933 76.0803 25.7938C77.2465 28.1757 79.9723 28.9061 82.1711 27.4258L86.1516 24.7474L90.1344 22.0695C92.3332 20.5892 95.059 21.3196 96.223 23.701C96.7879 24.8947 96.9046 26.2518 96.5519 27.5245V27.5245Z" stroke="#FAFAFA" stroke-width="1.18967" stroke-miterlimit="10"/>
<path opacity="0.8" d="M102.018 13.1211L78.2244 6.74575C76.6181 6.31534 74.9671 7.26859 74.5367 8.87489L68.1613 32.6681C67.7309 34.2744 68.6841 35.9255 70.2904 36.3559L94.0836 42.7313C95.6899 43.1617 97.341 42.2084 97.7714 40.6021L104.147 16.8089C104.577 15.2026 103.624 13.5515 102.018 13.1211Z" stroke="#FAFAFA" stroke-width="1.18967" stroke-miterlimit="10"/>
<path opacity="0.8" d="M132.084 39.5015C132.985 38.0412 133.409 36.3371 133.298 34.6251C133.187 32.9131 132.547 31.2779 131.465 29.9459C130.384 28.6139 128.915 27.6511 127.263 27.1907C125.61 26.7303 123.855 26.7951 122.241 27.3762C123.255 28.0051 124.067 28.9111 124.582 29.9871L128.801 38.6074C129.451 39.9393 130.855 40.3203 132.084 39.5015Z" stroke="#FAFAFA" stroke-width="1.18967" stroke-linejoin="round"/>
<path opacity="0.8" d="M127.794 42.9587C126.162 43.5313 124.391 43.5781 122.731 43.0925C121.071 42.6069 119.604 41.6134 118.538 40.2515C117.471 38.8896 116.858 37.2277 116.785 35.4995C116.712 33.7712 117.182 32.0634 118.129 30.616C119.288 30.022 120.537 30.4401 121.142 31.6622L125.361 40.2825C125.889 41.3958 126.736 42.3272 127.794 42.9587V42.9587Z" stroke="#FAFAFA" stroke-width="1.18967" stroke-linejoin="round"/>
<path opacity="0.8" d="M140.883 23.5351L117.09 17.1597C115.484 16.7293 113.833 17.6825 113.402 19.2888L107.027 43.0821C106.596 44.6884 107.55 46.3394 109.156 46.7698L132.949 53.1452C134.555 53.5756 136.206 52.6224 136.637 51.0161L143.012 27.2228C143.443 25.6165 142.489 23.9655 140.883 23.5351Z" stroke="#FAFAFA" stroke-width="1.18967" stroke-miterlimit="10"/>
<path opacity="0.8" d="M-9.04541 45.8434C-9.4008 47.1182 -9.28572 48.4783 -8.72118 49.6753C-7.55493 52.0572 -4.82909 52.7876 -2.63035 51.3073L1.35244 48.6295L5.33359 45.9488C7.53173 44.4708 10.2576 45.2012 11.4222 47.5803C11.988 48.7779 12.1036 50.1391 11.7481 51.415" stroke="#FAFAFA" stroke-width="1.18967" stroke-miterlimit="10"/>
<path opacity="0.8" d="M8.96538 52.0508C10.8391 47.8855 8.98139 42.9898 4.81601 41.1161C0.650641 39.2423 -4.24503 41.1 -6.11877 45.2654C-7.99251 49.4308 -6.13477 54.3265 -1.9694 56.2002C2.19597 58.0739 7.09164 56.2162 8.96538 52.0508Z" fill="#6FCF97" stroke="#FAFAFA" stroke-width="1.18967" stroke-miterlimit="10"/>
<path opacity="0.8" d="M-9.04503 45.8434C-8.71403 44.5616 -7.93442 43.4409 -6.8477 42.6847C-4.64733 41.2073 -1.92148 41.9377 -0.756861 44.3168L1.35281 48.6295L3.46086 52.9394C4.62488 55.3207 7.35073 56.0511 9.54946 54.5708C10.6382 53.8176 11.4189 52.6972 11.7484 51.415" stroke="#FAFAFA" stroke-width="1.18967" stroke-miterlimit="10"/>
<path opacity="0.8" d="M20.5404 53.7708C20.185 55.0456 20.3001 56.4057 20.8646 57.6027C22.0309 59.9846 24.7567 60.715 26.9555 59.2347L30.936 56.5563L34.9194 53.8762C37.1176 52.3981 39.8434 53.1285 41.008 55.5076C41.5738 56.7052 41.6895 58.0665 41.3339 59.3424" stroke="#FAFAFA" stroke-width="1.18967" stroke-miterlimit="10"/>
<path opacity="0.8" d="M38.5526 59.9777C40.4263 55.8123 38.5686 50.9167 34.4032 49.0429C30.2379 47.1692 25.3422 49.0269 23.4685 53.1923C21.5947 57.3577 23.4524 62.2533 27.6178 64.1271C31.7832 66.0008 36.6789 64.1431 38.5526 59.9777Z" fill="#6FCF97" stroke="#FAFAFA" stroke-width="1.18967" stroke-miterlimit="10"/>
<path opacity="0.8" d="M34.0955 57.5389C33.8246 57.1441 33.4773 56.8075 33.0742 56.5492L34.3431 59.1448C34.4144 58.8745 34.4293 58.5924 34.3867 58.3161C34.3441 58.0398 34.2449 57.7752 34.0955 57.5389Z" fill="#FAFAFA"/>
<path opacity="0.8" d="M28.1739 56.0597C28.3713 56.2408 28.5822 56.4067 28.8048 56.5557L27.4417 53.7773C27.3251 54.1828 27.3309 54.6136 27.4583 55.0158C27.6117 55.415 27.8569 55.7726 28.1739 56.0597Z" fill="#FAFAFA"/>
<path opacity="0.8" d="M31.2014 61.4538L29.6595 58.3004L29.4208 59.1912C29.302 59.1356 29.1806 59.072 29.0604 59.004C28.6713 58.7815 28.3144 58.5068 27.9998 58.1875C27.7113 57.8916 27.4847 57.5412 27.3332 57.1568L25.7558 58.4383C25.9894 58.8656 26.2879 59.254 26.6407 59.5896C27.0392 59.9694 27.4837 60.2977 27.9637 60.5671C28.2732 60.7357 28.5951 60.8802 28.9267 60.9994L28.5818 62.2866L30.0739 62.6864L30.4218 61.3881C30.6798 61.4281 30.9403 61.4501 31.2014 61.4538Z" fill="#FAFAFA"/>
<path opacity="0.8" d="M30.6662 51.641L32.2006 54.778L32.444 53.8694C32.6899 53.9893 32.921 54.1378 33.1323 54.3116C33.5702 54.6626 33.9299 55.1012 34.1883 55.5994L35.6861 54.4636C35.3589 53.8244 34.887 53.2705 34.3079 52.8459C33.8816 52.5374 33.4149 52.2887 32.9211 52.1068L33.2666 50.8173L31.7745 50.4175L31.4284 51.7092C31.1761 51.6694 30.9215 51.6466 30.6662 51.641Z" fill="#FAFAFA"/>
<path opacity="0.8" d="M20.5404 53.7708C20.8714 52.4889 21.651 51.3682 22.7377 50.6121C24.9381 49.1347 27.6639 49.865 28.8285 52.2442L30.936 56.5563L33.0462 60.8667C34.2103 63.2481 36.9361 63.9784 39.1349 62.4982C40.2236 61.745 41.0043 60.6245 41.3338 59.3424" stroke="#FAFAFA" stroke-width="1.18967" stroke-miterlimit="10"/>
<path opacity="0.8" d="M3.86339 81.0383C3.53383 82.3205 2.75313 83.4409 1.66443 84.1941C-0.534311 85.6744 -3.26015 84.944 -4.42418 82.5627L-6.53445 78.2523L-8.6425 73.9424C-9.80652 71.561 -12.5324 70.8306 -14.7333 72.3103C-15.811 73.0743 -16.588 74.1908 -16.9299 75.4668C-17.2718 76.7428 -17.1572 78.0982 -16.6058 79.2986C-15.4396 81.6806 -12.7137 82.411 -10.515 80.9307L-6.53445 78.2523L-2.55166 75.5744C-0.352925 74.0941 2.37292 74.8245 3.53694 77.2058C4.10318 78.4025 4.21908 79.7632 3.86339 81.0383Z" stroke="#FAFAFA" stroke-width="1.18967" stroke-miterlimit="10"/>
<path opacity="0.8" d="M30.1427 90.5359C31.0432 89.0757 31.4674 87.3715 31.3565 85.6595C31.2457 83.9475 30.6053 82.3123 29.524 80.9803C28.4427 79.6483 26.9741 78.6855 25.3214 78.2251C23.6687 77.7647 21.9138 77.8295 20.2996 78.4106C21.3133 79.0396 22.1257 79.9455 22.6409 81.0215L26.8593 89.6418C27.5007 90.9713 28.9137 91.3547 30.1427 90.5359Z" stroke="#FAFAFA" stroke-width="1.18967" stroke-linejoin="round"/>
<path opacity="0.8" d="M25.8531 93.9931C24.2205 94.5661 22.4495 94.613 20.7889 94.1274C19.1282 93.6417 17.6616 92.6479 16.595 91.2856C15.5284 89.9232 14.9156 88.2609 14.8426 86.5323C14.7696 84.8036 15.2402 83.0956 16.1882 81.6482C17.3474 81.0542 18.5959 81.4723 19.2018 82.6944L23.4201 91.3148C23.948 92.4288 24.7948 93.3609 25.8531 93.9931Z" stroke="#FAFAFA" stroke-width="1.18967" stroke-linejoin="round"/>
<path opacity="0.8" d="M52.741 41.571L-9.91552 24.7822C-11.5218 24.3518 -13.1729 25.3051 -13.6033 26.9114L-30.3921 89.5679C-30.8225 91.1742 -29.8692 92.8253 -28.2629 93.2557L34.3936 110.044C35.9999 110.475 37.651 109.522 38.0814 107.915L54.8701 45.2588C55.3005 43.6525 54.3473 42.0014 52.741 41.571Z" stroke="#FAFAFA" stroke-width="1.18967" stroke-miterlimit="10"/>
<path opacity="0.8" d="M65.8145 81.7605C65.031 84.6846 65.2179 87.871 66.5642 90.6234C69.2613 96.1199 75.5659 97.8092 80.6477 94.3971L89.855 88.2021L99.0622 82.0072C104.146 78.5957 110.451 80.285 113.146 85.7809C114.495 88.5294 114.681 91.7203 113.898 94.6443" stroke="#FAFAFA" stroke-width="2.38164" stroke-miterlimit="10"/>
<path opacity="0.8" d="M85.074 106.732C95.2775 109.466 105.766 103.411 108.5 93.2074C111.234 83.0038 105.178 72.5159 94.9748 69.7818C84.7712 67.0478 74.2833 73.103 71.5492 83.3066C68.8152 93.5101 74.8704 103.998 85.074 106.732Z" fill="#6FCF97" stroke="#FAFAFA" stroke-width="2.38164" stroke-miterlimit="10"/>
<path opacity="0.8" d="M65.8145 81.7605C66.5986 78.8342 68.3531 76.1704 70.8952 74.4599C75.9792 71.0483 82.2838 72.7377 84.9787 78.2335L89.855 88.2021L94.7312 98.1707C97.4283 103.667 103.733 105.357 108.815 101.944C111.358 100.239 113.114 97.5684 113.898 94.6443" stroke="#FAFAFA" stroke-width="2.38164" stroke-miterlimit="10"/>
<path opacity="0.8" d="M130.468 62.3977L67.811 45.6089C66.2047 45.1785 64.5537 46.1317 64.1233 47.738L47.3345 110.395C46.9041 112.001 47.8573 113.652 49.4636 114.082L112.12 130.871C113.726 131.302 115.378 130.348 115.808 128.742L132.597 66.0854C133.027 64.4792 132.074 62.8281 130.468 62.3977Z" stroke="#FAFAFA" stroke-width="1.18967" stroke-miterlimit="10"/>
<path opacity="0.8" d="M143.025 81.6305C142.668 82.9052 142.783 84.2656 143.349 85.4623C144.513 87.8437 147.241 88.5747 149.44 87.0944L153.42 84.416L157.401 81.7375C159.602 80.2578 162.328 80.9882 163.492 83.3695C164.057 84.5662 164.172 85.9267 163.816 87.2014" stroke="#FAFAFA" stroke-width="1.18967" stroke-miterlimit="10"/>
<path opacity="0.8" d="M161.04 87.8417C162.914 83.6764 161.056 78.7807 156.891 76.907C152.725 75.0332 147.83 76.8909 145.956 81.0563C144.082 85.2217 145.94 90.1174 150.105 91.9911C154.271 93.8648 159.166 92.0071 161.04 87.8417Z" fill="#6FCF97" stroke="#FAFAFA" stroke-width="1.18967" stroke-miterlimit="10"/>
<path opacity="0.8" d="M143.025 81.6305C143.353 80.3483 144.133 79.2276 145.221 78.474C147.42 76.9938 150.148 77.7247 151.312 80.1061L153.42 84.416L155.528 88.7258C156.695 91.1077 159.42 91.8381 161.619 90.3578C162.707 89.6043 163.487 88.4836 163.816 87.2014" stroke="#FAFAFA" stroke-width="1.18967" stroke-miterlimit="10"/>
<path opacity="0.8" d="M169.333 72.8117L145.54 66.4363C143.933 66.0059 142.282 66.9591 141.852 68.5654L135.476 92.3587C135.046 93.965 135.999 95.616 137.606 96.0464L161.399 102.422C163.005 102.852 164.656 101.899 165.087 100.293L171.462 76.4995C171.892 74.8932 170.939 73.2421 169.333 72.8117Z" stroke="#FAFAFA" stroke-width="1.18967" stroke-miterlimit="10"/>
</g>
</g>
<rect width="419" height="28" transform="translate(0 0.522705)" fill="#47C2B1"/>
<path d="M180.402 15.5837H181.621C181.558 16.1677 181.39 16.6903 181.12 17.1516C180.849 17.6129 180.466 17.9789 179.971 18.2498C179.476 18.5164 178.858 18.6497 178.117 18.6497C177.576 18.6497 177.083 18.5481 176.638 18.345C176.198 18.1418 175.819 17.8541 175.502 17.4817C175.185 17.1051 174.939 16.6544 174.766 16.1296C174.596 15.6007 174.512 15.0125 174.512 14.365V13.4446C174.512 12.7971 174.596 12.211 174.766 11.6863C174.939 11.1573 175.187 10.7045 175.508 10.3279C175.834 9.95125 176.226 9.66138 176.683 9.45825C177.14 9.25513 177.654 9.15356 178.225 9.15356C178.923 9.15356 179.514 9.28475 179.996 9.54712C180.479 9.80949 180.853 10.1734 181.12 10.6389C181.39 11.1002 181.558 11.6355 181.621 12.2449H180.402C180.343 11.8132 180.233 11.443 180.072 11.134C179.911 10.8209 179.683 10.5797 179.387 10.4104C179.09 10.2411 178.703 10.1565 178.225 10.1565C177.815 10.1565 177.453 10.2348 177.14 10.3914C176.831 10.5479 176.57 10.7701 176.359 11.0579C176.152 11.3456 175.995 11.6905 175.889 12.0925C175.783 12.4945 175.73 12.941 175.73 13.4319V14.365C175.73 14.8178 175.777 15.2431 175.87 15.6409C175.967 16.0387 176.113 16.3878 176.308 16.6882C176.503 16.9887 176.75 17.2257 177.051 17.3992C177.351 17.5684 177.707 17.6531 178.117 17.6531C178.638 17.6531 179.052 17.5706 179.361 17.4055C179.67 17.2405 179.903 17.0035 180.06 16.6946C180.22 16.3857 180.335 16.0154 180.402 15.5837ZM187.315 16.9358V11.6545H188.496V18.5227H187.372L187.315 16.9358ZM187.537 15.4885L188.026 15.4758C188.026 15.9329 187.977 16.356 187.88 16.7454C187.787 17.1305 187.634 17.4648 187.423 17.7483C187.211 18.0318 186.934 18.254 186.591 18.4148C186.249 18.5714 185.832 18.6497 185.341 18.6497C185.007 18.6497 184.7 18.601 184.42 18.5037C184.145 18.4063 183.908 18.2561 183.709 18.053C183.511 17.8499 183.356 17.5854 183.246 17.2595C183.14 16.9337 183.087 16.5422 183.087 16.0852V11.6545H184.262V16.0979C184.262 16.4068 184.296 16.6628 184.363 16.866C184.435 17.0649 184.53 17.2236 184.649 17.342C184.772 17.4563 184.907 17.5367 185.055 17.5833C185.208 17.6298 185.364 17.6531 185.525 17.6531C186.024 17.6531 186.42 17.5579 186.712 17.3674C187.004 17.1728 187.213 16.9125 187.34 16.5867C187.472 16.2566 187.537 15.8905 187.537 15.4885ZM191.46 12.7336V18.5227H190.286V11.6545H191.428L191.46 12.7336ZM193.605 11.6165L193.599 12.7083C193.502 12.6871 193.409 12.6744 193.32 12.6702C193.235 12.6617 193.138 12.6575 193.028 12.6575C192.757 12.6575 192.518 12.6998 192.311 12.7844C192.103 12.8691 191.928 12.9875 191.784 13.1399C191.64 13.2922 191.526 13.4742 191.441 13.6858C191.361 13.8931 191.308 14.1217 191.282 14.3713L190.952 14.5618C190.952 14.1471 190.992 13.7577 191.073 13.3938C191.157 13.0299 191.286 12.7083 191.46 12.429C191.633 12.1454 191.854 11.9254 192.12 11.7688C192.391 11.608 192.713 11.5276 193.085 11.5276C193.17 11.5276 193.267 11.5382 193.377 11.5593C193.487 11.5763 193.563 11.5953 193.605 11.6165ZM195.865 12.7336V18.5227H194.691V11.6545H195.833L195.865 12.7336ZM198.011 11.6165L198.004 12.7083C197.907 12.6871 197.814 12.6744 197.725 12.6702C197.64 12.6617 197.543 12.6575 197.433 12.6575C197.162 12.6575 196.923 12.6998 196.716 12.7844C196.508 12.8691 196.333 12.9875 196.189 13.1399C196.045 13.2922 195.931 13.4742 195.846 13.6858C195.766 13.8931 195.713 14.1217 195.688 14.3713L195.357 14.5618C195.357 14.1471 195.398 13.7577 195.478 13.3938C195.563 13.0299 195.692 12.7083 195.865 12.429C196.039 12.1454 196.259 11.9254 196.525 11.7688C196.796 11.608 197.118 11.5276 197.49 11.5276C197.575 11.5276 197.672 11.5382 197.782 11.5593C197.892 11.5763 197.968 11.5953 198.011 11.6165ZM201.819 18.6497C201.341 18.6497 200.907 18.5693 200.518 18.4084C200.133 18.2434 199.801 18.0128 199.521 17.7166C199.246 17.4203 199.035 17.0691 198.887 16.6628C198.739 16.2566 198.665 15.8123 198.665 15.3298V15.0632C198.665 14.5046 198.747 14.0074 198.912 13.5715C199.077 13.1314 199.301 12.759 199.585 12.4543C199.868 12.1497 200.19 11.919 200.55 11.7625C200.91 11.6059 201.282 11.5276 201.667 11.5276C202.158 11.5276 202.581 11.6122 202.937 11.7815C203.296 11.9508 203.59 12.1877 203.819 12.4924C204.047 12.7929 204.217 13.1484 204.327 13.5588C204.437 13.9651 204.492 14.4094 204.492 14.8918V15.4187H199.363V14.4602H203.317V14.3713C203.3 14.0667 203.237 13.7704 203.127 13.4827C203.021 13.1949 202.852 12.9579 202.619 12.7717C202.386 12.5855 202.069 12.4924 201.667 12.4924C201.4 12.4924 201.155 12.5496 200.931 12.6638C200.706 12.7738 200.514 12.9389 200.353 13.1589C200.192 13.379 200.067 13.6477 199.979 13.9651C199.89 14.2825 199.845 14.6485 199.845 15.0632V15.3298C199.845 15.6557 199.89 15.9625 199.979 16.2502C200.072 16.5338 200.205 16.7834 200.378 16.9993C200.556 17.2151 200.77 17.3844 201.02 17.5071C201.273 17.6298 201.561 17.6912 201.883 17.6912C202.298 17.6912 202.649 17.6065 202.937 17.4373C203.224 17.268 203.476 17.0416 203.692 16.7581L204.403 17.323C204.255 17.5473 204.066 17.761 203.838 17.9641C203.609 18.1672 203.328 18.3323 202.994 18.4592C202.664 18.5862 202.272 18.6497 201.819 18.6497ZM207.037 13.1208V18.5227H205.863V11.6545H206.974L207.037 13.1208ZM206.758 14.8284L206.269 14.8093C206.273 14.3396 206.343 13.9058 206.479 13.5081C206.614 13.106 206.804 12.7569 207.05 12.4607C207.295 12.1645 207.587 11.936 207.926 11.7751C208.269 11.6101 208.647 11.5276 209.062 11.5276C209.401 11.5276 209.705 11.5741 209.976 11.6672C210.247 11.7561 210.478 11.9 210.668 12.0989C210.863 12.2978 211.011 12.5559 211.112 12.8733C211.214 13.1864 211.265 13.5694 211.265 14.0222V18.5227H210.084V14.0095C210.084 13.6498 210.031 13.3621 209.925 13.1462C209.819 12.9262 209.665 12.7675 209.462 12.6702C209.259 12.5686 209.009 12.5178 208.713 12.5178C208.421 12.5178 208.154 12.5792 207.913 12.7019C207.676 12.8246 207.471 12.9939 207.297 13.2097C207.128 13.4255 206.995 13.6731 206.897 13.9524C206.804 14.2275 206.758 14.5194 206.758 14.8284ZM215.924 11.6545V12.5559H212.21V11.6545H215.924ZM213.467 9.98511H214.642V16.8215C214.642 17.0543 214.678 17.2299 214.75 17.3484C214.821 17.4669 214.915 17.5452 215.029 17.5833C215.143 17.6213 215.266 17.6404 215.397 17.6404C215.494 17.6404 215.596 17.6319 215.702 17.615C215.812 17.5938 215.894 17.5769 215.949 17.5642L215.956 18.5227C215.862 18.5523 215.74 18.5798 215.587 18.6052C215.439 18.6348 215.259 18.6497 215.048 18.6497C214.76 18.6497 214.496 18.5925 214.254 18.4783C214.013 18.364 213.821 18.1736 213.677 17.907C213.537 17.6361 213.467 17.2722 213.467 16.8152V9.98511ZM224.112 14.8982H221.643V13.9016H224.112C224.59 13.9016 224.978 13.8254 225.274 13.6731C225.57 13.5208 225.786 13.3092 225.921 13.0383C226.061 12.7675 226.131 12.4586 226.131 12.1116C226.131 11.7942 226.061 11.4958 225.921 11.2166C225.786 10.9373 225.57 10.713 225.274 10.5437C224.978 10.3702 224.59 10.2834 224.112 10.2834H221.929V18.5227H220.704V9.28052H224.112C224.811 9.28052 225.401 9.40112 225.883 9.64233C226.366 9.88354 226.732 10.2179 226.981 10.6453C227.231 11.0684 227.356 11.553 227.356 12.0989C227.356 12.6913 227.231 13.197 226.981 13.616C226.732 14.0349 226.366 14.3544 225.883 14.5745C225.401 14.7903 224.811 14.8982 224.112 14.8982ZM230.003 8.77271V18.5227H228.822V8.77271H230.003ZM235.938 17.3484V13.8127C235.938 13.5419 235.883 13.307 235.773 13.1082C235.667 12.905 235.506 12.7485 235.291 12.6384C235.075 12.5284 234.808 12.4734 234.491 12.4734C234.194 12.4734 233.934 12.5242 233.71 12.6257C233.49 12.7273 233.316 12.8606 233.189 13.0256C233.067 13.1907 233.005 13.3684 233.005 13.5588H231.831C231.831 13.3134 231.895 13.0701 232.021 12.8289C232.148 12.5876 232.33 12.3697 232.567 12.175C232.809 11.9762 233.096 11.8196 233.431 11.7053C233.769 11.5868 234.146 11.5276 234.561 11.5276C235.06 11.5276 235.5 11.6122 235.881 11.7815C236.266 11.9508 236.566 12.2068 236.782 12.5496C237.002 12.8881 237.112 13.3134 237.112 13.8254V17.0247C237.112 17.2532 237.131 17.4965 237.169 17.7546C237.212 18.0128 237.273 18.2349 237.354 18.4211V18.5227H236.128C236.069 18.3873 236.023 18.2074 235.989 17.9832C235.955 17.7546 235.938 17.5431 235.938 17.3484ZM236.141 14.3586L236.154 15.1838H234.967C234.632 15.1838 234.334 15.2113 234.072 15.2664C233.809 15.3171 233.589 15.3954 233.412 15.5012C233.234 15.607 233.098 15.7403 233.005 15.9011C232.912 16.0577 232.866 16.2418 232.866 16.4534C232.866 16.6692 232.914 16.866 233.012 17.0437C233.109 17.2214 233.255 17.3632 233.45 17.469C233.649 17.5706 233.892 17.6213 234.18 17.6213C234.539 17.6213 234.857 17.5452 235.132 17.3928C235.407 17.2405 235.625 17.0543 235.786 16.8342C235.951 16.6142 236.04 16.4005 236.052 16.1931L236.554 16.7581C236.524 16.9358 236.444 17.1326 236.312 17.3484C236.181 17.5642 236.006 17.7716 235.786 17.9705C235.57 18.1651 235.312 18.328 235.011 18.4592C234.715 18.5862 234.381 18.6497 234.008 18.6497C233.543 18.6497 233.134 18.5587 232.783 18.3767C232.436 18.1947 232.165 17.9514 231.971 17.6467C231.78 17.3378 231.685 16.9929 231.685 16.6121C231.685 16.2439 231.757 15.9202 231.901 15.6409C232.045 15.3573 232.252 15.1225 232.523 14.9363C232.794 14.7458 233.12 14.602 233.5 14.5046C233.881 14.4073 234.307 14.3586 234.776 14.3586H236.141ZM240.134 13.1208V18.5227H238.959V11.6545H240.07L240.134 13.1208ZM239.854 14.8284L239.366 14.8093C239.37 14.3396 239.44 13.9058 239.575 13.5081C239.711 13.106 239.901 12.7569 240.146 12.4607C240.392 12.1645 240.684 11.936 241.022 11.7751C241.365 11.6101 241.744 11.5276 242.159 11.5276C242.497 11.5276 242.802 11.5741 243.073 11.6672C243.344 11.7561 243.574 11.9 243.765 12.0989C243.959 12.2978 244.107 12.5559 244.209 12.8733C244.311 13.1864 244.361 13.5694 244.361 14.0222V18.5227H243.181V14.0095C243.181 13.6498 243.128 13.3621 243.022 13.1462C242.916 12.9262 242.762 12.7675 242.559 12.6702C242.355 12.5686 242.106 12.5178 241.81 12.5178C241.518 12.5178 241.251 12.5792 241.01 12.7019C240.773 12.8246 240.568 12.9939 240.394 13.2097C240.225 13.4255 240.091 13.6731 239.994 13.9524C239.901 14.2275 239.854 14.5194 239.854 14.8284Z" fill="white"/>
</g>
<defs>
<clipPath id="clip0_13_9798">
<rect width="413.333" height="80" fill="white" transform="translate(0 0.522705)"/>
</clipPath>
<clipPath id="clip1_13_9798">
<rect width="442.667" height="249" fill="white" transform="translate(25.4316 -173) rotate(15)"/>
</clipPath>
</defs>
</svg>
